<svg width="51" height="52" viewBox="0 0 51 52" fill="none" xmlns="http://www.w3.org/2000/svg">
<mask id="path-1-outside-1_181_84" maskUnits="userSpaceOnUse" x="-0.500004" y="-0.5" width="51" height="53" fill="black">
<rect fill="white" x="-0.500004" y="-0.5" width="51" height="53"/>
<path d="M21.8461 0.672798C12.7479 1.91073 5.04387 8.17249 1.88295 16.9101C0.344551 21.1767 0.0681206 26.477 1.16182 30.948C2.32764 35.6473 4.76744 39.8298 8.28893 43.135L9.5509 44.3128L9.40667 45.2743C9.32254 45.8031 9.28649 47.0411 9.31052 48.0386C9.34658 49.7693 9.3586 49.8534 9.6831 50.3342C9.86338 50.6106 10.236 50.9832 10.5124 51.1635L11.0172 51.5H25.1512H39.2852L39.79 51.1635C40.0664 50.9832 40.439 50.6106 40.6193 50.3342C40.9438 49.8534 40.9558 49.7693 40.9919 48.0386C41.0159 47.0531 40.9799 45.8031 40.8957 45.2743L40.7635 44.3128L42.0135 43.135C46.208 39.1928 48.8642 34.0248 49.6093 28.376C49.8377 26.7414 49.8377 23.4964 49.6213 21.8738C48.131 10.8166 39.3573 2.11505 28.24 0.660782C26.5213 0.444443 23.5167 0.444443 21.8461 0.672798ZM27.2545 2.28331C27.8554 2.35542 28.8049 2.48763 29.3938 2.59579L30.4394 2.78809V4.02602C30.4394 5.90095 30.8601 5.76874 25.1512 5.76874C19.4423 5.76874 19.863 5.90095 19.863 4.03804V2.80011L20.5 2.66791C21.0408 2.54772 22.0624 2.4035 23.4085 2.24725C24.2017 2.1511 26.2329 2.17514 27.2545 2.28331ZM18.1323 4.42264C18.1443 5.62452 18.3726 6.22545 19.0457 6.79033C19.8269 7.45136 19.8149 7.45136 25.1752 7.45136C30.7159 7.45136 30.6918 7.45136 31.4731 6.59803C31.9658 6.05719 32.098 5.66057 32.1581 4.47072C32.1822 3.92987 32.2423 3.44912 32.2783 3.40105C32.3985 3.28086 34.3095 4.03804 35.6075 4.71109C42.9149 8.52103 47.6503 15.7803 48.0709 23.8329L48.143 25.2391L44.6095 25.215L41.088 25.179L40.9318 23.7007C39.8141 12.5233 27.9996 5.98508 18.0001 11.0209C13.1205 13.4848 9.91146 18.2201 9.3586 23.7968L9.22639 25.179H5.74096H2.25553L2.21947 24.518C2.13534 23.0637 2.65215 20.023 3.36125 17.9077C5.5126 11.4296 10.5725 6.14132 17.0025 3.66546C18.1563 3.22077 18.1202 3.20875 18.1323 4.42264ZM27.7713 11.2493C30.7519 11.8502 33.1917 13.1723 35.271 15.2876C39.3694 19.4701 40.451 25.828 37.9632 31.0682C37.3863 32.2821 36.6291 33.4839 36.5329 33.3277C36.4969 33.2796 36.0882 32.258 35.6075 31.0682C35.1388 29.8783 34.6099 28.6764 34.4537 28.4C34.1172 27.8231 33.36 27.2462 32.6629 27.0539C32.3384 26.9698 29.8986 26.9217 25.0791 26.9217C17.2789 26.9217 17.3631 26.9097 16.4617 27.6548C15.9088 28.1116 15.7646 28.376 14.6829 31.0802C14.2142 32.258 13.8055 33.2796 13.7695 33.3277C13.5652 33.6762 11.9306 30.4312 11.5099 28.8447C9.89944 22.7392 12.3392 16.5495 17.6996 13.1362C19.0817 12.2468 21.1369 11.4656 22.8076 11.1892C23.8772 11.0089 26.7617 11.045 27.7713 11.2493ZM9.56292 28.0034C10.0196 30.347 11.0532 32.7388 12.3513 34.4815L12.9883 35.3228L11.6061 38.7842C10.8489 40.6831 10.1759 42.2937 10.1158 42.3537C9.99559 42.486 8.21682 40.7192 7.21926 39.4572C5.7049 37.5703 4.17853 34.7819 3.40933 32.5104C2.97665 31.2124 2.48388 29.0009 2.3637 27.7871L2.27957 26.9217H5.82509H9.3586L9.56292 28.0034ZM47.9387 27.775C47.8305 28.9408 47.3378 31.2004 46.8931 32.5104C46.3643 34.0849 45.0061 36.7771 44.0446 38.1592C42.7106 40.0942 40.391 42.5821 40.1626 42.3297C40.0304 42.1975 37.4103 35.5992 37.4103 35.4069C37.4103 35.3108 37.6988 34.83 38.0473 34.3373C39.3573 32.5224 40.2948 30.299 40.7395 28.0034L40.9438 26.9217H44.4773H48.0228L47.9387 27.775ZM32.1461 28.7245C32.7951 28.9048 33.0475 29.3254 34.0811 31.9095C34.5859 33.1594 35.944 36.5367 37.0978 39.3851L39.1891 44.5892H25.1512H11.1133L12.6517 40.7673C13.493 38.676 14.8752 35.2507 15.7165 33.1714C16.5458 31.0922 17.3511 29.2654 17.4953 29.1091C17.6275 28.9649 17.9159 28.7966 18.1082 28.7365C18.6491 28.5803 31.5932 28.5803 32.1461 28.7245ZM39.3093 47.4136C39.3573 48.7717 39.2011 49.3366 38.6963 49.6371C38.3237 49.8655 37.9872 49.8775 25.1752 49.8775C10.6085 49.8775 11.4859 49.9255 11.1374 49.0963C10.9691 48.6756 10.897 46.5122 11.0532 46.356C11.0893 46.3079 17.4592 46.2839 25.1993 46.2959L39.2732 46.3319L39.3093 47.4136Z"/>
</mask>
<path d="M21.8461 0.672798C12.7479 1.91073 5.04387 8.17249 1.88295 16.9101C0.344551 21.1767 0.0681206 26.477 1.16182 30.948C2.32764 35.6473 4.76744 39.8298 8.28893 43.135L9.5509 44.3128L9.40667 45.2743C9.32254 45.8031 9.28649 47.0411 9.31052 48.0386C9.34658 49.7693 9.3586 49.8534 9.6831 50.3342C9.86338 50.6106 10.236 50.9832 10.5124 51.1635L11.0172 51.5H25.1512H39.2852L39.79 51.1635C40.0664 50.9832 40.439 50.6106 40.6193 50.3342C40.9438 49.8534 40.9558 49.7693 40.9919 48.0386C41.0159 47.0531 40.9799 45.8031 40.8957 45.2743L40.7635 44.3128L42.0135 43.135C46.208 39.1928 48.8642 34.0248 49.6093 28.376C49.8377 26.7414 49.8377 23.4964 49.6213 21.8738C48.131 10.8166 39.3573 2.11505 28.24 0.660782C26.5213 0.444443 23.5167 0.444443 21.8461 0.672798ZM27.2545 2.28331C27.8554 2.35542 28.8049 2.48763 29.3938 2.59579L30.4394 2.78809V4.02602C30.4394 5.90095 30.8601 5.76874 25.1512 5.76874C19.4423 5.76874 19.863 5.90095 19.863 4.03804V2.80011L20.5 2.66791C21.0408 2.54772 22.0624 2.4035 23.4085 2.24725C24.2017 2.1511 26.2329 2.17514 27.2545 2.28331ZM18.1323 4.42264C18.1443 5.62452 18.3726 6.22545 19.0457 6.79033C19.8269 7.45136 19.8149 7.45136 25.1752 7.45136C30.7159 7.45136 30.6918 7.45136 31.4731 6.59803C31.9658 6.05719 32.098 5.66057 32.1581 4.47072C32.1822 3.92987 32.2423 3.44912 32.2783 3.40105C32.3985 3.28086 34.3095 4.03804 35.6075 4.71109C42.9149 8.52103 47.6503 15.7803 48.0709 23.8329L48.143 25.2391L44.6095 25.215L41.088 25.179L40.9318 23.7007C39.8141 12.5233 27.9996 5.98508 18.0001 11.0209C13.1205 13.4848 9.91146 18.2201 9.3586 23.7968L9.22639 25.179H5.74096H2.25553L2.21947 24.518C2.13534 23.0637 2.65215 20.023 3.36125 17.9077C5.5126 11.4296 10.5725 6.14132 17.0025 3.66546C18.1563 3.22077 18.1202 3.20875 18.1323 4.42264ZM27.7713 11.2493C30.7519 11.8502 33.1917 13.1723 35.271 15.2876C39.3694 19.4701 40.451 25.828 37.9632 31.0682C37.3863 32.2821 36.6291 33.4839 36.5329 33.3277C36.4969 33.2796 36.0882 32.258 35.6075 31.0682C35.1388 29.8783 34.6099 28.6764 34.4537 28.4C34.1172 27.8231 33.36 27.2462 32.6629 27.0539C32.3384 26.9698 29.8986 26.9217 25.0791 26.9217C17.2789 26.9217 17.3631 26.9097 16.4617 27.6548C15.9088 28.1116 15.7646 28.376 14.6829 31.0802C14.2142 32.258 13.8055 33.2796 13.7695 33.3277C13.5652 33.6762 11.9306 30.4312 11.5099 28.8447C9.89944 22.7392 12.3392 16.5495 17.6996 13.1362C19.0817 12.2468 21.1369 11.4656 22.8076 11.1892C23.8772 11.0089 26.7617 11.045 27.7713 11.2493ZM9.56292 28.0034C10.0196 30.347 11.0532 32.7388 12.3513 34.4815L12.9883 35.3228L11.6061 38.7842C10.8489 40.6831 10.1759 42.2937 10.1158 42.3537C9.99559 42.486 8.21682 40.7192 7.21926 39.4572C5.7049 37.5703 4.17853 34.7819 3.40933 32.5104C2.97665 31.2124 2.48388 29.0009 2.3637 27.7871L2.27957 26.9217H5.82509H9.3586L9.56292 28.0034ZM47.9387 27.775C47.8305 28.9408 47.3378 31.2004 46.8931 32.5104C46.3643 34.0849 45.0061 36.7771 44.0446 38.1592C42.7106 40.0942 40.391 42.5821 40.1626 42.3297C40.0304 42.1975 37.4103 35.5992 37.4103 35.4069C37.4103 35.3108 37.6988 34.83 38.0473 34.3373C39.3573 32.5224 40.2948 30.299 40.7395 28.0034L40.9438 26.9217H44.4773H48.0228L47.9387 27.775ZM32.1461 28.7245C32.7951 28.9048 33.0475 29.3254 34.0811 31.9095C34.5859 33.1594 35.944 36.5367 37.0978 39.3851L39.1891 44.5892H25.1512H11.1133L12.6517 40.7673C13.493 38.676 14.8752 35.2507 15.7165 33.1714C16.5458 31.0922 17.3511 29.2654 17.4953 29.1091C17.6275 28.9649 17.9159 28.7966 18.1082 28.7365C18.6491 28.5803 31.5932 28.5803 32.1461 28.7245ZM39.3093 47.4136C39.3573 48.7717 39.2011 49.3366 38.6963 49.6371C38.3237 49.8655 37.9872 49.8775 25.1752 49.8775C10.6085 49.8775 11.4859 49.9255 11.1374 49.0963C10.9691 48.6756 10.897 46.5122 11.0532 46.356C11.0893 46.3079 17.4592 46.2839 25.1993 46.2959L39.2732 46.3319L39.3093 47.4136Z" fill="#313131"/>
<path d="M21.8461 0.672798C12.7479 1.91073 5.04387 8.17249 1.88295 16.9101C0.344551 21.1767 0.0681206 26.477 1.16182 30.948C2.32764 35.6473 4.76744 39.8298 8.28893 43.135L9.5509 44.3128L9.40667 45.2743C9.32254 45.8031 9.28649 47.0411 9.31052 48.0386C9.34658 49.7693 9.3586 49.8534 9.6831 50.3342C9.86338 50.6106 10.236 50.9832 10.5124 51.1635L11.0172 51.5H25.1512H39.2852L39.79 51.1635C40.0664 50.9832 40.439 50.6106 40.6193 50.3342C40.9438 49.8534 40.9558 49.7693 40.9919 48.0386C41.0159 47.0531 40.9799 45.8031 40.8957 45.2743L40.7635 44.3128L42.0135 43.135C46.208 39.1928 48.8642 34.0248 49.6093 28.376C49.8377 26.7414 49.8377 23.4964 49.6213 21.8738C48.131 10.8166 39.3573 2.11505 28.24 0.660782C26.5213 0.444443 23.5167 0.444443 21.8461 0.672798ZM27.2545 2.28331C27.8554 2.35542 28.8049 2.48763 29.3938 2.59579L30.4394 2.78809V4.02602C30.4394 5.90095 30.8601 5.76874 25.1512 5.76874C19.4423 5.76874 19.863 5.90095 19.863 4.03804V2.80011L20.5 2.66791C21.0408 2.54772 22.0624 2.4035 23.4085 2.24725C24.2017 2.1511 26.2329 2.17514 27.2545 2.28331ZM18.1323 4.42264C18.1443 5.62452 18.3726 6.22545 19.0457 6.79033C19.8269 7.45136 19.8149 7.45136 25.1752 7.45136C30.7159 7.45136 30.6918 7.45136 31.4731 6.59803C31.9658 6.05719 32.098 5.66057 32.1581 4.47072C32.1822 3.92987 32.2423 3.44912 32.2783 3.40105C32.3985 3.28086 34.3095 4.03804 35.6075 4.71109C42.9149 8.52103 47.6503 15.7803 48.0709 23.8329L48.143 25.2391L44.6095 25.215L41.088 25.179L40.9318 23.7007C39.8141 12.5233 27.9996 5.98508 18.0001 11.0209C13.1205 13.4848 9.91146 18.2201 9.3586 23.7968L9.22639 25.179H5.74096H2.25553L2.21947 24.518C2.13534 23.0637 2.65215 20.023 3.36125 17.9077C5.5126 11.4296 10.5725 6.14132 17.0025 3.66546C18.1563 3.22077 18.1202 3.20875 18.1323 4.42264ZM27.7713 11.2493C30.7519 11.8502 33.1917 13.1723 35.271 15.2876C39.3694 19.4701 40.451 25.828 37.9632 31.0682C37.3863 32.2821 36.6291 33.4839 36.5329 33.3277C36.4969 33.2796 36.0882 32.258 35.6075 31.0682C35.1388 29.8783 34.6099 28.6764 34.4537 28.4C34.1172 27.8231 33.36 27.2462 32.6629 27.0539C32.3384 26.9698 29.8986 26.9217 25.0791 26.9217C17.2789 26.9217 17.3631 26.9097 16.4617 27.6548C15.9088 28.1116 15.7646 28.376 14.6829 31.0802C14.2142 32.258 13.8055 33.2796 13.7695 33.3277C13.5652 33.6762 11.9306 30.4312 11.5099 28.8447C9.89944 22.7392 12.3392 16.5495 17.6996 13.1362C19.0817 12.2468 21.1369 11.4656 22.8076 11.1892C23.8772 11.0089 26.7617 11.045 27.7713 11.2493ZM9.56292 28.0034C10.0196 30.347 11.0532 32.7388 12.3513 34.4815L12.9883 35.3228L11.6061 38.7842C10.8489 40.6831 10.1759 42.2937 10.1158 42.3537C9.99559 42.486 8.21682 40.7192 7.21926 39.4572C5.7049 37.5703 4.17853 34.7819 3.40933 32.5104C2.97665 31.2124 2.48388 29.0009 2.3637 27.7871L2.27957 26.9217H5.82509H9.3586L9.56292 28.0034ZM47.9387 27.775C47.8305 28.9408 47.3378 31.2004 46.8931 32.5104C46.3643 34.0849 45.0061 36.7771 44.0446 38.1592C42.7106 40.0942 40.391 42.5821 40.1626 42.3297C40.0304 42.1975 37.4103 35.5992 37.4103 35.4069C37.4103 35.3108 37.6988 34.83 38.0473 34.3373C39.3573 32.5224 40.2948 30.299 40.7395 28.0034L40.9438 26.9217H44.4773H48.0228L47.9387 27.775ZM32.1461 28.7245C32.7951 28.9048 33.0475 29.3254 34.0811 31.9095C34.5859 33.1594 35.944 36.5367 37.0978 39.3851L39.1891 44.5892H25.1512H11.1133L12.6517 40.7673C13.493 38.676 14.8752 35.2507 15.7165 33.1714C16.5458 31.0922 17.3511 29.2654 17.4953 29.1091C17.6275 28.9649 17.9159 28.7966 18.1082 28.7365C18.6491 28.5803 31.5932 28.5803 32.1461 28.7245ZM39.3093 47.4136C39.3573 48.7717 39.2011 49.3366 38.6963 49.6371C38.3237 49.8655 37.9872 49.8775 25.1752 49.8775C10.6085 49.8775 11.4859 49.9255 11.1374 49.0963C10.9691 48.6756 10.897 46.5122 11.0532 46.356C11.0893 46.3079 17.4592 46.2839 25.1993 46.2959L39.2732 46.3319L39.3093 47.4136Z" stroke="#313131" mask="url(#path-1-outside-1_181_84)"/>
</svg>
