<svg width="32" height="32" viewBox="0 0 32 32" fill="none" xmlns="http://www.w3.org/2000/svg">
<path d="M30.75 22C31.4404 22 32 21.4404 32 20.75V5C32 2.24292 29.7571 0 27 0H5C2.24292 0 0 2.24292 0 5V27C0 29.7571 2.24292 32 5 32H27C29.7571 32 32 29.7571 32 27C32 26.3096 31.4404 25.75 30.75 25.75C30.0596 25.75 29.5 26.3096 29.5 27C29.5 28.3784 28.3784 29.5 27 29.5H20.875V20.375H23.7681C24.4006 20.375 24.9336 19.9023 25.0093 19.2744L25.1748 17.8994C25.2642 17.1553 24.6833 16.5 23.9336 16.5H20.875V12.3125C20.875 11.2769 21.7144 10.4375 22.75 10.4375H24.3125C25.0029 10.4375 25.5625 9.87793 25.5625 9.1875V7.9231C25.5625 7.28271 25.0789 6.74463 24.4417 6.67969C23.8079 6.61523 23.1372 6.5625 22.75 6.5625C21.2922 6.5625 19.8311 7.17749 18.7412 8.24951C17.6184 9.354 17 10.8008 17 12.3235V16.5H14.1875C13.4971 16.5 12.9375 17.0596 12.9375 17.75V19.125C12.9375 19.8154 13.4971 20.375 14.1875 20.375H17V29.5H5C3.62158 29.5 2.5 28.3784 2.5 27V5C2.5 3.62158 3.62158 2.5 5 2.5H27C28.3784 2.5 29.5 3.62158 29.5 5V20.75C29.5 21.4404 30.0596 22 30.75 22Z" fill="#004588"/>
</svg>
