<svg width="61" height="61" viewBox="0 0 61 61" fill="none" xmlns="http://www.w3.org/2000/svg">
<path d="M56.425 0.645176C55.6148 1.26471 55.5195 2.07486 55.3766 10.4147L55.2336 19.5171H52.6125H50.0391V13.6553C50.0391 9.12799 49.8484 7.55533 49.2766 6.74518L48.5617 5.69674H25.0672C2.90703 5.69674 1.525 5.7444 0.810156 6.55455C0.0953125 7.36471 0 9.69987 0 30.5733C0 52.3522 0.0476562 53.7342 0.857812 54.4491C1.66797 55.1639 4.05078 55.2592 25.1625 55.2592H48.5617L49.2766 54.2108C49.8484 53.4006 50.0391 51.828 50.0391 47.3006V41.4389H52.6125H55.2336L55.3766 50.5413C55.5195 58.8811 55.6148 59.6913 56.425 60.3108C57.7117 61.2163 59.2844 61.1686 60.1898 60.1202C60.9047 59.31 61 56.546 61 30.3827C61 3.07565 60.9523 1.50299 60.1422 0.788147C59.0461 -0.212635 57.6641 -0.260292 56.425 0.645176ZM44.3203 30.478V50.0171H25.0195H5.71875V30.478V10.9389H25.0195H44.3203V30.478ZM55.2812 30.478V36.1967H52.6602H50.0391V30.478V24.7592H52.6602H55.2812V30.478Z" fill="#00ADEF"/>
<path d="M21.4455 23.0912V26.6654H17.633H13.8205V30.4779V34.2904H17.6806H21.5408L21.3502 37.8646L21.2072 41.4388H24.9244H28.5939V37.8646V34.2904H32.4064H36.2189V30.4779V26.6654H32.4064H28.5939V23.0912V19.517H25.0197H21.4455V23.0912Z" fill="#00ADEF"/>
</svg>
