<svg width="32" height="32" viewBox="0 0 32 32" fill="none" xmlns="http://www.w3.org/2000/svg">
<path d="M16.3149 31.9999C16.209 31.9999 16.103 31.9999 15.9963 31.9994C13.488 32.0055 11.1704 31.9418 8.9165 31.8046C6.8501 31.6789 4.96387 30.9648 3.46143 29.7397C2.01172 28.5575 1.02173 26.9591 0.519043 24.9894C0.081543 23.2746 0.0583496 21.5912 0.0361328 19.963C0.0200195 18.7948 0.00341797 17.4106 0 16.0028C0.00341797 14.5893 0.0200195 13.205 0.0361328 12.0368C0.0583496 10.4088 0.081543 8.7255 0.519043 7.01041C1.02173 5.04068 2.01172 3.44229 3.46143 2.26016C4.96387 1.03507 6.8501 0.320955 8.91675 0.195223C11.1707 0.0582598 13.4888 -0.00570501 16.0024 0.000398507C18.5115 -0.00497259 20.8284 0.0582598 23.0823 0.195223C25.1487 0.320955 27.0349 1.03507 28.5373 2.26016C29.9873 3.44229 30.977 5.04068 31.4797 7.01041C31.9172 8.72525 31.9404 10.4088 31.9626 12.0368C31.9788 13.205 31.9956 14.5893 31.9988 15.997C31.9956 17.4106 31.9788 18.7948 31.9626 19.963C31.9534 20.6535 31.3831 21.2052 30.6958 21.196C30.0054 21.1864 29.4536 20.619 29.4629 19.9289C29.4788 18.7675 29.4956 17.3922 29.4988 15.997C29.4956 14.6076 29.4788 13.2323 29.4629 12.071C29.4426 10.5888 29.4216 9.05606 29.0574 7.62857C28.6899 6.18863 27.9834 5.03433 26.9575 4.19766C25.8479 3.29263 24.4929 2.78555 22.9304 2.69058C20.7295 2.55679 18.4639 2.49503 16.0024 2.50015C13.5352 2.49429 11.2693 2.55679 9.06836 2.69058C7.50586 2.78555 6.15112 3.29263 5.04126 4.19742C4.01538 5.03409 3.30884 6.18839 2.94141 7.62857C2.57715 9.05606 2.55615 10.5888 2.53589 12.071C2.52002 13.2323 2.50342 14.6076 2.5 16.0028C2.50342 17.3922 2.52002 18.7675 2.53589 19.9289C2.55615 21.411 2.57715 22.9438 2.94141 24.3712C3.30884 25.8112 4.01538 26.9655 5.04126 27.8022C6.15112 28.7072 7.50586 29.2143 9.06836 29.3092C11.2693 29.443 13.5356 29.5055 15.9966 29.4994C18.4641 29.5053 20.7295 29.443 22.9304 29.3092C24.4929 29.2143 25.8477 28.7072 26.9575 27.8022C27.6965 27.1994 28.2739 26.4259 28.6736 25.5031C28.948 24.8698 29.6838 24.5785 30.3174 24.8529C30.9509 25.1273 31.2419 25.8632 30.9678 26.4967C30.4075 27.7904 29.5898 28.8815 28.5373 29.7397C27.0349 30.965 25.1487 31.6789 23.0823 31.8046C20.9238 31.9359 18.7065 31.9999 16.3149 31.9999ZM23.7493 15.9999C23.7493 11.692 20.2446 8.18741 15.9368 8.18741C11.6291 8.18741 8.12427 11.692 8.12427 15.9999C8.12427 20.3078 11.6291 23.8124 15.9368 23.8124C20.2446 23.8124 23.7493 20.3078 23.7493 15.9999ZM21.2493 15.9999C21.2493 18.9291 18.8662 21.3124 15.9368 21.3124C13.0076 21.3124 10.6243 18.9291 10.6243 15.9999C10.6243 13.0707 13.0076 10.6874 15.9368 10.6874C18.8662 10.6874 21.2493 13.0707 21.2493 15.9999ZM24.6243 5.68741C23.5889 5.68741 22.7493 6.52676 22.7493 7.56241C22.7493 8.59805 23.5889 9.43741 24.6243 9.43741C25.6599 9.43741 26.4993 8.59805 26.4993 7.56241C26.4993 6.52676 25.6599 5.68741 24.6243 5.68741Z" fill="#004588"/>
</svg>
