<svg width="41" height="41" viewBox="0 0 41 41" fill="none" xmlns="http://www.w3.org/2000/svg">
<rect width="41" height="41" rx="12" fill="#00ADEF"/>
<path d="M9.39927 6.68069C8.97777 6.85587 8.86281 6.93798 8.58911 7.25C8.2935 7.59487 8.11286 8.0328 8.0417 8.56378C8.00885 8.84296 7.99243 13.0361 8.00338 20.8641C8.0198 31.7192 8.03075 32.7648 8.11286 32.9947C8.35372 33.6789 8.70406 34.1059 9.24052 34.3687L9.60729 34.5493H20.5828H31.5584L31.8978 34.3906C32.5328 34.1004 33.0036 33.4217 33.1185 32.6334C33.1897 32.1298 33.1897 9.02361 33.1185 8.51999C33.0036 7.6934 32.5547 7.03651 31.9033 6.73544L31.5584 6.57669L20.6376 6.56574L9.71677 6.54932L9.39927 6.68069ZM31.3285 7.83026C31.5475 7.91784 31.7719 8.17512 31.8704 8.44883C31.9744 8.75538 31.9744 32.3706 31.8704 32.6772C31.7719 32.9509 31.5475 33.2082 31.3285 33.2957C31.0657 33.4107 10.1 33.4107 9.8372 33.2957C9.61824 33.2082 9.3938 32.9509 9.29526 32.6772C9.19126 32.3706 9.19126 8.75538 9.29526 8.44883C9.3938 8.1806 9.61276 7.92332 9.82625 7.83026C10.0726 7.72077 31.0657 7.72077 31.3285 7.83026Z" fill="white"/>
<path d="M20.4624 8.45987L20.2818 8.61862L20.2653 15.9867C20.2599 20.1416 20.2325 23.3549 20.2051 23.3549C20.0518 23.3549 18.0045 23.0593 17.5338 22.9662C17.2272 22.906 16.647 22.7473 16.2473 22.6049C15.0321 22.1834 14.2329 22.2163 13.4446 22.7199C12.8917 23.0702 12.4264 23.76 12.2348 24.5044C12.0925 25.0464 12.0651 25.8894 12.1746 26.3711C12.4483 27.5918 13.3351 28.2433 15.3277 28.6921C16.4335 28.9385 16.7181 29.1465 17.1889 30.0825C17.3367 30.3836 17.5392 30.7175 17.6323 30.8215C18.3056 31.5934 20.1887 32.3652 21.1029 32.2503C22.1046 32.1189 23.2432 31.6098 23.9165 30.9858C24.1738 30.7449 24.3107 30.5588 24.5515 30.0825C24.8909 29.4257 25.1701 29.0972 25.5314 28.9385C25.6518 28.8837 26.0405 28.7742 26.3854 28.6976C28.5914 28.1995 29.4509 27.4933 29.6151 26.0317C29.7574 24.7946 29.2647 23.4206 28.4819 22.8458C27.9291 22.4462 27.524 22.3148 26.8233 22.3148C26.4182 22.3148 26.2759 22.3476 25.7285 22.5392C24.7212 22.8896 24.4092 22.9607 23.0079 23.1633C22.2798 23.2673 21.6448 23.3549 21.601 23.3549C21.5244 23.3549 21.5134 22.6378 21.5134 16.14C21.5134 11.3666 21.4915 8.85948 21.4587 8.7281C21.3328 8.29017 20.8073 8.14785 20.4624 8.45987ZM15.9955 23.8147C16.948 24.1322 17.3312 24.2088 19.5427 24.5099L20.8292 24.6851L21.5682 24.592C24.1738 24.2581 24.9074 24.1213 25.9201 23.7709C26.3197 23.6286 26.7302 23.5191 26.8561 23.5191C27.3817 23.5191 27.8579 23.8257 28.1207 24.3238C28.3341 24.7344 28.4272 25.123 28.4217 25.654C28.4217 26.1795 28.3013 26.4751 27.9729 26.7707C27.6444 27.0663 27.2612 27.2196 26.1774 27.4933C24.9949 27.7889 24.7212 27.9203 24.1957 28.4458C23.8618 28.7852 23.7304 28.9658 23.5005 29.4311C23.1775 30.0771 22.9969 30.2522 22.3072 30.5971C21.1686 31.1609 20.6211 31.1664 19.5154 30.63C18.7654 30.2687 18.5738 30.088 18.229 29.4038C17.9991 28.9439 17.8458 28.7195 17.5721 28.4403C17.0904 27.9476 16.7236 27.7725 15.574 27.4878C14.5723 27.2415 14.2657 27.1265 13.888 26.8693C13.2859 26.4532 13.1435 25.55 13.5267 24.5373C13.7457 23.9406 14.2931 23.5355 14.8733 23.5246C15.0157 23.5191 15.4427 23.6341 15.9955 23.8147Z" fill="white"/>
<path d="M15.0321 24.6686C14.6872 24.7781 14.4518 25.1229 14.4518 25.5171C14.4518 25.8729 14.5887 26.1247 14.8624 26.2834C15.3003 26.5462 15.9134 26.3875 16.116 25.9605C16.313 25.5444 16.1871 25.0408 15.8204 24.7671C15.6561 24.6522 15.2511 24.5974 15.0321 24.6686Z" fill="white"/>
<path d="M26.0022 24.7397C25.7285 24.8821 25.5095 25.2324 25.5095 25.5116C25.5095 25.7415 25.7175 26.1411 25.9091 26.278C26.1281 26.4422 26.6974 26.4422 26.9109 26.278C27.2065 26.059 27.2886 25.8948 27.2886 25.5171C27.2886 25.101 27.1791 24.9204 26.8233 24.7343C26.5168 24.581 26.2978 24.581 26.0022 24.7397Z" fill="white"/>
<path d="M14.1179 10.6821C13.8935 10.8025 13.7785 11.0981 13.8497 11.3554C13.9209 11.6346 14.0085 11.7058 14.5613 11.9302C15.6671 12.39 16.7619 12.5214 17.6268 12.3024C18.4644 12.0944 19.0665 11.7112 19.1377 11.339C19.2089 10.9394 18.8202 10.5453 18.437 10.6274C18.3439 10.6493 18.1524 10.7369 18.0155 10.8299C17.2655 11.3007 16.116 11.2788 14.9391 10.7587C14.534 10.5836 14.3314 10.5672 14.1179 10.6821Z" fill="white"/>
<path d="M22.9586 10.6493C22.7506 10.7369 22.6082 10.9777 22.6082 11.235C22.6082 11.4321 22.6411 11.5032 22.7889 11.651C23.391 12.2532 24.7431 12.5488 25.8653 12.3298C26.785 12.1547 27.7375 11.755 27.8524 11.5032C27.9674 11.2569 27.9345 10.9996 27.7703 10.819C27.5349 10.5617 27.316 10.5507 26.7576 10.7807C25.5205 11.2952 24.5078 11.3171 23.7469 10.8409C23.4075 10.6329 23.1447 10.5726 22.9586 10.6493Z" fill="white"/>
<path d="M12.8698 13.1238C12.7385 13.2552 12.7001 13.3373 12.7001 13.5015C12.7001 13.8573 12.7932 13.9832 13.2147 14.1858C14.6982 14.8919 16.647 14.9248 18.3768 14.2843C18.9023 14.0872 19.0501 13.9668 19.0994 13.6821C19.1541 13.3975 19.0446 13.1457 18.8256 13.0307C18.6122 12.9212 18.4589 12.9322 18.0319 13.0964C17.3476 13.3537 16.8604 13.4522 16.116 13.4851C15.1799 13.5289 14.5121 13.4084 13.7238 13.069C13.3297 12.8993 13.0724 12.9158 12.8698 13.1238Z" fill="white"/>
<path d="M22.871 13.0799C22.3948 13.485 22.5699 13.994 23.2925 14.2623C24.9785 14.8973 26.7631 14.8973 28.3725 14.2623C28.9254 14.0378 29.0896 13.8517 29.0513 13.5069C29.0294 13.3207 28.9801 13.2222 28.8542 13.1072C28.6298 12.9047 28.482 12.9102 27.8305 13.151C27.1189 13.4083 26.6098 13.5014 25.9201 13.5014C25.2139 13.5014 24.5406 13.3864 23.8399 13.1456C23.194 12.9211 23.0681 12.9102 22.871 13.0799Z" fill="white"/>
<path d="M22.8765 15.3791C22.5535 15.5926 22.5207 16.0469 22.8108 16.3152C22.9969 16.4903 23.9658 16.8078 24.6337 16.9228C25.7723 17.1144 27.2612 17.0925 28.6024 16.8571C29.1717 16.7641 30.3158 16.4849 30.5074 16.3973C30.8249 16.255 30.9179 15.7623 30.6825 15.4831C30.4745 15.2313 30.3048 15.2204 29.5166 15.412C28.1645 15.7349 26.889 15.8827 25.9475 15.8225C25.192 15.7787 24.2614 15.6035 23.7469 15.4174C23.2104 15.2204 23.1173 15.2149 22.8765 15.3791Z" fill="white"/>
<path d="M10.5872 15.4007C10.2423 15.6854 10.2861 16.2273 10.6638 16.4244C10.8828 16.5339 11.9338 16.824 12.5359 16.9335C13.2749 17.0703 15.5631 17.0703 16.3131 16.9335C17.0083 16.8076 17.8732 16.5832 18.1578 16.4572C18.6122 16.2602 18.6943 15.7128 18.3166 15.4062C18.1578 15.2748 17.8732 15.2858 17.3148 15.4445C16.3569 15.7237 15.6233 15.8168 14.3698 15.8223C13.1217 15.8223 12.6345 15.762 11.7312 15.4883C11.1072 15.3022 10.7404 15.2694 10.5872 15.4007Z" fill="white"/>
<path d="M13.7293 18.8003C13.3844 18.8441 13.16 19.2985 13.3242 19.6433C13.4337 19.8733 13.5322 19.9335 14.1727 20.1524C14.9555 20.4207 15.4372 20.5137 16.2638 20.5466C17.1779 20.5849 17.7308 20.4864 18.3658 20.1853C19.0501 19.8623 19.2526 19.5722 19.0829 19.1726C18.9078 18.7511 18.5574 18.7073 17.9498 19.0248C17.0849 19.4682 15.9189 19.4627 14.5887 18.9974C14.107 18.8332 13.8825 18.7784 13.7293 18.8003Z" fill="white"/>
<path d="M22.871 18.9042C22.5754 19.0904 22.5316 19.5666 22.7834 19.8348C22.975 20.0374 23.7304 20.3822 24.2067 20.4753C24.7486 20.5848 25.7394 20.5848 26.3635 20.4808C26.6317 20.4315 27.1517 20.2947 27.524 20.1687C28.3123 19.906 28.4655 19.7801 28.4655 19.386C28.4655 19.1944 28.4327 19.1177 28.2958 18.9809C28.0714 18.7564 27.8743 18.7619 27.1517 19.0028C26.4127 19.2491 25.8325 19.3586 25.2249 19.3586C24.6282 19.3586 24.1738 19.2491 23.7195 18.9973C23.3473 18.7893 23.1009 18.7619 22.871 18.9042Z" fill="white"/>
</svg>
