<svg width="55" height="58" viewBox="0 0 55 58" fill="none" xmlns="http://www.w3.org/2000/svg">
<path d="M2.67055 18.0749H51.9647M39.6411 2.67053V8.8323M14.9941 2.67053V8.8323M2.67055 5.75141H51.9647V48.8838C51.9647 50.518 51.3155 52.0852 50.1599 53.2408C49.0044 54.3963 47.4371 55.0455 45.8029 55.0455H8.83231C7.19811 55.0455 5.63084 54.3963 4.47529 53.2408C3.31973 52.0852 2.67055 50.518 2.67055 48.8838V5.75141Z" stroke="#00ADEF" stroke-width="5.3411" stroke-linecap="round" stroke-linejoin="round"/>
<path d="M24.8131 31.4329V34.0423H22.0298H19.2464V36.8257V39.609H22.0646H24.8827L24.7436 42.2185L24.6392 44.8279H27.353H30.032V42.2185V39.609H32.8153H35.5987V36.8257V34.0423H32.8153H30.032V31.4329V28.8235H27.4226H24.8131V31.4329Z" fill="#00ADEF"/>
</svg>
