<svg width="17" height="17" viewBox="0 0 17 17" fill="none" xmlns="http://www.w3.org/2000/svg">
<path d="M16.6268 13.1634C16.5223 12.6651 16.1947 12.2191 15.7243 11.9403C14.8532 11.4281 13.9507 10.9333 13.0796 10.4559L12.4837 10.1284C11.7241 9.71373 11.2049 9.79038 10.9018 9.92976C10.6126 10.0622 10.2328 10.3793 10.069 11.1424C10.0655 11.1528 10.062 11.1668 10.062 11.1807C10.0098 11.3793 9.8634 11.4595 9.77977 11.4908C9.58813 11.557 9.36165 11.5117 9.17348 11.3654C7.72045 10.2224 6.46256 8.96804 5.32662 7.53593C5.18027 7.35473 5.13497 7.13171 5.20465 6.94007C5.23602 6.85296 5.32313 6.69615 5.56705 6.6439C5.57749 6.64041 5.59144 6.64041 5.60188 6.63692C6.37545 6.46619 6.68209 6.06895 6.80752 5.7658C6.94342 5.42433 6.9887 4.83894 6.4277 3.99568C6.00609 3.36499 5.65416 2.67507 5.31266 2.00605C5.15588 1.70291 5.00256 1.39976 4.84227 1.10008C4.5217 0.507709 4.0931 0.138355 3.60528 0.030337C3.16274 -0.0637295 2.69584 0.0617067 2.2533 0.396225C1.81425 0.730721 1.35081 1.10008 0.911783 1.52519C-0.0325198 2.4451 -0.248556 3.60891 0.288047 4.88771C2.56342 10.334 6.48347 14.2261 11.9436 16.4597C12.3687 16.6374 12.7869 16.7245 13.1841 16.7245C13.9019 16.7245 14.5605 16.4388 15.132 15.8743C15.5954 15.4178 16.0031 14.8917 16.3515 14.4282C16.6198 14.0624 16.7174 13.6129 16.6268 13.1634Z" fill="white"/>
</svg>
