<svg width="17" height="17" viewBox="0 0 17 17" fill="none" xmlns="http://www.w3.org/2000/svg">
<path d="M8.5 0C13.1946 0 17 3.80545 17 8.5C17 13.1945 13.1946 17 8.5 17C7.05328 17.002 5.63016 16.6333 4.36646 15.929L4.1072 15.7777L1.53001 16.5359C1.38976 16.5772 1.24128 16.582 1.09864 16.5499C0.95601 16.5178 0.823946 16.4497 0.714973 16.3523C0.606 16.2548 0.523729 16.1311 0.475958 15.9929C0.428188 15.8547 0.416501 15.7066 0.442007 15.5626L0.464107 15.47L1.22231 12.8928C0.420802 11.5679 -0.00196557 10.0485 6.87042e-06 8.5C6.87042e-06 3.80545 3.80546 0 8.5 0ZM8.5 1.7C7.28249 1.69978 6.08724 2.02645 5.03909 2.64589C3.99093 3.26534 3.12831 4.15483 2.5413 5.2215C1.9543 6.28816 1.66445 7.49286 1.70201 8.7098C1.73958 9.92674 2.10318 11.1113 2.75486 12.1397C2.92316 12.4049 2.99541 12.7313 2.93846 13.0551L2.90531 13.1937L2.53046 14.4695L3.80631 14.0947C4.17436 13.9859 4.55686 14.0522 4.8603 14.2451C5.75138 14.8094 6.76149 15.1586 7.81078 15.2652C8.86006 15.3718 9.91976 15.2328 10.9061 14.8593C11.8924 14.4859 12.7784 13.888 13.4939 13.1132C14.2094 12.3383 14.7349 11.4077 15.0287 10.3947C15.3226 9.38182 15.3769 8.31442 15.1872 7.27694C14.9975 6.23945 14.569 5.26031 13.9357 4.41692C13.3025 3.57353 12.4817 2.88901 11.5383 2.41747C10.5948 1.94593 9.55469 1.7003 8.5 1.7ZM6.0367 4.4064C6.1309 4.36606 6.23392 4.35073 6.33578 4.3619C6.43764 4.37307 6.53489 4.41036 6.6181 4.47015C7.0465 4.78295 7.3865 5.20285 7.6789 5.61255L7.95685 6.01545L8.0869 6.2067C8.16222 6.31631 8.19921 6.44773 8.19214 6.58054C8.18507 6.71335 8.13433 6.8401 8.0478 6.9411L7.98405 7.0057L7.19865 7.5888C7.16128 7.61651 7.13502 7.65664 7.12458 7.70197C7.11414 7.74731 7.12021 7.79488 7.1417 7.83615C7.3202 8.15915 7.63555 8.6411 7.99765 9.0032C8.3606 9.3653 8.86465 9.7019 9.20975 9.89995C9.28455 9.94245 9.37465 9.92885 9.43585 9.8736L9.46815 9.83535L9.979 9.0576C10.0726 8.93249 10.2112 8.84858 10.3654 8.82353C10.5197 8.79848 10.6776 8.83425 10.8061 8.9233L11.2676 9.24545C11.7266 9.5727 12.1678 9.9246 12.5171 10.3708C12.5817 10.4547 12.6228 10.5543 12.6361 10.6593C12.6494 10.7644 12.6344 10.8711 12.5928 10.9684C12.2562 11.7538 11.4036 12.4227 10.5179 12.3904L10.3828 12.3819L10.2204 12.3666L10.1286 12.3547L9.9263 12.3207C9.1409 12.1728 7.88205 11.7274 6.5773 10.4235C5.2734 9.1188 4.828 7.85995 4.68011 7.07455L4.64611 6.87225L4.62486 6.69545L4.61381 6.5467L4.6104 6.48295C4.5781 5.59555 5.25045 4.743 6.0367 4.4064Z" fill="white"/>
</svg>
