<svg width="41" height="41" viewBox="0 0 41 41" fill="none" xmlns="http://www.w3.org/2000/svg">
<rect width="41" height="41" rx="12" fill="#00ADEF"/>
<path d="M22.9609 3.57368L22.2176 4.59804L21.583 4.70682C20.8034 4.8428 19.9694 5.21447 19.362 5.70399C19.0448 5.94875 18.3467 6.819 17.1773 8.41447C16.2346 9.70173 15.1377 11.1975 14.7479 11.7323C13.9139 12.8655 12.6901 14.5335 12.4272 14.8961L12.255 15.1318L12.9802 15.6485C13.37 15.9295 13.7144 16.1833 13.7416 16.2196C13.7598 16.2558 13.4153 16.7725 12.9711 17.3708C12.5269 17.9601 12.1643 18.4587 12.1643 18.4768C12.1643 18.4949 12.6448 18.8575 13.2249 19.2927C13.8142 19.7187 14.5303 20.2536 14.8204 20.4711C15.1014 20.6796 15.3552 20.8609 15.3734 20.8609C15.3915 20.8609 15.7722 20.3714 16.2074 19.7731C16.6697 19.1386 17.0504 18.6944 17.1139 18.7216C17.1773 18.7487 17.5218 18.9754 17.8663 19.2292C18.2198 19.483 18.5462 19.6734 18.6006 19.6371C18.6459 19.6099 19.2261 18.8485 19.8788 17.951C20.7127 16.8179 21.1207 16.3374 21.2113 16.3737C21.6646 16.5459 22.2266 16.6184 22.7977 16.5731C23.4323 16.5278 23.4595 16.5369 23.8765 16.8451C26.9133 19.066 27.013 23.6077 24.0759 26.0099C23.3054 26.6445 22.2992 27.0887 21.2567 27.2519L20.8669 27.3153V25.8558V24.3963H15.0652H9.26346V28.2037V32.0111H9.85269H10.4419V30.2978V28.5754L15.9989 28.5391C22.1541 28.5029 22.0091 28.521 23.387 27.8774C25.2453 27.0252 26.6504 25.3572 27.2306 23.3448C27.4935 22.4111 27.5116 20.6706 27.2669 19.7822C26.9133 18.4859 26.2516 17.3708 25.2725 16.419L24.6833 15.8298L24.8918 15.6031C25.2725 15.1952 25.5717 14.6785 25.6805 14.2252C25.7439 13.9895 25.8255 13.7901 25.8618 13.7901C25.9615 13.7901 26.4238 14.1618 27.013 14.7329C29.1796 16.8179 30.1496 19.6009 29.8414 22.8553C29.5966 25.466 28.9802 27.3788 27.7745 29.2462C26.8589 30.6694 25.0731 32.1561 23.5955 32.7272C22.145 33.2893 22.2629 33.2802 13.7507 33.2802H6V33.9148V34.5493H18.238H30.4759V33.9148V33.2802H27.8833H25.2907L25.9796 32.8179C29.1705 30.6876 31.1105 26.4541 31.1105 21.6405C31.1105 19.347 30.5666 17.4978 29.3428 15.5941C28.6357 14.5063 27.4028 13.2734 26.2788 12.5482C25.898 12.3034 25.6261 12.0587 25.5717 11.9046C25.5173 11.7686 25.3813 11.5329 25.2544 11.3697C25.1365 11.2156 25.0368 11.0524 25.0368 11.0162C25.0368 10.9799 25.1365 10.7442 25.2544 10.4904C25.6351 9.68359 25.7892 8.93119 25.7348 8.12439C25.7076 7.72552 25.6623 7.33572 25.6261 7.25413C25.5989 7.17255 25.8436 6.74648 26.3059 6.10286C26.7139 5.54988 27.0221 5.0513 26.9949 5.00597C26.9677 4.96065 26.3422 4.48926 25.6079 3.94535C24.8646 3.41051 24.1394 2.87566 23.9853 2.75781L23.7043 2.54932L22.9609 3.57368ZM25.0459 5.08756L25.345 5.33232L25.0731 5.70399C24.928 5.91249 24.783 6.08473 24.7467 6.08473C24.6833 6.08473 23.7314 5.40484 23.4595 5.16915C23.4232 5.13288 23.5139 4.91532 23.6771 4.68869L23.9762 4.28076L24.366 4.56178C24.5745 4.71589 24.8827 4.95158 25.0459 5.08756ZM23.3598 6.6377C23.9127 7.03657 24.3932 7.45357 24.4295 7.56235C24.4748 7.67113 24.4929 8.10626 24.4748 8.53232C24.4295 9.4479 24.1122 10.3091 23.8674 10.2003C22.8975 9.78331 21.9456 9.81957 20.9575 10.3182C20.4045 10.5992 20.2051 10.7623 19.8516 11.2247C18.945 12.4303 18.8997 13.9352 19.7428 15.1499L20.0601 15.6122L19.3983 16.5187C19.0357 17.0173 18.655 17.5431 18.5552 17.6972C18.4555 17.8422 18.3377 17.9601 18.2833 17.951C18.238 17.951 17.6397 17.5431 16.9688 17.0445C16.298 16.5459 15.3462 15.8479 14.8657 15.5034L13.9773 14.8598L14.4578 14.2162C14.7207 13.8536 15.5637 12.7023 16.3343 11.6598C20.051 6.57425 19.9603 6.68303 20.7309 6.29323C21.311 5.99408 21.5558 5.92155 22 5.91249C22.3173 5.90342 22.4895 5.99408 23.3598 6.6377ZM23.2963 11.3063C24.8737 11.9589 25.0368 14.1527 23.5864 15.0411C23.1241 15.3221 23.0425 15.3403 22.4079 15.3131C21.7915 15.2859 21.6737 15.2496 21.2839 14.9686C20.6856 14.5335 20.4136 14.0077 20.4136 13.2643C20.4136 12.385 20.8487 11.6961 21.6374 11.3335C22.0816 11.125 22.8431 11.1159 23.2963 11.3063ZM15.4368 17.4343C15.7269 17.6519 15.9717 17.8694 15.9717 17.9238C15.9717 18.1051 15.1377 19.1386 15.038 19.0751C14.9745 19.0388 14.7025 18.8485 14.4306 18.649C14.1586 18.4496 13.9139 18.2774 13.8958 18.2592C13.8323 18.223 14.7116 17.0536 14.8113 17.0536C14.8657 17.0536 15.1467 17.2258 15.4368 17.4343ZM19.5977 26.4813V27.2972H15.0198H10.4419V26.4813V25.6655H15.0198H19.5977V26.4813Z" fill="white"/>
</svg>
