<svg width="55" height="39" viewBox="0 0 55 39" fill="none" xmlns="http://www.w3.org/2000/svg">
<path d="M25.9335 0.0201912C21.3823 0.630714 17.4724 3.75117 15.0488 8.70321C13.6305 11.614 12.9089 14.5371 12.7363 18.1509L12.6931 19.0328H9.5973C7.90139 19.0328 6.3165 19.0636 6.08832 19.0945C5.12628 19.2363 4.29375 19.6556 3.60922 20.3525C2.79519 21.1789 2.42517 22.0546 2.35734 23.3065L2.31417 24.0403L1.97499 24.1575C1.03762 24.4843 0.279088 25.3662 0.0694125 26.3591C-0.035425 26.8771 -0.0169243 29.35 0.0940802 29.7941C0.383925 30.9226 1.28429 31.8045 2.39434 32.0388C2.57318 32.0758 3.17754 32.1067 3.73256 32.1067H4.7501V34.7091C4.7501 37.1944 4.75627 37.3239 4.87344 37.5582C4.94128 37.7 5.07695 37.8666 5.16945 37.9344C5.32979 38.0516 5.44696 38.0577 8.48725 38.0762L11.6324 38.0947L11.8421 37.9529C12.2799 37.6507 12.2737 37.6877 12.2737 34.7461V32.1067H14.4568H16.6461L16.9976 32.5753C18.8908 35.0853 21.5179 36.9477 24.2252 37.6939C25.7299 38.1071 25.4894 38.0947 33.8271 38.0762L41.3507 38.0577L42.0229 37.9159C45.6491 37.145 48.8435 34.7584 51.0945 31.1261C52.8459 28.3017 53.8819 25.1565 54.2828 21.4687C54.3876 20.5005 54.3876 17.5589 54.2828 16.5969C53.8079 12.243 52.4142 8.5552 50.0708 5.46558C47.9432 2.6658 45.1311 0.809555 42.0291 0.149696L41.3507 0.00785828L33.7346 0.00168991C29.5473 -0.00447845 26.0383 0.00785828 25.9335 0.0201912ZM28.1535 1.95044C30.608 2.23411 32.6986 3.30099 34.6596 5.2744C36.5159 7.14298 37.9589 9.67141 38.8223 12.5699C40.0434 16.6647 40.068 21.2035 38.884 25.2984C37.3854 30.4724 34.1293 34.3514 30.1825 35.6711C27.0312 36.7257 23.6147 36.0288 20.8334 33.7656C20.3956 33.4079 19.1807 32.2238 19.1807 32.156C19.1807 32.1313 21.2158 32.1005 23.701 32.0943L28.2152 32.0697L28.8257 31.9031C30.7745 31.3728 32.5259 30.0099 33.8764 27.9748C35.9177 24.9037 36.7749 20.5314 36.1644 16.3193C35.8314 14.0376 34.9865 11.7682 33.7901 9.96743C33.1734 9.03622 31.9524 7.76584 31.1815 7.25398C28.3509 5.36691 25.2366 5.55808 22.5663 7.78434C20.0009 9.91809 18.2803 13.9019 18.0891 18.1201L18.0521 19.0328H16.3562H14.6603L14.6973 18.0276C14.8638 13.7909 16.2206 9.76392 18.4962 6.7298C19.0758 5.9651 20.2106 4.78722 20.9074 4.23219C23.0905 2.49929 25.7114 1.67292 28.1535 1.95044ZM40.8142 1.95044C43.9162 2.27728 46.7591 4.09652 48.9299 7.14915C49.4109 7.82134 50.3236 9.38774 50.3236 9.53574C50.3236 9.57891 48.4427 9.59741 45.0694 9.59741L39.809 9.59124L39.3342 8.62304C38.0453 5.97743 36.2199 3.77584 33.9998 2.17244C33.8209 2.04294 33.6729 1.92577 33.6729 1.91343C33.6729 1.85793 40.2715 1.89493 40.8142 1.95044ZM28.3509 8.05568C28.8997 8.18519 29.6953 8.5552 30.1886 8.90672C31.7797 10.0353 33.0501 12.0087 33.7901 14.5001C33.9628 15.0798 34.2218 16.307 34.1786 16.3502C34.1601 16.3687 31.5638 16.381 28.4064 16.381C22.0853 16.381 22.2826 16.3749 21.4686 16.7695C21.1911 16.9052 20.9013 17.1272 20.5559 17.4664C19.9824 18.0276 20.007 18.0399 20.1057 17.1827C20.2599 15.8753 20.5312 14.6974 20.9198 13.6429C22.0236 10.6396 23.8675 8.62304 26.0445 8.05568C26.6612 7.89534 27.6787 7.89534 28.3509 8.05568ZM51.2918 11.8545C51.6865 12.9707 52.0873 14.7345 52.2724 16.1343C52.4265 17.3369 52.4574 20.0503 52.3279 21.3146C52.149 23.103 51.8407 24.5398 51.3103 26.1247C49.6822 31.0028 46.4693 34.5673 42.6335 35.7513C41.4556 36.1151 41.3014 36.1275 37.6814 36.1583C35.8314 36.1706 34.1725 36.1768 33.9874 36.1645L33.6544 36.146L34.3575 35.6218C35.1345 35.0483 36.5097 33.7162 37.1572 32.9084C39.2355 30.3059 40.7341 26.8463 41.3507 23.214C41.6221 21.6044 41.6591 21.0679 41.6591 18.9711C41.6591 17.2444 41.6344 16.825 41.5173 15.9493C41.3446 14.6974 41.0794 13.3839 40.7957 12.3849C40.6786 11.9655 40.5799 11.614 40.5799 11.5955C40.5799 11.5585 50.9588 11.5338 51.0883 11.577C51.1561 11.5955 51.2486 11.7188 51.2918 11.8545ZM23.1275 21.1295V23.9663H22.2641H21.4008V21.9127C21.4008 19.6988 21.4254 19.5015 21.7276 19.039C21.9743 18.6689 22.591 18.3236 23.0535 18.2989C23.109 18.2928 23.1275 18.8971 23.1275 21.1295ZM34.376 19.4336C34.3698 20.8767 34.1601 22.3814 33.7963 23.5531L33.6668 23.9663L29.3684 23.954L25.0701 23.9355L25.0516 21.1912C25.0454 19.6803 25.0516 18.4099 25.0701 18.3668C25.0886 18.3051 26.0568 18.2928 29.7384 18.3051L34.3821 18.3236L34.376 19.4336ZM19.4767 22.4678L19.4582 23.9355L11.8852 23.954L4.30608 23.9663L4.33075 23.3681C4.34925 22.8748 4.38009 22.7021 4.51576 22.4123C4.8056 21.7956 5.36679 21.296 6.00198 21.0987C6.21166 21.0309 7.58688 21.0124 12.8781 21.0124L19.489 21.0062L19.4767 22.4678ZM32.8096 25.9582C32.8096 26.0877 32.3039 26.9388 31.9215 27.4383C30.9718 28.7025 29.8864 29.5227 28.5852 29.9544L28.1535 30.1024L15.5422 30.1209C8.60442 30.1271 2.84452 30.1209 2.73352 30.1024C2.62252 30.0839 2.44984 29.9976 2.345 29.9051C1.98732 29.6091 1.96882 29.5227 1.96882 28.0427C1.96266 26.5564 1.98116 26.4701 2.345 26.1617C2.53001 26.0137 2.62868 25.9706 2.93086 25.9274C2.99253 25.9151 9.7453 25.9027 17.9288 25.8966C29.5966 25.8904 32.8096 25.9027 32.8096 25.9582ZM7.27854 34.1417V36.1768H7.00102H6.72351V34.1417V32.1067H7.00102H7.27854V34.1417ZM10.3312 34.1417V36.146L9.79464 36.1645L9.25195 36.183V34.1417V32.1005L9.79464 32.119L10.3312 32.1375V34.1417Z" fill="#313131"/>
<path d="M47.0736 13.5442C45.4394 13.5751 45.3284 13.5812 45.1619 13.7046C44.7734 13.9883 44.6562 14.5865 44.9152 14.9688C44.9892 15.0798 45.1496 15.2401 45.2667 15.3203L45.4764 15.4622L47.4622 15.4437C49.3616 15.4252 49.4602 15.419 49.6206 15.2957C50.0646 14.9688 50.1818 14.5063 49.9413 14.0438C49.7748 13.7231 49.5034 13.5566 49.0902 13.5319C48.9361 13.5196 48.0295 13.5257 47.0736 13.5442Z" fill="#313131"/>
<path d="M46.0869 16.7571C45.6799 16.8373 45.3654 17.1579 45.2976 17.5526C45.2482 17.8548 45.4456 18.305 45.7169 18.5023C45.8834 18.6257 45.9883 18.6318 47.8753 18.6503C49.8364 18.6627 49.8611 18.6627 50.1016 18.527C50.6998 18.1755 50.7306 17.269 50.1571 16.8928C50.0091 16.7941 49.7871 16.7756 48.122 16.7509C47.0983 16.7324 46.1794 16.7386 46.0869 16.7571Z" fill="#313131"/>
<path d="M47.6842 19.9577L45.8156 19.9886L45.5751 20.2414C45.2544 20.5867 45.2051 20.9013 45.4024 21.2959C45.6799 21.851 45.6182 21.8386 47.8753 21.8571C49.8364 21.8695 49.8611 21.8695 50.1016 21.7338C50.6936 21.3884 50.7306 20.4757 50.1694 20.1057C49.9166 19.9392 49.6637 19.9269 47.6842 19.9577Z" fill="#313131"/>
<path d="M44.835 23.2078C44.6439 23.2757 44.3355 23.6334 44.2739 23.8554C44.1567 24.2932 44.3849 24.7804 44.798 24.9777C44.9769 25.0641 45.2791 25.0764 46.8948 25.0764C48.6524 25.0764 48.8004 25.0702 49.0224 24.9531C49.6699 24.6262 49.7007 23.6704 49.0779 23.288C48.8867 23.1708 48.7634 23.1647 46.901 23.1708C45.8156 23.1708 44.8844 23.1893 44.835 23.2078Z" fill="#313131"/>
<path d="M43.0713 26.433C42.874 26.5132 42.5656 26.9079 42.5225 27.136C42.4731 27.3889 42.578 27.7651 42.763 27.9686C43.0281 28.2646 43.1576 28.2831 45.1804 28.2831C46.975 28.2831 47.0798 28.2769 47.2956 28.1536C47.6163 27.9747 47.752 27.7527 47.7767 27.395C47.8075 27.0189 47.6657 26.7167 47.3635 26.507C47.16 26.3713 47.1353 26.3713 45.1804 26.3775C44.0889 26.3775 43.1453 26.4022 43.0713 26.433Z" fill="#313131"/>
</svg>
