<svg width="44" height="56" viewBox="0 0 44 56" fill="none" xmlns="http://www.w3.org/2000/svg">
<path d="M29.6816 1.79264L28.3807 3.58527L27.2703 3.77564C25.906 4.0136 24.4465 4.66402 23.3836 5.52068C22.8283 5.94901 21.6068 7.47196 19.5603 10.264C17.9105 12.5167 15.9909 15.1343 15.3088 16.0703C13.8493 18.0533 11.7076 20.9722 11.2476 21.6068L10.9462 22.0193L12.2153 22.9235C12.8975 23.4153 13.5003 23.8595 13.5479 23.9229C13.5796 23.9864 12.9768 24.8907 12.1994 25.9377C11.4221 26.9688 10.7875 27.8414 10.7875 27.8731C10.7875 27.9048 11.6283 28.5394 12.6436 29.3008C13.6748 30.0465 14.928 30.9824 15.4357 31.3632C15.9275 31.728 16.3717 32.0453 16.4034 32.0453C16.4351 32.0453 17.1014 31.1887 17.8629 30.1416C18.672 29.0312 19.3382 28.2538 19.4493 28.3014C19.5603 28.349 20.1632 28.7456 20.766 29.1898C21.3847 29.634 21.9558 29.9671 22.051 29.9037C22.1303 29.8561 23.1456 28.5235 24.2878 26.953C25.7473 24.97 26.4612 24.1292 26.6198 24.1926C27.413 24.4941 28.3966 24.621 29.396 24.5416C30.5065 24.4623 30.5541 24.4782 31.2839 25.0176C36.5983 28.9043 36.7728 36.8521 31.6329 41.0561C30.2844 42.1666 28.5235 42.9439 26.6992 43.2295L26.017 43.3405V40.7864V38.2323H15.864H5.71105V44.8952V51.5581H6.74221H7.77337V48.5598V45.5456L17.498 45.4822C28.2697 45.4187 28.0159 45.4504 30.4272 44.3241C33.6793 42.8329 36.1382 39.9139 37.1535 36.3921C37.6136 34.7581 37.6453 31.7122 37.217 30.1575C36.5983 27.889 35.4402 25.9377 33.7269 24.272L32.6958 23.2408L33.0606 22.8442C33.7269 22.1303 34.2504 21.2261 34.4408 20.4329C34.5518 20.0204 34.6946 19.6714 34.7581 19.6714C34.9326 19.6714 35.7416 20.3218 36.7728 21.3212C40.5643 24.97 42.2618 29.8402 41.7224 35.5354C41.2941 40.1042 40.2153 43.4516 38.1054 46.7195C36.5031 49.2102 33.3779 51.8119 30.7921 52.8113C28.2538 53.7949 28.4601 53.779 13.5637 53.779H0V54.8895V56H21.4164H42.8329V54.8895V53.779H38.2958H33.7586L34.9643 52.97C40.5484 49.2419 43.9433 41.8334 43.9433 33.4096C43.9433 29.396 42.9915 26.1598 40.8499 22.8283C39.6125 20.9246 37.455 18.7671 35.4878 17.498C34.8215 17.0697 34.3456 16.6414 34.2504 16.3717C34.1552 16.1337 33.9173 15.7212 33.6952 15.4357C33.489 15.166 33.3144 14.8805 33.3144 14.817C33.3144 14.7535 33.489 14.3411 33.6952 13.8969C34.3615 12.485 34.6312 11.1683 34.536 9.75637C34.4884 9.05836 34.4091 8.37621 34.3456 8.23343C34.298 8.09065 34.7263 7.34504 35.5354 6.2187C36.2493 5.25099 36.7887 4.37847 36.7411 4.29915C36.6935 4.21983 35.5989 3.3949 34.3139 2.44306C33.013 1.50708 31.7439 0.571106 31.4742 0.364876L30.9824 3.8147e-06L29.6816 1.79264ZM33.3303 4.44193L33.8538 4.87026L33.3779 5.52068C33.1241 5.88556 32.8703 6.18697 32.8068 6.18697C32.6958 6.18697 31.03 4.99717 30.5541 4.58471C30.4907 4.52125 30.6493 4.14051 30.9348 3.74391L31.4584 3.03003L32.1405 3.52182C32.5054 3.7915 33.0448 4.20397 33.3303 4.44193ZM30.3796 7.15467C31.3473 7.85269 32.1881 8.58244 32.2516 8.77281C32.3309 8.96317 32.3626 9.72465 32.3309 10.4703C32.2516 12.0725 31.6963 13.5796 31.268 13.3892C29.5705 12.6595 27.9048 12.7229 26.1756 13.5955C25.2079 14.0873 24.8589 14.3728 24.2402 15.1819C22.6538 17.2918 22.5745 19.9252 24.0499 22.051L24.6051 22.8601L23.447 24.4465C22.8125 25.319 22.1462 26.2391 21.9717 26.5088C21.7972 26.7626 21.5909 26.9688 21.4958 26.953C21.4164 26.953 20.3694 26.2391 19.1955 25.3666C18.0215 24.4941 16.3558 23.2725 15.515 22.6697L13.9603 21.5433L14.8011 20.417C15.2612 19.7824 16.7365 17.7677 18.085 15.9433C24.5892 7.04363 24.4306 7.234 25.779 6.55184C26.7943 6.02833 27.2227 5.90142 28 5.88556C28.5552 5.86969 28.8567 6.02833 30.3796 7.15467ZM30.2686 15.3246C33.0289 16.4669 33.3144 20.306 30.7762 21.8606C29.9671 22.3524 29.8244 22.3841 28.7139 22.3365C27.6351 22.289 27.4289 22.2255 26.7467 21.7337C25.6997 20.9722 25.2238 20.0521 25.2238 18.7513C25.2238 17.2125 25.9853 16.0068 27.3654 15.3722C28.1428 15.0074 29.4754 14.9915 30.2686 15.3246ZM16.5144 26.0487C17.0221 26.4295 17.4504 26.8102 17.4504 26.9054C17.4504 27.2227 15.9909 29.0312 15.8164 28.9201C15.7054 28.8567 15.2295 28.5235 14.7535 28.1745C14.2776 27.8255 13.8493 27.5241 13.8176 27.4924C13.7065 27.4289 15.2453 25.3824 15.4198 25.3824C15.515 25.3824 16.0068 25.6839 16.5144 26.0487ZM23.796 41.881V43.3088H15.7847H7.77337V41.881V40.4533H15.7847H23.796V41.881Z" fill="#313131"/>
<path d="M27.9048 17.7518C27.5875 18.0691 27.4448 18.3705 27.4448 18.7195C27.4448 19.0685 27.5875 19.3699 27.9048 19.6872C28.5394 20.3218 29.2057 20.3059 29.8561 19.6713C30.2686 19.243 30.332 19.1002 30.2527 18.5926C30.0465 17.3552 28.7615 16.8951 27.9048 17.7518Z" fill="#313131"/>
</svg>
