<svg width="61" height="52" viewBox="0 0 61 52" fill="none" xmlns="http://www.w3.org/2000/svg">
<path d="M58.8527 6.66528C59.1084 6.84423 59.4175 6.82526 59.6545 6.69263C59.8913 6.56006 60.0725 6.30551 60.0725 5.99341C60.0724 5.89357 60.0445 5.78158 60.0022 5.66724C59.9591 5.55108 59.8972 5.42249 59.8215 5.28638C59.6698 5.0138 59.4561 4.70081 59.2053 4.3772C58.7036 3.72994 58.0435 3.02798 57.4074 2.51099C56.2167 1.54318 54.6883 0.791838 53.133 0.405518L52.8215 0.333252C52.3184 0.223012 51.5586 0.162536 50.8039 0.151611C50.049 0.140702 49.2834 0.178923 48.7678 0.271729C45.7488 0.821261 42.9875 2.71324 41.4524 5.29419V5.29517C41.3362 5.49106 41.2611 5.62958 41.2219 5.74731C41.1789 5.87621 41.1795 5.97751 41.1994 6.09302V6.09399C41.2494 6.36475 41.4374 6.57621 41.6594 6.69067C41.8807 6.80465 42.1571 6.83295 42.3938 6.70825L42.3957 6.70728C42.422 6.69293 42.4456 6.6729 42.4621 6.65747C42.4806 6.64022 42.5005 6.61936 42.5207 6.59692C42.5614 6.55175 42.6096 6.49365 42.6613 6.427C42.7651 6.29322 42.8891 6.1196 43.011 5.93677V5.93579C44.0528 4.36647 45.2559 3.33459 46.9699 2.55005C49.0078 1.61658 51.7694 1.53114 53.8186 2.33228L54.1584 2.47388C55.8403 3.21115 57.245 4.37594 58.2385 5.87524V5.87622C58.3606 6.05946 58.4882 6.23596 58.5949 6.37427C58.6483 6.44337 58.6974 6.50461 58.7385 6.552C58.7758 6.59502 58.8166 6.63839 58.8508 6.66333L58.8527 6.66528Z" fill="#313131" stroke="#313131" stroke-width="0.3"/>
<path d="M43.7763 8.53271C43.8613 8.53271 43.9456 8.52469 44.0302 8.49463C44.1158 8.46414 44.1915 8.41385 44.2675 8.34229C44.4125 8.20565 44.5771 7.97216 44.8251 7.59521C45.2022 7.02309 45.9183 6.29287 46.5136 5.86768H46.5126C47.0801 5.46321 48.1944 4.94344 48.8251 4.78076C50.596 4.32821 52.3246 4.52456 53.9647 5.37744C54.9454 5.88737 55.9765 6.82569 56.5643 7.74658C56.65 7.88354 56.7443 8.02103 56.828 8.13232C56.8698 8.18789 56.9096 8.2387 56.9452 8.27979C56.9787 8.31845 57.015 8.35706 57.0487 8.38232C57.1913 8.4991 57.3789 8.54254 57.5575 8.53076C57.7395 8.51867 57.9263 8.44823 58.0731 8.32178H58.0722C58.1629 8.24817 58.2368 8.17619 58.2811 8.07764C58.3251 7.97986 58.3329 7.87369 58.3329 7.75342C58.3329 7.55533 58.2288 7.30453 58.08 7.04541C57.927 6.77908 57.7118 6.47876 57.4608 6.17432C56.9591 5.56585 56.302 4.92609 55.6796 4.4917L55.6786 4.49268C54.7185 3.81868 53.4616 3.27526 52.3231 3.05029C52.0598 2.9977 51.5246 2.95118 51.0077 2.92529C50.4921 2.89948 49.9689 2.89185 49.7333 2.92041C48.6649 3.04976 47.3416 3.46981 46.4745 3.94092V3.94189C45.1349 4.67632 43.7195 6.047 43.1015 7.20752V7.2085C43.0019 7.39763 42.9339 7.54691 42.9198 7.69092C42.9047 7.84564 42.9522 7.97471 43.0272 8.11768H43.0282C43.1003 8.25768 43.1899 8.36861 43.3212 8.43994C43.4499 8.50983 43.6013 8.53271 43.7763 8.53271Z" fill="#313131" stroke="#313131" stroke-width="0.3"/>
<mask id="path-3-outside-1_181_223" maskUnits="userSpaceOnUse" x="-0.700001" y="5.4668" width="59" height="47" fill="black">
<rect fill="white" x="-0.700001" y="5.4668" width="59" height="47"/>
<path d="M49.3501 5.9333C46.3657 6.5623 44.1642 9.17197 44.1241 12.1229C44.1174 12.5913 44.1375 12.7586 44.2579 12.9794C44.559 13.5817 45.0743 13.8694 46.1248 14.0501L46.8074 14.1705V14.8932C46.8074 15.6426 46.8743 15.9237 47.1419 16.2582C47.2691 16.4255 47.2758 16.5192 47.2758 19.3029C47.2758 22.5415 47.2691 22.4947 47.7643 22.8226C48.0185 22.9965 48.0854 23.0032 48.9955 23.0233L49.9591 23.0434L49.939 31.2204L49.9189 39.3973L49.7382 40.013C49.0423 42.375 47.2289 44.155 44.8668 44.7907C44.3449 44.9312 44.1241 44.9446 42.0765 44.9713L39.8616 44.9981L39.8349 43.4657C39.8148 42.1074 39.7947 41.8999 39.6676 41.5921C39.3263 40.749 38.6237 40.1334 37.7806 39.9393C37.3858 39.8524 36.7769 39.8323 33.9999 39.8323H30.6809V39.0695C30.6809 38.5141 30.6475 38.1996 30.5605 37.9051C30.3263 37.1624 29.791 36.5735 29.075 36.2791C28.727 36.1319 28.5932 36.1185 26.8668 36.0851L25.0333 36.0516L24.9062 35.6501C24.7322 35.1081 24.7255 34.2382 24.8995 33.743L25.0266 33.375L31.1159 33.3416C37.1917 33.3081 37.2051 33.3081 37.5932 33.1609C38.7308 32.7326 39.5404 31.8694 39.875 30.7386C39.9687 30.4107 39.9821 29.2665 39.9821 19.6241C39.9821 9.92811 39.9687 8.8374 39.875 8.50952C39.5204 7.31175 38.6237 6.40171 37.446 6.04037C37.0311 5.90654 36.73 5.90654 20.182 5.90654C1.8474 5.90654 3.07194 5.87977 2.24889 6.28126C1.68011 6.55561 0.957436 7.31175 0.676394 7.92736C0.549256 8.19502 0.415427 8.59651 0.375278 8.81063C0.274906 9.36603 0.274906 29.8754 0.375278 30.4375C0.495725 31.1066 0.863755 31.7758 1.39907 32.3044C1.66673 32.572 2.03476 32.8531 2.2422 32.9535C3.05187 33.3549 2.8645 33.3416 9.34854 33.3416H15.2839L15.4311 33.8167C15.5984 34.3787 15.585 35.088 15.3909 35.697L15.2705 36.0784L13.4236 36.0984C11.5768 36.1185 11.5768 36.1185 11.1887 36.2992C10.6868 36.5334 10.1381 37.062 9.90393 37.5371C9.72326 37.8918 9.70318 37.9988 9.66973 38.862L9.63627 39.7988L6.12325 39.8323C2.97826 39.8657 2.57677 39.8791 2.30911 39.9862C1.55967 40.2806 1.0645 40.7356 0.723235 41.4315L0.535873 41.8063V45.6539V49.5015L0.756692 49.9498C1.03104 50.5119 1.6132 51.0673 2.15521 51.2881L2.54331 51.442L19.9411 51.4621C33.0765 51.4754 37.4259 51.4621 37.707 51.4018C38.7174 51.1877 39.4869 50.4583 39.7546 49.4412C39.8215 49.207 39.8482 48.6717 39.8482 47.7081V46.323H41.9159C44.1576 46.323 44.7129 46.2695 45.7033 45.9416C48.333 45.0851 50.307 42.9973 51.0698 40.2672L51.2572 39.5981L51.2907 31.3341L51.3241 23.0702L52.2944 23.0367C53.3115 22.9965 53.4185 22.9698 53.7063 22.6553C54.0208 22.314 54.0342 22.1936 54.0342 19.2092V16.4055L54.2215 16.1646C54.3888 15.937 54.4022 15.8701 54.4356 15.0471L54.4691 14.1705L55.1383 14.0567C56.0349 13.9028 56.3494 13.769 56.7107 13.4077C57.1925 12.9259 57.2795 12.3973 57.0788 11.2396C56.6505 8.78387 54.8706 6.78981 52.455 6.06713C51.9464 5.91323 51.7122 5.88646 50.8223 5.86639C50.1197 5.85301 49.6446 5.87308 49.3501 5.9333ZM51.6988 7.2716C53.4721 7.64632 54.971 8.98462 55.5397 10.6776C55.6334 10.9653 55.7472 11.4538 55.7873 11.7683C55.8877 12.5445 55.881 12.5512 54.6364 12.7586C52.6892 13.0865 50.9828 13.1869 49.2498 13.0731C47.9918 12.9861 46.0379 12.7051 45.6765 12.5579L45.449 12.4642L45.4892 11.9088C45.6497 9.64707 47.4096 7.70654 49.7182 7.24483C50.1598 7.15784 51.2237 7.17123 51.6988 7.2716ZM37.1984 7.38535C37.6869 7.56602 38.1888 8.02773 38.423 8.50283L38.6103 8.88424V19.6241V30.3639L38.4631 30.6784C38.2624 31.12 37.8475 31.5416 37.3925 31.7758L37.0044 31.9698H20.1753H3.34629L2.96488 31.7891C2.46971 31.5549 2.02138 31.0999 1.82733 30.6114L1.67342 30.23L1.65335 19.8583C1.63997 12.2835 1.65335 9.37941 1.70688 9.08499C1.87417 8.2084 2.36934 7.64632 3.23254 7.33851C3.43328 7.26491 6.61173 7.25153 20.1553 7.24483C36.817 7.24483 36.8304 7.24483 37.1984 7.38535ZM50.6215 14.4382C51.5985 14.4382 52.5553 14.4114 52.7494 14.3846L53.0974 14.3311V14.8062V15.2746H50.6215H48.1457V14.8062V14.3311L48.5003 14.3846C48.6877 14.4114 49.6446 14.4382 50.6215 14.4382ZM52.6825 19.1356L52.6624 21.6649L50.6416 21.685L48.6141 21.6984V19.1556V16.6129H50.655H52.6959L52.6825 19.1356ZM23.5612 33.4553C23.3739 34.0575 23.3471 34.8338 23.4876 35.5163C23.5411 35.7706 23.588 36.0048 23.588 36.0315C23.588 36.065 22.0356 36.0851 20.1352 36.0851C16.8831 36.0851 16.6891 36.0784 16.7225 35.9646C16.8764 35.436 16.9099 35.1416 16.8764 34.459C16.8564 34.0509 16.8162 33.6293 16.7894 33.5222L16.7493 33.3416H20.1753C23.4006 33.3416 23.5947 33.3482 23.5612 33.4553ZM28.5263 37.5237C29.1352 37.7847 29.336 38.1862 29.3426 39.1431V39.8323H20.1753H11.008V39.0962C11.008 38.4873 11.0348 38.3066 11.1419 38.0925C11.2824 37.8182 11.5701 37.5773 11.8645 37.4903C11.9649 37.4568 15.6987 37.43 20.1619 37.43C27.3419 37.4234 28.3055 37.4367 28.5263 37.5237ZM37.7739 41.3713C38.1018 41.5386 38.3427 41.8531 38.443 42.2412C38.4966 42.4486 38.51 43.5594 38.4966 45.8546C38.4765 48.8189 38.4631 49.187 38.3627 49.3743C38.1754 49.7223 37.814 49.9832 37.4259 50.0702C37.165 50.1238 32.5813 50.1371 19.9411 50.1238L2.81097 50.1037L2.52993 49.9498C2.36934 49.8695 2.1619 49.6754 2.06153 49.5215L1.87417 49.2405L1.85409 45.7944C1.84071 43.5594 1.86078 42.2546 1.90093 42.1074C1.98123 41.8263 2.3225 41.4583 2.61023 41.3312C2.77752 41.2576 5.97604 41.2442 20.1619 41.2375C37.3523 41.2375 37.5129 41.2375 37.7739 41.3713Z"/>
</mask>
<path d="M49.3501 5.9333C46.3657 6.5623 44.1642 9.17197 44.1241 12.1229C44.1174 12.5913 44.1375 12.7586 44.2579 12.9794C44.559 13.5817 45.0743 13.8694 46.1248 14.0501L46.8074 14.1705V14.8932C46.8074 15.6426 46.8743 15.9237 47.1419 16.2582C47.2691 16.4255 47.2758 16.5192 47.2758 19.3029C47.2758 22.5415 47.2691 22.4947 47.7643 22.8226C48.0185 22.9965 48.0854 23.0032 48.9955 23.0233L49.9591 23.0434L49.939 31.2204L49.9189 39.3973L49.7382 40.013C49.0423 42.375 47.2289 44.155 44.8668 44.7907C44.3449 44.9312 44.1241 44.9446 42.0765 44.9713L39.8616 44.9981L39.8349 43.4657C39.8148 42.1074 39.7947 41.8999 39.6676 41.5921C39.3263 40.749 38.6237 40.1334 37.7806 39.9393C37.3858 39.8524 36.7769 39.8323 33.9999 39.8323H30.6809V39.0695C30.6809 38.5141 30.6475 38.1996 30.5605 37.9051C30.3263 37.1624 29.791 36.5735 29.075 36.2791C28.727 36.1319 28.5932 36.1185 26.8668 36.0851L25.0333 36.0516L24.9062 35.6501C24.7322 35.1081 24.7255 34.2382 24.8995 33.743L25.0266 33.375L31.1159 33.3416C37.1917 33.3081 37.2051 33.3081 37.5932 33.1609C38.7308 32.7326 39.5404 31.8694 39.875 30.7386C39.9687 30.4107 39.9821 29.2665 39.9821 19.6241C39.9821 9.92811 39.9687 8.8374 39.875 8.50952C39.5204 7.31175 38.6237 6.40171 37.446 6.04037C37.0311 5.90654 36.73 5.90654 20.182 5.90654C1.8474 5.90654 3.07194 5.87977 2.24889 6.28126C1.68011 6.55561 0.957436 7.31175 0.676394 7.92736C0.549256 8.19502 0.415427 8.59651 0.375278 8.81063C0.274906 9.36603 0.274906 29.8754 0.375278 30.4375C0.495725 31.1066 0.863755 31.7758 1.39907 32.3044C1.66673 32.572 2.03476 32.8531 2.2422 32.9535C3.05187 33.3549 2.8645 33.3416 9.34854 33.3416H15.2839L15.4311 33.8167C15.5984 34.3787 15.585 35.088 15.3909 35.697L15.2705 36.0784L13.4236 36.0984C11.5768 36.1185 11.5768 36.1185 11.1887 36.2992C10.6868 36.5334 10.1381 37.062 9.90393 37.5371C9.72326 37.8918 9.70318 37.9988 9.66973 38.862L9.63627 39.7988L6.12325 39.8323C2.97826 39.8657 2.57677 39.8791 2.30911 39.9862C1.55967 40.2806 1.0645 40.7356 0.723235 41.4315L0.535873 41.8063V45.6539V49.5015L0.756692 49.9498C1.03104 50.5119 1.6132 51.0673 2.15521 51.2881L2.54331 51.442L19.9411 51.4621C33.0765 51.4754 37.4259 51.4621 37.707 51.4018C38.7174 51.1877 39.4869 50.4583 39.7546 49.4412C39.8215 49.207 39.8482 48.6717 39.8482 47.7081V46.323H41.9159C44.1576 46.323 44.7129 46.2695 45.7033 45.9416C48.333 45.0851 50.307 42.9973 51.0698 40.2672L51.2572 39.5981L51.2907 31.3341L51.3241 23.0702L52.2944 23.0367C53.3115 22.9965 53.4185 22.9698 53.7063 22.6553C54.0208 22.314 54.0342 22.1936 54.0342 19.2092V16.4055L54.2215 16.1646C54.3888 15.937 54.4022 15.8701 54.4356 15.0471L54.4691 14.1705L55.1383 14.0567C56.0349 13.9028 56.3494 13.769 56.7107 13.4077C57.1925 12.9259 57.2795 12.3973 57.0788 11.2396C56.6505 8.78387 54.8706 6.78981 52.455 6.06713C51.9464 5.91323 51.7122 5.88646 50.8223 5.86639C50.1197 5.85301 49.6446 5.87308 49.3501 5.9333ZM51.6988 7.2716C53.4721 7.64632 54.971 8.98462 55.5397 10.6776C55.6334 10.9653 55.7472 11.4538 55.7873 11.7683C55.8877 12.5445 55.881 12.5512 54.6364 12.7586C52.6892 13.0865 50.9828 13.1869 49.2498 13.0731C47.9918 12.9861 46.0379 12.7051 45.6765 12.5579L45.449 12.4642L45.4892 11.9088C45.6497 9.64707 47.4096 7.70654 49.7182 7.24483C50.1598 7.15784 51.2237 7.17123 51.6988 7.2716ZM37.1984 7.38535C37.6869 7.56602 38.1888 8.02773 38.423 8.50283L38.6103 8.88424V19.6241V30.3639L38.4631 30.6784C38.2624 31.12 37.8475 31.5416 37.3925 31.7758L37.0044 31.9698H20.1753H3.34629L2.96488 31.7891C2.46971 31.5549 2.02138 31.0999 1.82733 30.6114L1.67342 30.23L1.65335 19.8583C1.63997 12.2835 1.65335 9.37941 1.70688 9.08499C1.87417 8.2084 2.36934 7.64632 3.23254 7.33851C3.43328 7.26491 6.61173 7.25153 20.1553 7.24483C36.817 7.24483 36.8304 7.24483 37.1984 7.38535ZM50.6215 14.4382C51.5985 14.4382 52.5553 14.4114 52.7494 14.3846L53.0974 14.3311V14.8062V15.2746H50.6215H48.1457V14.8062V14.3311L48.5003 14.3846C48.6877 14.4114 49.6446 14.4382 50.6215 14.4382ZM52.6825 19.1356L52.6624 21.6649L50.6416 21.685L48.6141 21.6984V19.1556V16.6129H50.655H52.6959L52.6825 19.1356ZM23.5612 33.4553C23.3739 34.0575 23.3471 34.8338 23.4876 35.5163C23.5411 35.7706 23.588 36.0048 23.588 36.0315C23.588 36.065 22.0356 36.0851 20.1352 36.0851C16.8831 36.0851 16.6891 36.0784 16.7225 35.9646C16.8764 35.436 16.9099 35.1416 16.8764 34.459C16.8564 34.0509 16.8162 33.6293 16.7894 33.5222L16.7493 33.3416H20.1753C23.4006 33.3416 23.5947 33.3482 23.5612 33.4553ZM28.5263 37.5237C29.1352 37.7847 29.336 38.1862 29.3426 39.1431V39.8323H20.1753H11.008V39.0962C11.008 38.4873 11.0348 38.3066 11.1419 38.0925C11.2824 37.8182 11.5701 37.5773 11.8645 37.4903C11.9649 37.4568 15.6987 37.43 20.1619 37.43C27.3419 37.4234 28.3055 37.4367 28.5263 37.5237ZM37.7739 41.3713C38.1018 41.5386 38.3427 41.8531 38.443 42.2412C38.4966 42.4486 38.51 43.5594 38.4966 45.8546C38.4765 48.8189 38.4631 49.187 38.3627 49.3743C38.1754 49.7223 37.814 49.9832 37.4259 50.0702C37.165 50.1238 32.5813 50.1371 19.9411 50.1238L2.81097 50.1037L2.52993 49.9498C2.36934 49.8695 2.1619 49.6754 2.06153 49.5215L1.87417 49.2405L1.85409 45.7944C1.84071 43.5594 1.86078 42.2546 1.90093 42.1074C1.98123 41.8263 2.3225 41.4583 2.61023 41.3312C2.77752 41.2576 5.97604 41.2442 20.1619 41.2375C37.3523 41.2375 37.5129 41.2375 37.7739 41.3713Z" fill="#313131"/>
<path d="M49.3501 5.9333C46.3657 6.5623 44.1642 9.17197 44.1241 12.1229C44.1174 12.5913 44.1375 12.7586 44.2579 12.9794C44.559 13.5817 45.0743 13.8694 46.1248 14.0501L46.8074 14.1705V14.8932C46.8074 15.6426 46.8743 15.9237 47.1419 16.2582C47.2691 16.4255 47.2758 16.5192 47.2758 19.3029C47.2758 22.5415 47.2691 22.4947 47.7643 22.8226C48.0185 22.9965 48.0854 23.0032 48.9955 23.0233L49.9591 23.0434L49.939 31.2204L49.9189 39.3973L49.7382 40.013C49.0423 42.375 47.2289 44.155 44.8668 44.7907C44.3449 44.9312 44.1241 44.9446 42.0765 44.9713L39.8616 44.9981L39.8349 43.4657C39.8148 42.1074 39.7947 41.8999 39.6676 41.5921C39.3263 40.749 38.6237 40.1334 37.7806 39.9393C37.3858 39.8524 36.7769 39.8323 33.9999 39.8323H30.6809V39.0695C30.6809 38.5141 30.6475 38.1996 30.5605 37.9051C30.3263 37.1624 29.791 36.5735 29.075 36.2791C28.727 36.1319 28.5932 36.1185 26.8668 36.0851L25.0333 36.0516L24.9062 35.6501C24.7322 35.1081 24.7255 34.2382 24.8995 33.743L25.0266 33.375L31.1159 33.3416C37.1917 33.3081 37.2051 33.3081 37.5932 33.1609C38.7308 32.7326 39.5404 31.8694 39.875 30.7386C39.9687 30.4107 39.9821 29.2665 39.9821 19.6241C39.9821 9.92811 39.9687 8.8374 39.875 8.50952C39.5204 7.31175 38.6237 6.40171 37.446 6.04037C37.0311 5.90654 36.73 5.90654 20.182 5.90654C1.8474 5.90654 3.07194 5.87977 2.24889 6.28126C1.68011 6.55561 0.957436 7.31175 0.676394 7.92736C0.549256 8.19502 0.415427 8.59651 0.375278 8.81063C0.274906 9.36603 0.274906 29.8754 0.375278 30.4375C0.495725 31.1066 0.863755 31.7758 1.39907 32.3044C1.66673 32.572 2.03476 32.8531 2.2422 32.9535C3.05187 33.3549 2.8645 33.3416 9.34854 33.3416H15.2839L15.4311 33.8167C15.5984 34.3787 15.585 35.088 15.3909 35.697L15.2705 36.0784L13.4236 36.0984C11.5768 36.1185 11.5768 36.1185 11.1887 36.2992C10.6868 36.5334 10.1381 37.062 9.90393 37.5371C9.72326 37.8918 9.70318 37.9988 9.66973 38.862L9.63627 39.7988L6.12325 39.8323C2.97826 39.8657 2.57677 39.8791 2.30911 39.9862C1.55967 40.2806 1.0645 40.7356 0.723235 41.4315L0.535873 41.8063V45.6539V49.5015L0.756692 49.9498C1.03104 50.5119 1.6132 51.0673 2.15521 51.2881L2.54331 51.442L19.9411 51.4621C33.0765 51.4754 37.4259 51.4621 37.707 51.4018C38.7174 51.1877 39.4869 50.4583 39.7546 49.4412C39.8215 49.207 39.8482 48.6717 39.8482 47.7081V46.323H41.9159C44.1576 46.323 44.7129 46.2695 45.7033 45.9416C48.333 45.0851 50.307 42.9973 51.0698 40.2672L51.2572 39.5981L51.2907 31.3341L51.3241 23.0702L52.2944 23.0367C53.3115 22.9965 53.4185 22.9698 53.7063 22.6553C54.0208 22.314 54.0342 22.1936 54.0342 19.2092V16.4055L54.2215 16.1646C54.3888 15.937 54.4022 15.8701 54.4356 15.0471L54.4691 14.1705L55.1383 14.0567C56.0349 13.9028 56.3494 13.769 56.7107 13.4077C57.1925 12.9259 57.2795 12.3973 57.0788 11.2396C56.6505 8.78387 54.8706 6.78981 52.455 6.06713C51.9464 5.91323 51.7122 5.88646 50.8223 5.86639C50.1197 5.85301 49.6446 5.87308 49.3501 5.9333ZM51.6988 7.2716C53.4721 7.64632 54.971 8.98462 55.5397 10.6776C55.6334 10.9653 55.7472 11.4538 55.7873 11.7683C55.8877 12.5445 55.881 12.5512 54.6364 12.7586C52.6892 13.0865 50.9828 13.1869 49.2498 13.0731C47.9918 12.9861 46.0379 12.7051 45.6765 12.5579L45.449 12.4642L45.4892 11.9088C45.6497 9.64707 47.4096 7.70654 49.7182 7.24483C50.1598 7.15784 51.2237 7.17123 51.6988 7.2716ZM37.1984 7.38535C37.6869 7.56602 38.1888 8.02773 38.423 8.50283L38.6103 8.88424V19.6241V30.3639L38.4631 30.6784C38.2624 31.12 37.8475 31.5416 37.3925 31.7758L37.0044 31.9698H20.1753H3.34629L2.96488 31.7891C2.46971 31.5549 2.02138 31.0999 1.82733 30.6114L1.67342 30.23L1.65335 19.8583C1.63997 12.2835 1.65335 9.37941 1.70688 9.08499C1.87417 8.2084 2.36934 7.64632 3.23254 7.33851C3.43328 7.26491 6.61173 7.25153 20.1553 7.24483C36.817 7.24483 36.8304 7.24483 37.1984 7.38535ZM50.6215 14.4382C51.5985 14.4382 52.5553 14.4114 52.7494 14.3846L53.0974 14.3311V14.8062V15.2746H50.6215H48.1457V14.8062V14.3311L48.5003 14.3846C48.6877 14.4114 49.6446 14.4382 50.6215 14.4382ZM52.6825 19.1356L52.6624 21.6649L50.6416 21.685L48.6141 21.6984V19.1556V16.6129H50.655H52.6959L52.6825 19.1356ZM23.5612 33.4553C23.3739 34.0575 23.3471 34.8338 23.4876 35.5163C23.5411 35.7706 23.588 36.0048 23.588 36.0315C23.588 36.065 22.0356 36.0851 20.1352 36.0851C16.8831 36.0851 16.6891 36.0784 16.7225 35.9646C16.8764 35.436 16.9099 35.1416 16.8764 34.459C16.8564 34.0509 16.8162 33.6293 16.7894 33.5222L16.7493 33.3416H20.1753C23.4006 33.3416 23.5947 33.3482 23.5612 33.4553ZM28.5263 37.5237C29.1352 37.7847 29.336 38.1862 29.3426 39.1431V39.8323H20.1753H11.008V39.0962C11.008 38.4873 11.0348 38.3066 11.1419 38.0925C11.2824 37.8182 11.5701 37.5773 11.8645 37.4903C11.9649 37.4568 15.6987 37.43 20.1619 37.43C27.3419 37.4234 28.3055 37.4367 28.5263 37.5237ZM37.7739 41.3713C38.1018 41.5386 38.3427 41.8531 38.443 42.2412C38.4966 42.4486 38.51 43.5594 38.4966 45.8546C38.4765 48.8189 38.4631 49.187 38.3627 49.3743C38.1754 49.7223 37.814 49.9832 37.4259 50.0702C37.165 50.1238 32.5813 50.1371 19.9411 50.1238L2.81097 50.1037L2.52993 49.9498C2.36934 49.8695 2.1619 49.6754 2.06153 49.5215L1.87417 49.2405L1.85409 45.7944C1.84071 43.5594 1.86078 42.2546 1.90093 42.1074C1.98123 41.8263 2.3225 41.4583 2.61023 41.3312C2.77752 41.2576 5.97604 41.2442 20.1619 41.2375C37.3523 41.2375 37.5129 41.2375 37.7739 41.3713Z" stroke="#313131" stroke-width="0.6" mask="url(#path-3-outside-1_181_223)"/>
<path d="M20.1818 30.4807C26.5615 30.4807 30.0922 30.4772 32.0694 30.4622C33.0577 30.4546 33.6599 30.4435 34.0362 30.429C34.4075 30.4146 34.5726 30.3963 34.6759 30.3674H34.6788V30.3665C35.6543 30.0738 36.3161 29.5251 36.7765 28.6184L37.0714 28.0364L37.087 28.0042V27.969L37.1075 19.7717C37.1142 16.1019 37.1162 14.0393 37.1036 12.8538C37.0974 12.2615 37.0871 11.8854 37.0724 11.636C37.0579 11.391 37.0369 11.2588 37.0069 11.1594L37.0079 11.1584C36.7128 10.1186 35.8789 9.26693 34.8302 8.91724L34.8312 8.91626L34.4161 8.77563L34.3927 8.76782H34.3683L20.128 8.77466H5.86144L5.83605 8.78345L5.40831 8.94458V8.94556C4.29237 9.35742 3.47146 10.2857 3.23937 11.4153L3.22765 11.5227C3.22455 11.5675 3.22166 11.626 3.21886 11.6956C3.21327 11.8347 3.20803 12.0241 3.20324 12.2561C3.19363 12.7209 3.18541 13.3597 3.17882 14.1135C3.16564 15.6214 3.15817 17.5934 3.15734 19.5667C3.1565 21.54 3.16202 23.5158 3.17394 25.0305C3.1799 25.7875 3.18814 26.4299 3.19738 26.8997C3.20199 27.1342 3.20654 27.3269 3.21202 27.469C3.21726 27.6046 3.22358 27.7096 3.23253 27.7561C3.28653 28.0531 3.4173 28.3903 3.5841 28.7024C3.75133 29.0153 3.96016 29.3135 4.17785 29.5276C4.57819 29.9209 5.2318 30.2824 5.75499 30.4026L5.87023 30.4153C5.92001 30.4182 5.98761 30.4205 6.0714 30.4231C6.23918 30.4283 6.47808 30.4332 6.78722 30.4377C7.40592 30.4468 8.31025 30.4549 9.50402 30.4612C11.8924 30.4737 15.4409 30.4807 20.1818 30.4807ZM20.0548 28.8284L6.05773 28.8098L5.79015 28.6711L5.78917 28.6721C5.39536 28.4655 5.14104 28.2005 4.9757 27.8333L4.8341 27.5198V11.7278L4.97472 11.4231L5.06163 11.2551C5.2458 10.9344 5.49112 10.7048 5.80382 10.5579L5.96593 10.4905L5.96886 10.4895C5.96215 10.492 5.96797 10.4898 6.00206 10.4856C6.03171 10.482 6.07397 10.4785 6.13097 10.4749C6.24482 10.4676 6.41186 10.4602 6.64367 10.4543C7.10689 10.4427 7.82514 10.4347 8.89074 10.428C11.0223 10.4146 14.5414 10.4089 20.1886 10.4055H34.1769L34.5675 10.6038C34.9882 10.8272 35.3048 11.2093 35.42 11.6194C35.4206 11.6242 35.4225 11.6347 35.4239 11.6536C35.4261 11.6817 35.4275 11.7206 35.4298 11.7708C35.4343 11.871 35.4394 12.0123 35.4435 12.1946C35.4516 12.5588 35.4581 13.0836 35.464 13.7649C35.4757 15.1276 35.4825 17.1147 35.4825 19.6907V27.5208L35.336 27.8303V27.8313C35.1517 28.2307 34.7933 28.5647 34.3888 28.718C34.243 28.773 34.1546 28.8083 32.3253 28.8235C30.511 28.8385 27.0038 28.8351 20.0548 28.8284Z" fill="#313131" stroke="#313131" stroke-width="0.3"/>
<path d="M18.5479 25.8025C19.6243 25.9108 21.8124 25.8434 22.7774 25.6736H22.7784C25.9565 25.1 28.7409 23.7226 30.8985 21.6531V21.6521C31.1753 21.3853 31.3605 21.1824 31.4591 21.0017C31.51 20.9083 31.5412 20.816 31.5479 20.7205C31.5547 20.6247 31.5363 20.5349 31.504 20.448L31.503 20.449C31.4951 20.4275 31.4847 20.4098 31.4796 20.4021C31.4723 20.3913 31.4638 20.38 31.4551 20.3689C31.4376 20.3464 31.4143 20.3185 31.3868 20.2869C31.3313 20.2231 31.2529 20.1372 31.1563 20.0339C30.9631 19.8272 30.692 19.545 30.3692 19.2136C29.7228 18.5501 28.8664 17.6866 28.0079 16.8298C27.1494 15.9731 26.2881 15.1216 25.63 14.4832C25.3012 14.1642 25.0226 13.8977 24.8204 13.7097C24.7195 13.6159 24.6363 13.5407 24.5753 13.488C24.545 13.4619 24.5178 13.4399 24.4962 13.4236C24.4857 13.4157 24.4744 13.4072 24.463 13.4001C24.4587 13.3975 24.4303 13.3784 24.3936 13.3728L24.3926 13.3738C24.0533 13.316 23.7716 13.4672 23.3428 13.8357V13.8367C22.1094 14.8812 20.5461 15.2448 18.9044 14.8669V14.8679C18.6519 14.8086 18.2909 14.6558 17.9249 14.4617C17.5601 14.2681 17.2035 14.0397 16.96 13.8347H16.9591C16.7057 13.6241 16.53 13.4864 16.3751 13.4177C16.2009 13.3406 16.0576 13.351 15.8878 13.3962L15.8848 13.3972C15.8542 13.406 15.8268 13.4228 15.8087 13.4343C15.7874 13.4478 15.7637 13.4646 15.7383 13.4841C15.6873 13.5234 15.6214 13.5781 15.5421 13.6482C15.3829 13.7887 15.1606 13.9965 14.8692 14.2761C14.2858 14.8361 13.4212 15.6905 12.2266 16.8884L8.78327 20.3318V20.6882C8.78328 20.832 8.78977 20.949 8.878 21.0876C8.95446 21.2077 9.09307 21.3438 9.31843 21.5593L9.78815 21.991C12.1877 24.1038 15.3108 25.4668 18.5469 25.8025H18.5479ZM25.9219 23.0066C20.9304 25.2374 15.1167 24.3784 10.9044 20.7888L10.9053 20.7878L10.793 20.6931L13.4551 18.0242C14.2179 17.2614 14.915 16.5667 15.421 16.0632C15.6738 15.8116 15.879 15.6075 16.0216 15.4666C16.078 15.4107 16.1246 15.3648 16.1602 15.3298L16.1632 15.3308C16.2216 15.3706 16.3007 15.4261 16.3868 15.489L16.3887 15.491C17.513 16.286 18.7548 16.6626 20.2091 16.6492C21.4907 16.6428 22.5608 16.3406 23.6085 15.6941L23.8184 15.5603V15.5593L24.1837 15.3142L26.8741 17.9968L29.5323 20.656L29.296 20.8708C28.4926 21.5885 27.0606 22.4968 25.9219 23.0066Z" fill="#313131" stroke="#313131" stroke-width="0.3"/>
<path d="M33.3371 49.1501C34.2887 49.1501 34.8076 49.1474 35.134 49.0818C35.3042 49.0475 35.4319 48.9941 35.5451 48.9119C35.654 48.8327 35.7434 48.7308 35.841 48.615H35.8401C35.9133 48.5333 35.9842 48.4253 36.0412 48.3191C36.0988 48.212 36.1488 48.0963 36.1731 47.9998L36.1946 47.866C36.2006 47.8111 36.2056 47.7465 36.2102 47.6765C36.2198 47.5308 36.2273 47.3454 36.2336 47.1345C36.2462 46.7123 36.2532 46.1832 36.2532 45.655C36.2532 45.1268 36.2462 44.598 36.2336 44.1765C36.2273 43.9659 36.2198 43.7806 36.2102 43.6355C36.201 43.496 36.1898 43.3788 36.1731 43.3142L36.1721 43.3152C36.067 42.896 35.7428 42.5077 35.344 42.3152L35.345 42.3142C35.1915 42.2375 35.0711 42.1981 34.7922 42.1785C34.5238 42.1596 34.094 42.158 33.3176 42.158C32.5862 42.158 32.1552 42.1636 31.8782 42.1824C31.667 42.1967 31.5374 42.2192 31.427 42.2566L31.3215 42.2986C31.1281 42.3859 30.9433 42.5328 30.7951 42.699C30.6488 42.8632 30.5298 43.0571 30.4778 43.2488C30.4601 43.3069 30.4484 43.4138 30.4397 43.5408C30.4304 43.6755 30.4225 43.8528 30.4162 44.0652C30.4036 44.4904 30.3967 45.0608 30.3967 45.7205C30.3967 46.6988 30.4004 47.2542 30.4182 47.5945C30.4362 47.9375 30.4693 48.0811 30.5383 48.2273H30.5393C30.6141 48.3946 30.7577 48.5761 30.9114 48.7263C31.0657 48.8772 31.2483 49.0148 31.4084 49.0789L31.4104 49.0798C31.4417 49.0918 31.4831 49.0968 31.5129 49.1003C31.5497 49.1047 31.5965 49.1094 31.6506 49.113C31.7591 49.1204 31.904 49.1271 32.0744 49.1326C32.4159 49.1435 32.8643 49.1501 33.3371 49.1501ZM32.0354 43.7966H34.5461V47.5115H32.0354V43.7966Z" fill="#313131" stroke="#313131" stroke-width="0.3"/>
<path d="M10.0245 44.8674L10.0685 44.8254L10.256 44.6448V44.6438C10.385 44.5189 10.4601 44.3438 10.4855 44.1682C10.5109 43.992 10.4887 43.8004 10.4054 43.6379L10.4035 43.634C10.3561 43.5485 10.2993 43.459 10.1857 43.3928C10.0796 43.331 9.93816 43.2981 9.74037 43.2766C9.34429 43.2337 8.6373 43.2332 7.31459 43.2366H7.31361C6.62722 43.2366 5.98566 43.2423 5.50599 43.2532C5.26623 43.2586 5.06551 43.2654 4.92006 43.2727C4.84779 43.2763 4.78763 43.2802 4.74232 43.2844C4.71987 43.2865 4.69914 43.2886 4.68177 43.2913C4.67137 43.2929 4.64644 43.298 4.6222 43.3079V43.3059C4.62024 43.3067 4.6183 43.308 4.61634 43.3088H4.61537V43.3098C4.0904 43.5254 3.93253 44.2237 4.33802 44.6292L4.53138 44.8235L4.57533 44.8674H10.0245Z" fill="#313131" stroke="#313131" stroke-width="0.3"/>
<path d="M18.846 44.8674L18.89 44.8235L19.0833 44.6292L19.0863 44.6262C19.1656 44.5433 19.2278 44.4629 19.2679 44.3694C19.3085 44.2744 19.3216 44.177 19.3216 44.0676V44.0647C19.318 43.917 19.2982 43.7887 19.2298 43.6702C19.1628 43.554 19.0582 43.4635 18.9222 43.3694L18.9212 43.3684C18.807 43.2906 18.6594 43.2639 18.2943 43.2483C17.9181 43.2322 17.2733 43.2288 16.1273 43.2288H16.1263C15.2667 43.2321 14.6196 43.2386 14.1751 43.2512C13.9532 43.2575 13.7794 43.2658 13.6546 43.2756C13.5925 43.2805 13.5399 43.2857 13.4984 43.2922C13.4777 43.2955 13.4571 43.2992 13.4388 43.304C13.4236 43.3079 13.402 43.3156 13.3802 43.3274V43.3264L13.3783 43.3284H13.3763V43.3293C13.0853 43.4848 12.932 43.7577 12.932 44.095C12.932 44.2122 12.9406 44.3164 12.9847 44.4133C13.0293 44.5112 13.1024 44.5845 13.1937 44.6584L13.4007 44.8323L13.4427 44.8674H18.846Z" fill="#313131" stroke="#313131" stroke-width="0.3"/>
<path d="M27.6535 44.8674L27.6955 44.8293L27.8644 44.679H27.8654C27.9777 44.5865 28.0544 44.459 28.0988 44.3137L28.133 44.1633V44.1624C28.1501 44.0386 28.1566 43.9311 28.1203 43.8245C28.0851 43.7216 28.0145 43.6369 27.9289 43.5413L27.7287 43.3127L27.6847 43.2629L27.6173 43.262L25.0148 43.2424H25.0138C23.7814 43.2358 23.1245 43.234 22.7521 43.2493C22.5664 43.2569 22.4422 43.269 22.3498 43.2893C22.2507 43.3111 22.1894 43.3413 22.13 43.3782V43.3792C21.7738 43.5986 21.6409 44.0118 21.8039 44.3948H21.8048C21.8367 44.4733 21.8806 44.5508 21.9279 44.6145C21.9732 44.6754 22.0325 44.739 22.0978 44.7747L22.1027 44.7776C22.1252 44.7888 22.1489 44.7947 22.1642 44.7981C22.182 44.8021 22.2018 44.8059 22.2228 44.8088C22.2652 44.8147 22.3198 44.8198 22.3849 44.8245C22.5155 44.8338 22.6975 44.8416 22.9298 44.8479C23.3952 44.8605 24.0695 44.8674 24.9533 44.8674H27.6535Z" fill="#313131" stroke="#313131" stroke-width="0.3"/>
<path d="M10.0128 48.0793L10.251 47.8411C10.3342 47.7579 10.3984 47.6778 10.4385 47.5793C10.4785 47.4812 10.4893 47.3781 10.4893 47.26C10.4893 47.1418 10.4785 47.0388 10.4385 46.9407C10.3985 46.8422 10.3342 46.7621 10.251 46.679L10.0128 46.4407H4.60554L4.5616 46.4807L4.35456 46.675V46.676C3.94087 47.0587 4.01895 47.7055 4.5157 47.9622V47.9612C4.57882 47.9948 4.6566 48.0153 4.75984 48.0295C4.8655 48.0441 5.00973 48.0546 5.21199 48.0618C5.61753 48.0761 6.2749 48.0793 7.3614 48.0793H10.0128Z" fill="#313131" stroke="#313131" stroke-width="0.3"/>
<path d="M13.4787 48.0862L16.1613 48.0657L18.8518 48.0452H18.9201L18.9641 47.9934L19.1252 47.8059C19.4102 47.472 19.393 46.9959 19.0852 46.6799L19.0832 46.679L18.8899 46.4846L18.8459 46.4407H13.4084L13.1691 46.6799C12.8385 47.0187 12.8366 47.5084 13.1779 47.842L13.3693 48.0403L13.4143 48.0862H13.4787Z" fill="#313131" stroke="#313131" stroke-width="0.3"/>
<path d="M24.8931 48.0793C25.7466 48.0793 26.404 48.0724 26.8618 48.0598C27.0905 48.0535 27.271 48.0457 27.4019 48.0364C27.4671 48.0317 27.5219 48.0266 27.565 48.0208C27.6018 48.0158 27.6479 48.0078 27.6831 47.9924H27.6841C27.8124 47.9353 27.9274 47.8109 28.0073 47.6877C28.0873 47.5646 28.1547 47.4085 28.1548 47.2668C28.1548 47.2124 28.1431 47.1449 28.1275 47.0833C28.112 47.0224 28.0882 46.9564 28.0601 46.8987L28.0611 46.8977C28.0209 46.8073 27.973 46.7036 27.8638 46.6262C27.7595 46.5523 27.6172 46.5146 27.4185 46.4905C27.0205 46.4422 26.2919 46.4407 24.8999 46.4407H22.2593L22.2163 46.4797L22.0083 46.6663L22.0073 46.6682C21.9179 46.7508 21.8452 46.8278 21.8003 46.927C21.755 47.0271 21.7446 47.1338 21.7446 47.26C21.7447 47.3862 21.7551 47.493 21.8003 47.593C21.8452 47.6921 21.9179 47.7693 22.0073 47.8518L22.0083 47.8528L22.2163 48.0403L22.2593 48.0793H24.8931Z" fill="#313131" stroke="#313131" stroke-width="0.3"/>
</svg>
