<svg width="41" height="41" viewBox="0 0 41 41" fill="none" xmlns="http://www.w3.org/2000/svg">
<rect width="41" height="41" rx="12" fill="#00ADEF"/>
<mask id="path-2-outside-1_185_1064" maskUnits="userSpaceOnUse" x="8" y="7.14966" width="25" height="27" fill="black">
<rect fill="white" x="8" y="7.14966" width="25" height="27"/>
<path d="M17.6351 7.60428C17.4251 7.72427 17.4001 7.88927 17.4001 9.04923V10.1492H15.9052C14.7902 10.1492 14.3002 10.1692 13.9752 10.2242C12.1603 10.5442 10.8553 12.1041 10.8503 13.9591V14.399H10.1754C9.70037 14.399 9.44538 14.419 9.32538 14.469C8.97539 14.614 9.00039 14.1241 9.00039 21.4488C9.00039 27.3486 9.01039 28.0686 9.08039 28.2036C9.23038 28.4936 9.27538 28.4986 11.7753 28.4986H14.0552L14.0252 28.7086C14.0102 28.8286 13.9102 29.7735 13.8002 30.8135C13.6252 32.4984 13.6102 32.7234 13.6702 32.8734C13.7102 32.9634 13.7852 33.0634 13.8402 33.0934C13.9852 33.1684 27.0148 33.1684 27.1598 33.0934C27.2148 33.0634 27.2898 32.9634 27.3298 32.8734C27.3898 32.7234 27.3748 32.4984 27.1998 30.8135C27.0898 29.7735 26.9898 28.8286 26.9748 28.7086L26.9448 28.4986H29.2247C31.7246 28.4986 31.7696 28.4936 31.9196 28.2036C31.9896 28.0686 31.9996 27.3486 31.9996 21.4488C31.9996 14.1241 32.0246 14.614 31.6746 14.469C31.5546 14.419 31.2996 14.399 30.8246 14.399H30.1497V13.9591C30.1447 12.4141 29.2347 11.0442 27.8048 10.4442C27.2248 10.1992 26.7548 10.1492 25.0948 10.1492H23.5999V9.04923C23.5999 7.87927 23.5699 7.71927 23.3549 7.59928C23.2199 7.52928 17.7601 7.53428 17.6351 7.60428ZM22.5499 9.71921C22.5499 10.8892 22.5499 10.8942 22.6699 11.0342L22.7899 11.1742L24.8349 11.1992C26.6398 11.2242 26.9048 11.2392 27.1248 11.3192C28.3647 11.7691 29.0997 12.7741 29.0997 14.0091V14.399H20.5H11.9003V14.0091C11.9003 12.7691 12.6353 11.7691 13.8752 11.3192C14.0952 11.2392 14.3602 11.2242 16.1651 11.1992L18.2101 11.1742L18.3301 11.0342C18.4501 10.8942 18.4501 10.8892 18.4501 9.71921V8.54925H20.5H22.5499V9.71921ZM12.6503 16.024V16.604L12.4053 16.899C11.9703 17.4239 11.6553 18.0289 11.4503 18.7539C11.2953 19.2839 11.2603 20.3338 11.3703 20.8938C11.5453 21.7638 11.9553 22.6088 12.4803 23.1887C12.7053 23.4487 12.7153 23.4687 13.2952 25.3387C13.6202 26.3736 13.9002 27.2736 13.9202 27.3336L13.9552 27.4486H12.0053H10.0504V21.4488V15.449H11.3503H12.6503V16.024ZM27.3098 16.269L27.3248 17.089L27.5748 17.3539C28.7347 18.5839 28.9797 20.2788 28.2147 21.7688C27.8248 22.5288 27.0798 23.1987 26.2498 23.5337C25.5498 23.8137 24.6049 23.8687 23.8749 23.6737C22.8549 23.3987 21.9 22.6238 21.445 21.6938C21.195 21.1938 21.105 20.8638 21.05 20.2738C21.005 19.8089 20.99 19.7639 20.85 19.6339C20.74 19.5339 20.645 19.4989 20.5 19.4989C20.355 19.4989 20.26 19.5339 20.15 19.6339C20.01 19.7639 19.995 19.8089 19.95 20.2738C19.925 20.5488 19.865 20.8988 19.82 21.0488C19.52 22.0538 18.7651 22.9438 17.8251 23.3987C17.2901 23.6587 16.9251 23.7487 16.3001 23.7837C15.2702 23.8337 14.3602 23.5037 13.5752 22.7838C11.9953 21.3438 11.9303 18.9389 13.4252 17.3539L13.6752 17.089L13.6902 16.269L13.7052 15.449H20.5H27.2948L27.3098 16.269ZM30.9496 21.4488V27.4486H28.9947H27.0448L27.0798 27.3336C27.0998 27.2736 27.3798 26.3736 27.7048 25.3387C28.2897 23.4537 28.2897 23.4537 28.5347 23.1787C29.0697 22.5738 29.5247 21.5988 29.6547 20.7488C29.7997 19.8089 29.6247 18.6839 29.1947 17.8289C29.0047 17.4539 28.5847 16.829 28.4247 16.699C28.3647 16.649 28.3497 16.509 28.3497 16.044V15.449H29.6497H30.9496V21.4488ZM20.75 22.6088C21.21 23.3487 21.895 23.9587 22.7249 24.3537C23.4099 24.6787 23.8899 24.7987 24.6499 24.8337C25.3498 24.8637 25.9098 24.7837 26.4898 24.5737C26.6698 24.5087 26.8298 24.4637 26.8398 24.4737C26.8548 24.4887 26.3898 26.0237 25.9948 27.2836L25.9398 27.4486H20.5H15.0602L15.0052 27.2836C14.6102 26.0237 14.1452 24.4887 14.1602 24.4737C14.1702 24.4637 14.3302 24.5087 14.5102 24.5737C15.0902 24.7837 15.6502 24.8637 16.3501 24.8337C17.1201 24.7987 17.5951 24.6837 18.2701 24.3587C19.105 23.9537 19.79 23.3487 20.25 22.6088C20.375 22.4138 20.485 22.2538 20.5 22.2538C20.515 22.2538 20.625 22.4138 20.75 22.6088ZM25.8998 28.5586C25.9048 28.5936 25.9898 29.4185 26.0898 30.3835L26.2798 32.1484H20.5H14.7202L14.9102 30.3835C15.0102 29.4185 15.0952 28.5936 15.1002 28.5586C15.1002 28.4686 25.8998 28.4686 25.8998 28.5586Z"/>
</mask>
<path d="M17.6351 7.60428C17.4251 7.72427 17.4001 7.88927 17.4001 9.04923V10.1492H15.9052C14.7902 10.1492 14.3002 10.1692 13.9752 10.2242C12.1603 10.5442 10.8553 12.1041 10.8503 13.9591V14.399H10.1754C9.70037 14.399 9.44538 14.419 9.32538 14.469C8.97539 14.614 9.00039 14.1241 9.00039 21.4488C9.00039 27.3486 9.01039 28.0686 9.08039 28.2036C9.23038 28.4936 9.27538 28.4986 11.7753 28.4986H14.0552L14.0252 28.7086C14.0102 28.8286 13.9102 29.7735 13.8002 30.8135C13.6252 32.4984 13.6102 32.7234 13.6702 32.8734C13.7102 32.9634 13.7852 33.0634 13.8402 33.0934C13.9852 33.1684 27.0148 33.1684 27.1598 33.0934C27.2148 33.0634 27.2898 32.9634 27.3298 32.8734C27.3898 32.7234 27.3748 32.4984 27.1998 30.8135C27.0898 29.7735 26.9898 28.8286 26.9748 28.7086L26.9448 28.4986H29.2247C31.7246 28.4986 31.7696 28.4936 31.9196 28.2036C31.9896 28.0686 31.9996 27.3486 31.9996 21.4488C31.9996 14.1241 32.0246 14.614 31.6746 14.469C31.5546 14.419 31.2996 14.399 30.8246 14.399H30.1497V13.9591C30.1447 12.4141 29.2347 11.0442 27.8048 10.4442C27.2248 10.1992 26.7548 10.1492 25.0948 10.1492H23.5999V9.04923C23.5999 7.87927 23.5699 7.71927 23.3549 7.59928C23.2199 7.52928 17.7601 7.53428 17.6351 7.60428ZM22.5499 9.71921C22.5499 10.8892 22.5499 10.8942 22.6699 11.0342L22.7899 11.1742L24.8349 11.1992C26.6398 11.2242 26.9048 11.2392 27.1248 11.3192C28.3647 11.7691 29.0997 12.7741 29.0997 14.0091V14.399H20.5H11.9003V14.0091C11.9003 12.7691 12.6353 11.7691 13.8752 11.3192C14.0952 11.2392 14.3602 11.2242 16.1651 11.1992L18.2101 11.1742L18.3301 11.0342C18.4501 10.8942 18.4501 10.8892 18.4501 9.71921V8.54925H20.5H22.5499V9.71921ZM12.6503 16.024V16.604L12.4053 16.899C11.9703 17.4239 11.6553 18.0289 11.4503 18.7539C11.2953 19.2839 11.2603 20.3338 11.3703 20.8938C11.5453 21.7638 11.9553 22.6088 12.4803 23.1887C12.7053 23.4487 12.7153 23.4687 13.2952 25.3387C13.6202 26.3736 13.9002 27.2736 13.9202 27.3336L13.9552 27.4486H12.0053H10.0504V21.4488V15.449H11.3503H12.6503V16.024ZM27.3098 16.269L27.3248 17.089L27.5748 17.3539C28.7347 18.5839 28.9797 20.2788 28.2147 21.7688C27.8248 22.5288 27.0798 23.1987 26.2498 23.5337C25.5498 23.8137 24.6049 23.8687 23.8749 23.6737C22.8549 23.3987 21.9 22.6238 21.445 21.6938C21.195 21.1938 21.105 20.8638 21.05 20.2738C21.005 19.8089 20.99 19.7639 20.85 19.6339C20.74 19.5339 20.645 19.4989 20.5 19.4989C20.355 19.4989 20.26 19.5339 20.15 19.6339C20.01 19.7639 19.995 19.8089 19.95 20.2738C19.925 20.5488 19.865 20.8988 19.82 21.0488C19.52 22.0538 18.7651 22.9438 17.8251 23.3987C17.2901 23.6587 16.9251 23.7487 16.3001 23.7837C15.2702 23.8337 14.3602 23.5037 13.5752 22.7838C11.9953 21.3438 11.9303 18.9389 13.4252 17.3539L13.6752 17.089L13.6902 16.269L13.7052 15.449H20.5H27.2948L27.3098 16.269ZM30.9496 21.4488V27.4486H28.9947H27.0448L27.0798 27.3336C27.0998 27.2736 27.3798 26.3736 27.7048 25.3387C28.2897 23.4537 28.2897 23.4537 28.5347 23.1787C29.0697 22.5738 29.5247 21.5988 29.6547 20.7488C29.7997 19.8089 29.6247 18.6839 29.1947 17.8289C29.0047 17.4539 28.5847 16.829 28.4247 16.699C28.3647 16.649 28.3497 16.509 28.3497 16.044V15.449H29.6497H30.9496V21.4488ZM20.75 22.6088C21.21 23.3487 21.895 23.9587 22.7249 24.3537C23.4099 24.6787 23.8899 24.7987 24.6499 24.8337C25.3498 24.8637 25.9098 24.7837 26.4898 24.5737C26.6698 24.5087 26.8298 24.4637 26.8398 24.4737C26.8548 24.4887 26.3898 26.0237 25.9948 27.2836L25.9398 27.4486H20.5H15.0602L15.0052 27.2836C14.6102 26.0237 14.1452 24.4887 14.1602 24.4737C14.1702 24.4637 14.3302 24.5087 14.5102 24.5737C15.0902 24.7837 15.6502 24.8637 16.3501 24.8337C17.1201 24.7987 17.5951 24.6837 18.2701 24.3587C19.105 23.9537 19.79 23.3487 20.25 22.6088C20.375 22.4138 20.485 22.2538 20.5 22.2538C20.515 22.2538 20.625 22.4138 20.75 22.6088ZM25.8998 28.5586C25.9048 28.5936 25.9898 29.4185 26.0898 30.3835L26.2798 32.1484H20.5H14.7202L14.9102 30.3835C15.0102 29.4185 15.0952 28.5936 15.1002 28.5586C15.1002 28.4686 25.8998 28.4686 25.8998 28.5586Z" fill="white"/>
<path d="M17.6351 7.60428C17.4251 7.72427 17.4001 7.88927 17.4001 9.04923V10.1492H15.9052C14.7902 10.1492 14.3002 10.1692 13.9752 10.2242C12.1603 10.5442 10.8553 12.1041 10.8503 13.9591V14.399H10.1754C9.70037 14.399 9.44538 14.419 9.32538 14.469C8.97539 14.614 9.00039 14.1241 9.00039 21.4488C9.00039 27.3486 9.01039 28.0686 9.08039 28.2036C9.23038 28.4936 9.27538 28.4986 11.7753 28.4986H14.0552L14.0252 28.7086C14.0102 28.8286 13.9102 29.7735 13.8002 30.8135C13.6252 32.4984 13.6102 32.7234 13.6702 32.8734C13.7102 32.9634 13.7852 33.0634 13.8402 33.0934C13.9852 33.1684 27.0148 33.1684 27.1598 33.0934C27.2148 33.0634 27.2898 32.9634 27.3298 32.8734C27.3898 32.7234 27.3748 32.4984 27.1998 30.8135C27.0898 29.7735 26.9898 28.8286 26.9748 28.7086L26.9448 28.4986H29.2247C31.7246 28.4986 31.7696 28.4936 31.9196 28.2036C31.9896 28.0686 31.9996 27.3486 31.9996 21.4488C31.9996 14.1241 32.0246 14.614 31.6746 14.469C31.5546 14.419 31.2996 14.399 30.8246 14.399H30.1497V13.9591C30.1447 12.4141 29.2347 11.0442 27.8048 10.4442C27.2248 10.1992 26.7548 10.1492 25.0948 10.1492H23.5999V9.04923C23.5999 7.87927 23.5699 7.71927 23.3549 7.59928C23.2199 7.52928 17.7601 7.53428 17.6351 7.60428ZM22.5499 9.71921C22.5499 10.8892 22.5499 10.8942 22.6699 11.0342L22.7899 11.1742L24.8349 11.1992C26.6398 11.2242 26.9048 11.2392 27.1248 11.3192C28.3647 11.7691 29.0997 12.7741 29.0997 14.0091V14.399H20.5H11.9003V14.0091C11.9003 12.7691 12.6353 11.7691 13.8752 11.3192C14.0952 11.2392 14.3602 11.2242 16.1651 11.1992L18.2101 11.1742L18.3301 11.0342C18.4501 10.8942 18.4501 10.8892 18.4501 9.71921V8.54925H20.5H22.5499V9.71921ZM12.6503 16.024V16.604L12.4053 16.899C11.9703 17.4239 11.6553 18.0289 11.4503 18.7539C11.2953 19.2839 11.2603 20.3338 11.3703 20.8938C11.5453 21.7638 11.9553 22.6088 12.4803 23.1887C12.7053 23.4487 12.7153 23.4687 13.2952 25.3387C13.6202 26.3736 13.9002 27.2736 13.9202 27.3336L13.9552 27.4486H12.0053H10.0504V21.4488V15.449H11.3503H12.6503V16.024ZM27.3098 16.269L27.3248 17.089L27.5748 17.3539C28.7347 18.5839 28.9797 20.2788 28.2147 21.7688C27.8248 22.5288 27.0798 23.1987 26.2498 23.5337C25.5498 23.8137 24.6049 23.8687 23.8749 23.6737C22.8549 23.3987 21.9 22.6238 21.445 21.6938C21.195 21.1938 21.105 20.8638 21.05 20.2738C21.005 19.8089 20.99 19.7639 20.85 19.6339C20.74 19.5339 20.645 19.4989 20.5 19.4989C20.355 19.4989 20.26 19.5339 20.15 19.6339C20.01 19.7639 19.995 19.8089 19.95 20.2738C19.925 20.5488 19.865 20.8988 19.82 21.0488C19.52 22.0538 18.7651 22.9438 17.8251 23.3987C17.2901 23.6587 16.9251 23.7487 16.3001 23.7837C15.2702 23.8337 14.3602 23.5037 13.5752 22.7838C11.9953 21.3438 11.9303 18.9389 13.4252 17.3539L13.6752 17.089L13.6902 16.269L13.7052 15.449H20.5H27.2948L27.3098 16.269ZM30.9496 21.4488V27.4486H28.9947H27.0448L27.0798 27.3336C27.0998 27.2736 27.3798 26.3736 27.7048 25.3387C28.2897 23.4537 28.2897 23.4537 28.5347 23.1787C29.0697 22.5738 29.5247 21.5988 29.6547 20.7488C29.7997 19.8089 29.6247 18.6839 29.1947 17.8289C29.0047 17.4539 28.5847 16.829 28.4247 16.699C28.3647 16.649 28.3497 16.509 28.3497 16.044V15.449H29.6497H30.9496V21.4488ZM20.75 22.6088C21.21 23.3487 21.895 23.9587 22.7249 24.3537C23.4099 24.6787 23.8899 24.7987 24.6499 24.8337C25.3498 24.8637 25.9098 24.7837 26.4898 24.5737C26.6698 24.5087 26.8298 24.4637 26.8398 24.4737C26.8548 24.4887 26.3898 26.0237 25.9948 27.2836L25.9398 27.4486H20.5H15.0602L15.0052 27.2836C14.6102 26.0237 14.1452 24.4887 14.1602 24.4737C14.1702 24.4637 14.3302 24.5087 14.5102 24.5737C15.0902 24.7837 15.6502 24.8637 16.3501 24.8337C17.1201 24.7987 17.5951 24.6837 18.2701 24.3587C19.105 23.9537 19.79 23.3487 20.25 22.6088C20.375 22.4138 20.485 22.2538 20.5 22.2538C20.515 22.2538 20.625 22.4138 20.75 22.6088ZM25.8998 28.5586C25.9048 28.5936 25.9898 29.4185 26.0898 30.3835L26.2798 32.1484H20.5H14.7202L14.9102 30.3835C15.0102 29.4185 15.0952 28.5936 15.1002 28.5586C15.1002 28.4686 25.8998 28.4686 25.8998 28.5586Z" stroke="white" stroke-width="0.301182" mask="url(#path-2-outside-1_185_1064)"/>
<path d="M25.1497 22.1489C25.3952 22.1489 25.5404 22.1463 25.6624 22.1235C25.7872 22.1002 25.8857 22.056 26.0383 21.981H26.0374C26.4526 21.7785 26.8147 21.4067 27.0071 20.9917C27.0684 20.8639 27.1058 20.7685 27.1262 20.6479C27.1462 20.5302 27.1497 20.3899 27.1497 20.1733C27.1497 19.9544 27.1462 19.8145 27.1262 19.6968C27.1058 19.5764 27.0691 19.4818 27.0081 19.3521C26.8262 18.9623 26.4192 18.5389 26.0481 18.356V18.3569C25.9203 18.2931 25.8239 18.2533 25.7024 18.229C25.5831 18.2052 25.4421 18.1964 25.2278 18.189C25.0087 18.1815 24.8685 18.1795 24.7502 18.1948C24.6292 18.2105 24.5331 18.2433 24.4006 18.2993H24.3997C24.028 18.4594 23.7825 18.6483 23.5295 18.9839V18.9849C23.391 19.1648 23.2945 19.3369 23.2346 19.5317C23.1747 19.7266 23.152 19.9401 23.1545 20.1997C23.1546 20.3843 23.1594 20.5095 23.1829 20.6255C23.2066 20.7426 23.2485 20.8468 23.3167 20.9907C23.5332 21.4496 23.8403 21.7727 24.262 21.981C24.4143 22.0559 24.5123 22.1002 24.637 22.1235C24.7589 22.1463 24.9042 22.1489 25.1497 22.1489ZM25.6506 20.8062C25.4795 20.9528 25.2324 20.9987 24.9963 20.9526C24.7601 20.9066 24.5486 20.7712 24.4465 20.5737C24.2246 20.143 24.3996 19.6136 24.8049 19.438H24.8059C24.9045 19.3943 25.0467 19.3727 25.1897 19.3774C25.3333 19.3822 25.4632 19.413 25.5403 19.4585C26.0567 19.7721 26.1065 20.4247 25.6516 20.8062H25.6506Z" fill="white" stroke="white" stroke-width="0.150591"/>
</svg>
