<svg width="54" height="47" viewBox="0 0 54 47" fill="none" xmlns="http://www.w3.org/2000/svg">
<path d="M20.9159 5.29443C21.3285 5.29717 21.7443 5.28652 22.0722 5.26221C22.2354 5.2501 22.3829 5.23427 22.499 5.21338C22.5563 5.20304 22.6121 5.19035 22.6611 5.17432C22.6906 5.16463 22.7395 5.14706 22.7861 5.11475L22.831 5.07764L22.8671 5.03369C22.8983 4.9888 22.9149 4.9422 22.9238 4.91553C22.9387 4.87027 22.9503 4.81908 22.9599 4.76709C22.9794 4.66168 22.995 4.52824 23.0068 4.38135C23.0304 4.08604 23.0419 3.71246 23.0419 3.34326C23.0419 2.97424 23.0305 2.60316 23.0068 2.31299C22.995 2.16894 22.9796 2.03828 22.9599 1.93604C22.9501 1.88548 22.938 1.83372 22.9218 1.78857C22.9111 1.75874 22.8818 1.68436 22.8154 1.62842L22.8163 1.62744C22.8147 1.62606 22.8121 1.62586 22.8105 1.62451C22.8087 1.62307 22.8074 1.62007 22.8056 1.61865L22.8036 1.62061C22.7475 1.57662 22.6796 1.54797 22.6327 1.53174C22.5727 1.51094 22.502 1.49186 22.4277 1.4751C22.2788 1.44153 22.0983 1.4141 21.9218 1.39697L21.9228 1.396C21.2323 1.32491 20.5909 1.06151 20.1161 0.63623L20.1132 0.633301C19.905 0.452571 19.7056 0.313307 19.5107 0.26709C19.4053 0.24217 19.296 0.242466 19.1894 0.281738C19.085 0.320253 19.0037 0.38956 18.9384 0.466309L18.9374 0.465332C18.8834 0.528504 18.8616 0.609967 18.8515 0.649902C18.8379 0.70358 18.8272 0.766853 18.8183 0.834473C18.8002 0.971209 18.787 1.14844 18.7773 1.34814C18.7577 1.749 18.7519 2.26083 18.7587 2.76904C18.7655 3.27711 18.7845 3.78644 18.8144 4.18311C18.8293 4.38067 18.8468 4.55524 18.8681 4.68896C18.8787 4.75529 18.8912 4.81814 18.9062 4.87061C18.9136 4.89668 18.9232 4.92513 18.9355 4.95264C18.9463 4.97672 18.9673 5.0186 19.0048 5.05615L19.0497 5.09326C19.0951 5.12481 19.1425 5.14196 19.1718 5.15186C19.2206 5.16833 19.2773 5.18186 19.3349 5.19287C19.4507 5.21501 19.5977 5.2334 19.7607 5.24756C20.0884 5.27601 20.5036 5.2917 20.9159 5.29443ZM20.0048 3.02881C20.0048 2.63729 20.0161 2.33481 20.0341 2.1333C20.035 2.12387 20.0362 2.11479 20.037 2.10596C20.1071 2.13582 20.1872 2.17083 20.2665 2.2124L20.2704 2.21436C20.5119 2.33507 20.9987 2.49256 21.3564 2.5708L21.3622 2.57178L21.7763 2.65186V4.02295H20.0048V3.02881Z" fill="#313131" stroke="#313131" stroke-width="0.5"/>
<path d="M25.5802 5.29688C25.9952 5.2996 26.4132 5.28739 26.7423 5.25879C26.9058 5.24457 27.0537 5.22489 27.171 5.2002C27.2292 5.18792 27.2873 5.17293 27.338 5.15332C27.3779 5.13787 27.4478 5.10659 27.502 5.04492H27.503L27.504 5.04297C27.5058 5.04091 27.5081 5.03924 27.5098 5.03711H27.5079C27.5529 4.98339 27.5751 4.92204 27.586 4.88477C27.5997 4.83825 27.61 4.78486 27.6182 4.72852C27.6349 4.61489 27.6471 4.46369 27.6554 4.27734C27.6719 3.90328 27.675 3.36168 27.6641 2.63574L27.6309 0.537109L27.628 0.30957L27.4015 0.291992L27.1309 0.270508L27.127 0.269531C26.9881 0.260371 26.8492 0.30225 26.7315 0.359375C26.6106 0.418113 26.4934 0.502805 26.3936 0.602539L26.3907 0.604492C26.2284 0.771306 25.9345 0.955429 25.5811 1.10742C25.2312 1.25795 24.849 1.366 24.5245 1.39551H24.5235C24.3414 1.41259 24.1576 1.44085 24.0079 1.47461C23.9334 1.4914 23.8626 1.51093 23.8028 1.53223C23.7565 1.54874 23.6734 1.58074 23.6134 1.64062L23.6143 1.6416C23.5635 1.6892 23.5348 1.74428 23.5206 1.77734C23.5003 1.82481 23.4847 1.87786 23.4727 1.92969C23.4487 2.0342 23.4312 2.16505 23.4181 2.30762C23.3917 2.59462 23.3817 2.95877 23.3858 3.32031C23.39 3.68188 23.4079 4.04878 23.4405 4.3418C23.4567 4.48747 23.4776 4.62082 23.503 4.72852C23.5157 4.7822 23.5308 4.83549 23.5499 4.88281C23.5658 4.92218 23.5934 4.98095 23.6417 5.03027L23.6495 5.03809C23.7025 5.08976 23.7674 5.11725 23.8087 5.13281C23.8595 5.15191 23.9173 5.16785 23.9766 5.18066C24.0961 5.20645 24.2465 5.22686 24.4122 5.24316C24.7451 5.27591 25.1649 5.29414 25.5802 5.29688ZM24.6563 2.65234L25.0802 2.57129L25.087 2.57031C25.3563 2.51139 25.7167 2.40215 26.005 2.28613L26.2638 2.16895L26.2667 2.16699C26.3198 2.13821 26.3725 2.11185 26.421 2.08594C26.4248 2.3162 26.4278 2.62998 26.4278 2.97461V4.02344H24.6563V2.65234Z" fill="#313131" stroke="#313131" stroke-width="0.5"/>
<mask id="path-3-outside-1_181_112" maskUnits="userSpaceOnUse" x="-0.5" y="2.33936" width="55" height="45" fill="black">
<rect fill="white" x="-0.5" y="2.33936" width="55" height="45"/>
<path d="M9.20801 3.19136C7.32578 3.49425 6.00606 4.16493 4.65388 5.50629C3.57214 6.58803 3.05291 7.46424 2.70675 8.81641C2.4904 9.66017 2.54449 11.445 2.81492 12.4402C3.12863 13.5761 4.10219 15.4042 5.51927 17.5244C7.00126 19.7312 7.76929 21.1699 8.28853 22.706C8.46161 23.2468 8.61305 23.712 8.61305 23.7552C8.61305 23.7877 8.3318 23.885 7.98564 23.95C7.62867 24.0149 7.06616 24.242 6.72001 24.4476C6.38467 24.6531 6.08178 24.8262 6.06014 24.8262C6.03851 24.8262 5.81134 24.6855 5.55173 24.5016C4.9135 24.0798 3.87503 23.8093 3.21517 23.9067C2.4904 24.0149 2.09016 24.2096 1.51684 24.7396C0.835339 25.367 0.5 26.0918 0.5 26.9572C0.5 27.8659 0.79207 28.5906 1.70073 29.9644C2.10098 30.5918 2.55531 31.3058 2.68511 31.5546L2.93392 32.0197L2.988 38.9429L3.04209 45.866H3.31252H3.58296L3.61541 38.8563C3.63705 32.9392 3.61541 31.7926 3.4856 31.4789C3.39906 31.2733 2.93392 30.5053 2.45795 29.7697C1.35457 28.0606 1.22477 27.7252 1.27885 26.8274C1.36539 25.5077 2.28487 24.6639 3.63705 24.6639C4.40508 24.6747 4.96759 24.9019 5.62745 25.4752C5.82216 25.6591 6.06014 25.7997 6.14668 25.7997C6.23322 25.7997 6.46039 25.6266 6.66592 25.4211C7.06616 25.0101 7.98564 24.6098 8.53733 24.6098C9.22964 24.6098 9.73806 24.837 10.2573 25.367C11.3715 26.5245 11.22 27.5954 9.58662 30.0185C8.40752 31.7818 8.50488 30.9596 8.50488 38.8022C8.50488 42.5667 8.54815 45.7146 8.60223 45.7903C8.6455 45.8768 8.80776 45.9201 8.94839 45.8985L9.20801 45.866L9.24046 38.9429L9.26209 32.0197L9.78133 32.831C10.9172 34.5943 12.3991 35.3299 14.8331 35.3299C17.0723 35.3299 18.8139 34.6592 20.1877 33.2746C21.0963 32.3659 21.529 31.587 21.7454 30.5161L21.886 29.8563L23.2274 29.8238L24.5795 29.7913L24.7202 30.4728C24.9041 31.4031 25.38 32.3334 26.0723 33.1015C26.386 33.4584 26.7755 33.956 26.9377 34.2157C27.4245 34.9945 28.8308 36.3791 29.7611 36.9957C31.6 38.2181 33.2875 38.7157 35.6349 38.7265H37.171V42.1881C37.171 44.092 37.2143 45.7146 37.2683 45.7903C37.3116 45.8768 37.4739 45.9201 37.6145 45.8985L37.8741 45.866L37.9066 42.1665L37.9282 38.4669L38.5232 38.3371L39.1289 38.2073L40.1133 39.1917C40.6866 39.7758 41.1951 40.1869 41.3141 40.1869C41.433 40.1869 41.7467 39.9597 42.0064 39.6893C42.7852 38.8888 42.796 38.9321 42.796 42.5559C42.796 44.2542 42.8393 45.7146 42.8934 45.7903C42.9367 45.8768 43.0989 45.9201 43.2395 45.8985L43.4992 45.866L43.5533 43.0535L43.6073 40.241L43.8345 40.533C44.4511 41.3227 48.9295 45.9958 49.2216 46.1581C49.6651 46.4069 50.3899 46.3961 50.8875 46.1473C51.3959 45.8768 53.2456 44.0162 53.3863 43.616C53.5593 43.1833 53.5269 42.5018 53.343 42.134C53.1916 41.8419 52.3262 40.9657 50.5305 39.3215C49.1675 38.0558 48.1723 37.1147 47.242 36.2277L46.3441 35.3515L46.8417 34.8863C47.123 34.6159 47.3393 34.3238 47.3393 34.194C47.3393 34.0426 46.9715 33.5883 46.3441 32.9717L45.3598 31.9765L45.5328 31.2409C45.8249 30.0293 45.9223 29.1748 45.9547 27.6928C45.9872 26.3081 45.9763 26.2757 45.6518 25.5834C45.4571 25.194 45.1975 24.6098 45.0569 24.2853C44.2888 22.4572 42.5472 20.4559 40.8814 19.4824L39.9943 18.9739L41.1842 17.1674C42.9691 14.4847 43.6398 13.0244 43.8994 11.2611C44.397 7.75631 41.8657 4.29474 38.0905 3.34281C36.4895 2.94256 33.9366 3.15891 32.3789 3.82959C30.0748 4.82479 28.5495 7.03154 27.9654 10.2551L27.8356 10.9799L23.2382 10.9583L18.6408 10.9258L18.4461 9.98469C18.1864 8.6866 17.9701 8.05919 17.4076 6.95582C16.4773 5.14931 14.9088 3.93776 12.7886 3.40771C11.7717 3.14809 10.1167 3.05074 9.20801 3.19136ZM12.7777 4.16493C13.9893 4.48945 14.8222 4.96542 15.6444 5.78754C16.6936 6.83683 17.3643 8.24309 17.7538 10.2443C17.8403 10.7419 17.9485 11.2503 17.9809 11.391L18.0242 11.6289L23.249 11.6073L28.463 11.5748L28.6901 10.4174C28.9822 8.98949 29.1986 8.31881 29.6637 7.41015C30.5183 5.71182 31.7947 4.7058 33.7851 4.1433C34.8885 3.82959 36.9763 3.80796 38.0364 4.10003C41.2383 4.96542 43.4018 7.74549 43.1855 10.7095C43.0989 11.8886 42.8718 12.6782 42.2552 13.9547C41.8117 14.8742 39.4102 18.6602 39.2804 18.6602C39.2479 18.6602 38.8044 18.5304 38.2852 18.3682C37.4306 18.1086 37.1602 18.0761 35.5808 18.0761L33.8284 18.0653L33.7094 17.5352C33.3633 15.9343 32.1301 14.8742 30.6048 14.8742C29.5339 14.8742 28.0952 15.6314 27.3163 16.6049C27.1216 16.8429 26.6889 17.5677 26.3536 18.2059C25.8993 19.0605 25.6288 19.4499 25.2935 19.7095C24.5579 20.272 23.1516 20.4451 22.0374 20.1098C21.1937 19.861 20.7069 19.3526 20.0146 18.0004C19.0086 16.0424 17.7105 15.0148 16.1095 14.9066C14.4328 14.7876 13.2537 15.7287 12.7777 17.5461C12.2369 19.6014 13.2321 22.1326 15.2225 23.8201C16.9533 25.2805 19.0518 25.7997 23.2598 25.7997H25.4449L25.3151 26.5786C25.2394 27.0113 25.1745 27.7685 25.1637 28.2553V29.1531L23.1949 29.1748L21.2261 29.2072L21.0855 30.051C20.8908 31.1652 20.4473 32.0414 19.6468 32.8202C17.6888 34.7565 13.9352 35.2217 11.7176 33.8046C11.1119 33.426 10.7657 33.0366 10.2573 32.2036C9.67316 31.2409 9.68397 31.1868 10.5385 29.8779C11.6311 28.2336 11.9015 27.2601 11.5987 26.2C11.3607 25.367 10.7224 24.599 9.97604 24.2312C9.6407 24.0689 9.37027 23.8742 9.37027 23.7877C9.37027 23.4199 8.75368 21.7216 8.18035 20.5533C7.8342 19.8393 6.94717 18.3465 6.20077 17.2323C4.67552 14.9391 4.10219 13.9006 3.69113 12.6782C3.00964 10.6446 3.20435 8.72987 4.25364 7.05318C4.92432 5.98225 6.44957 4.79234 7.74766 4.31637C9.21882 3.79714 11.1551 3.73223 12.7777 4.16493ZM17.2129 15.9559C18.0783 16.367 18.7922 17.1783 19.4196 18.4331C20.1011 19.7853 20.5338 20.272 21.3992 20.6723C22.0158 20.9535 22.1781 20.986 23.2165 20.9752C25.2394 20.9644 26.0399 20.4343 27.0892 18.379C27.7382 17.1242 28.3764 16.421 29.3067 15.9559C30.8428 15.1879 32.433 15.8261 32.8981 17.4054C33.1469 18.2384 33.1253 18.2925 32.552 18.4331C31.7082 18.6386 30.1505 19.4499 29.1769 20.1963C27.9546 21.105 26.9377 22.3814 26.213 23.8742L25.6505 25.0317L23.2165 25.0425C20.7069 25.0425 19.16 24.8911 18.0783 24.5449C15.8607 23.8201 14.0867 22.0136 13.535 19.8934C13.0915 18.1843 13.6215 16.4643 14.779 15.8694C15.4172 15.534 16.4232 15.5773 17.2129 15.9559ZM37.4631 18.9415C40.3838 19.5365 42.7636 21.3646 44.0941 24.0149C45.9547 27.7144 45.3706 31.9873 42.5797 34.9188C40.7299 36.8659 38.653 37.8503 36.0676 37.9909C30.4642 38.2938 25.9209 33.9777 25.9209 28.3526C25.9209 26.3731 26.4509 24.6423 27.5543 22.9872C28.9498 20.8994 31.0483 19.4932 33.6012 18.9199C34.4775 18.7251 36.4895 18.736 37.4631 18.9415ZM45.8249 33.426L46.528 34.1291L43.8994 36.7469L41.2816 39.3756L40.5785 38.6724C40.189 38.2938 39.8753 37.9369 39.8753 37.9044C39.8753 37.8611 40.2323 37.634 40.665 37.396C42.2119 36.5414 43.8021 34.9512 44.5701 33.4801C44.7973 33.0582 45.0028 32.7229 45.0461 32.7229C45.0893 32.7229 45.4463 33.0366 45.8249 33.426ZM47.2961 37.2986C48.0749 38.0234 49.5894 39.4405 50.6711 40.4465C51.742 41.4417 52.6723 42.3936 52.7264 42.5559C52.7805 42.7073 52.7805 42.9778 52.7372 43.1508C52.6291 43.5403 50.7685 45.4441 50.3682 45.5739C49.7408 45.7903 49.5461 45.6172 46.4848 42.3287L43.5533 39.17V38.6508C43.5533 38.1316 43.5533 38.1207 44.6674 37.0498C45.2732 36.4549 45.7925 35.9681 45.8249 35.9681C45.8574 35.9681 46.5172 36.563 47.2961 37.2986Z"/>
</mask>
<path d="M9.20801 3.19136C7.32578 3.49425 6.00606 4.16493 4.65388 5.50629C3.57214 6.58803 3.05291 7.46424 2.70675 8.81641C2.4904 9.66017 2.54449 11.445 2.81492 12.4402C3.12863 13.5761 4.10219 15.4042 5.51927 17.5244C7.00126 19.7312 7.76929 21.1699 8.28853 22.706C8.46161 23.2468 8.61305 23.712 8.61305 23.7552C8.61305 23.7877 8.3318 23.885 7.98564 23.95C7.62867 24.0149 7.06616 24.242 6.72001 24.4476C6.38467 24.6531 6.08178 24.8262 6.06014 24.8262C6.03851 24.8262 5.81134 24.6855 5.55173 24.5016C4.9135 24.0798 3.87503 23.8093 3.21517 23.9067C2.4904 24.0149 2.09016 24.2096 1.51684 24.7396C0.835339 25.367 0.5 26.0918 0.5 26.9572C0.5 27.8659 0.79207 28.5906 1.70073 29.9644C2.10098 30.5918 2.55531 31.3058 2.68511 31.5546L2.93392 32.0197L2.988 38.9429L3.04209 45.866H3.31252H3.58296L3.61541 38.8563C3.63705 32.9392 3.61541 31.7926 3.4856 31.4789C3.39906 31.2733 2.93392 30.5053 2.45795 29.7697C1.35457 28.0606 1.22477 27.7252 1.27885 26.8274C1.36539 25.5077 2.28487 24.6639 3.63705 24.6639C4.40508 24.6747 4.96759 24.9019 5.62745 25.4752C5.82216 25.6591 6.06014 25.7997 6.14668 25.7997C6.23322 25.7997 6.46039 25.6266 6.66592 25.4211C7.06616 25.0101 7.98564 24.6098 8.53733 24.6098C9.22964 24.6098 9.73806 24.837 10.2573 25.367C11.3715 26.5245 11.22 27.5954 9.58662 30.0185C8.40752 31.7818 8.50488 30.9596 8.50488 38.8022C8.50488 42.5667 8.54815 45.7146 8.60223 45.7903C8.6455 45.8768 8.80776 45.9201 8.94839 45.8985L9.20801 45.866L9.24046 38.9429L9.26209 32.0197L9.78133 32.831C10.9172 34.5943 12.3991 35.3299 14.8331 35.3299C17.0723 35.3299 18.8139 34.6592 20.1877 33.2746C21.0963 32.3659 21.529 31.587 21.7454 30.5161L21.886 29.8563L23.2274 29.8238L24.5795 29.7913L24.7202 30.4728C24.9041 31.4031 25.38 32.3334 26.0723 33.1015C26.386 33.4584 26.7755 33.956 26.9377 34.2157C27.4245 34.9945 28.8308 36.3791 29.7611 36.9957C31.6 38.2181 33.2875 38.7157 35.6349 38.7265H37.171V42.1881C37.171 44.092 37.2143 45.7146 37.2683 45.7903C37.3116 45.8768 37.4739 45.9201 37.6145 45.8985L37.8741 45.866L37.9066 42.1665L37.9282 38.4669L38.5232 38.3371L39.1289 38.2073L40.1133 39.1917C40.6866 39.7758 41.1951 40.1869 41.3141 40.1869C41.433 40.1869 41.7467 39.9597 42.0064 39.6893C42.7852 38.8888 42.796 38.9321 42.796 42.5559C42.796 44.2542 42.8393 45.7146 42.8934 45.7903C42.9367 45.8768 43.0989 45.9201 43.2395 45.8985L43.4992 45.866L43.5533 43.0535L43.6073 40.241L43.8345 40.533C44.4511 41.3227 48.9295 45.9958 49.2216 46.1581C49.6651 46.4069 50.3899 46.3961 50.8875 46.1473C51.3959 45.8768 53.2456 44.0162 53.3863 43.616C53.5593 43.1833 53.5269 42.5018 53.343 42.134C53.1916 41.8419 52.3262 40.9657 50.5305 39.3215C49.1675 38.0558 48.1723 37.1147 47.242 36.2277L46.3441 35.3515L46.8417 34.8863C47.123 34.6159 47.3393 34.3238 47.3393 34.194C47.3393 34.0426 46.9715 33.5883 46.3441 32.9717L45.3598 31.9765L45.5328 31.2409C45.8249 30.0293 45.9223 29.1748 45.9547 27.6928C45.9872 26.3081 45.9763 26.2757 45.6518 25.5834C45.4571 25.194 45.1975 24.6098 45.0569 24.2853C44.2888 22.4572 42.5472 20.4559 40.8814 19.4824L39.9943 18.9739L41.1842 17.1674C42.9691 14.4847 43.6398 13.0244 43.8994 11.2611C44.397 7.75631 41.8657 4.29474 38.0905 3.34281C36.4895 2.94256 33.9366 3.15891 32.3789 3.82959C30.0748 4.82479 28.5495 7.03154 27.9654 10.2551L27.8356 10.9799L23.2382 10.9583L18.6408 10.9258L18.4461 9.98469C18.1864 8.6866 17.9701 8.05919 17.4076 6.95582C16.4773 5.14931 14.9088 3.93776 12.7886 3.40771C11.7717 3.14809 10.1167 3.05074 9.20801 3.19136ZM12.7777 4.16493C13.9893 4.48945 14.8222 4.96542 15.6444 5.78754C16.6936 6.83683 17.3643 8.24309 17.7538 10.2443C17.8403 10.7419 17.9485 11.2503 17.9809 11.391L18.0242 11.6289L23.249 11.6073L28.463 11.5748L28.6901 10.4174C28.9822 8.98949 29.1986 8.31881 29.6637 7.41015C30.5183 5.71182 31.7947 4.7058 33.7851 4.1433C34.8885 3.82959 36.9763 3.80796 38.0364 4.10003C41.2383 4.96542 43.4018 7.74549 43.1855 10.7095C43.0989 11.8886 42.8718 12.6782 42.2552 13.9547C41.8117 14.8742 39.4102 18.6602 39.2804 18.6602C39.2479 18.6602 38.8044 18.5304 38.2852 18.3682C37.4306 18.1086 37.1602 18.0761 35.5808 18.0761L33.8284 18.0653L33.7094 17.5352C33.3633 15.9343 32.1301 14.8742 30.6048 14.8742C29.5339 14.8742 28.0952 15.6314 27.3163 16.6049C27.1216 16.8429 26.6889 17.5677 26.3536 18.2059C25.8993 19.0605 25.6288 19.4499 25.2935 19.7095C24.5579 20.272 23.1516 20.4451 22.0374 20.1098C21.1937 19.861 20.7069 19.3526 20.0146 18.0004C19.0086 16.0424 17.7105 15.0148 16.1095 14.9066C14.4328 14.7876 13.2537 15.7287 12.7777 17.5461C12.2369 19.6014 13.2321 22.1326 15.2225 23.8201C16.9533 25.2805 19.0518 25.7997 23.2598 25.7997H25.4449L25.3151 26.5786C25.2394 27.0113 25.1745 27.7685 25.1637 28.2553V29.1531L23.1949 29.1748L21.2261 29.2072L21.0855 30.051C20.8908 31.1652 20.4473 32.0414 19.6468 32.8202C17.6888 34.7565 13.9352 35.2217 11.7176 33.8046C11.1119 33.426 10.7657 33.0366 10.2573 32.2036C9.67316 31.2409 9.68397 31.1868 10.5385 29.8779C11.6311 28.2336 11.9015 27.2601 11.5987 26.2C11.3607 25.367 10.7224 24.599 9.97604 24.2312C9.6407 24.0689 9.37027 23.8742 9.37027 23.7877C9.37027 23.4199 8.75368 21.7216 8.18035 20.5533C7.8342 19.8393 6.94717 18.3465 6.20077 17.2323C4.67552 14.9391 4.10219 13.9006 3.69113 12.6782C3.00964 10.6446 3.20435 8.72987 4.25364 7.05318C4.92432 5.98225 6.44957 4.79234 7.74766 4.31637C9.21882 3.79714 11.1551 3.73223 12.7777 4.16493ZM17.2129 15.9559C18.0783 16.367 18.7922 17.1783 19.4196 18.4331C20.1011 19.7853 20.5338 20.272 21.3992 20.6723C22.0158 20.9535 22.1781 20.986 23.2165 20.9752C25.2394 20.9644 26.0399 20.4343 27.0892 18.379C27.7382 17.1242 28.3764 16.421 29.3067 15.9559C30.8428 15.1879 32.433 15.8261 32.8981 17.4054C33.1469 18.2384 33.1253 18.2925 32.552 18.4331C31.7082 18.6386 30.1505 19.4499 29.1769 20.1963C27.9546 21.105 26.9377 22.3814 26.213 23.8742L25.6505 25.0317L23.2165 25.0425C20.7069 25.0425 19.16 24.8911 18.0783 24.5449C15.8607 23.8201 14.0867 22.0136 13.535 19.8934C13.0915 18.1843 13.6215 16.4643 14.779 15.8694C15.4172 15.534 16.4232 15.5773 17.2129 15.9559ZM37.4631 18.9415C40.3838 19.5365 42.7636 21.3646 44.0941 24.0149C45.9547 27.7144 45.3706 31.9873 42.5797 34.9188C40.7299 36.8659 38.653 37.8503 36.0676 37.9909C30.4642 38.2938 25.9209 33.9777 25.9209 28.3526C25.9209 26.3731 26.4509 24.6423 27.5543 22.9872C28.9498 20.8994 31.0483 19.4932 33.6012 18.9199C34.4775 18.7251 36.4895 18.736 37.4631 18.9415ZM45.8249 33.426L46.528 34.1291L43.8994 36.7469L41.2816 39.3756L40.5785 38.6724C40.189 38.2938 39.8753 37.9369 39.8753 37.9044C39.8753 37.8611 40.2323 37.634 40.665 37.396C42.2119 36.5414 43.8021 34.9512 44.5701 33.4801C44.7973 33.0582 45.0028 32.7229 45.0461 32.7229C45.0893 32.7229 45.4463 33.0366 45.8249 33.426ZM47.2961 37.2986C48.0749 38.0234 49.5894 39.4405 50.6711 40.4465C51.742 41.4417 52.6723 42.3936 52.7264 42.5559C52.7805 42.7073 52.7805 42.9778 52.7372 43.1508C52.6291 43.5403 50.7685 45.4441 50.3682 45.5739C49.7408 45.7903 49.5461 45.6172 46.4848 42.3287L43.5533 39.17V38.6508C43.5533 38.1316 43.5533 38.1207 44.6674 37.0498C45.2732 36.4549 45.7925 35.9681 45.8249 35.9681C45.8574 35.9681 46.5172 36.563 47.2961 37.2986Z" fill="#313131"/>
<path d="M9.20801 3.19136C7.32578 3.49425 6.00606 4.16493 4.65388 5.50629C3.57214 6.58803 3.05291 7.46424 2.70675 8.81641C2.4904 9.66017 2.54449 11.445 2.81492 12.4402C3.12863 13.5761 4.10219 15.4042 5.51927 17.5244C7.00126 19.7312 7.76929 21.1699 8.28853 22.706C8.46161 23.2468 8.61305 23.712 8.61305 23.7552C8.61305 23.7877 8.3318 23.885 7.98564 23.95C7.62867 24.0149 7.06616 24.242 6.72001 24.4476C6.38467 24.6531 6.08178 24.8262 6.06014 24.8262C6.03851 24.8262 5.81134 24.6855 5.55173 24.5016C4.9135 24.0798 3.87503 23.8093 3.21517 23.9067C2.4904 24.0149 2.09016 24.2096 1.51684 24.7396C0.835339 25.367 0.5 26.0918 0.5 26.9572C0.5 27.8659 0.79207 28.5906 1.70073 29.9644C2.10098 30.5918 2.55531 31.3058 2.68511 31.5546L2.93392 32.0197L2.988 38.9429L3.04209 45.866H3.31252H3.58296L3.61541 38.8563C3.63705 32.9392 3.61541 31.7926 3.4856 31.4789C3.39906 31.2733 2.93392 30.5053 2.45795 29.7697C1.35457 28.0606 1.22477 27.7252 1.27885 26.8274C1.36539 25.5077 2.28487 24.6639 3.63705 24.6639C4.40508 24.6747 4.96759 24.9019 5.62745 25.4752C5.82216 25.6591 6.06014 25.7997 6.14668 25.7997C6.23322 25.7997 6.46039 25.6266 6.66592 25.4211C7.06616 25.0101 7.98564 24.6098 8.53733 24.6098C9.22964 24.6098 9.73806 24.837 10.2573 25.367C11.3715 26.5245 11.22 27.5954 9.58662 30.0185C8.40752 31.7818 8.50488 30.9596 8.50488 38.8022C8.50488 42.5667 8.54815 45.7146 8.60223 45.7903C8.6455 45.8768 8.80776 45.9201 8.94839 45.8985L9.20801 45.866L9.24046 38.9429L9.26209 32.0197L9.78133 32.831C10.9172 34.5943 12.3991 35.3299 14.8331 35.3299C17.0723 35.3299 18.8139 34.6592 20.1877 33.2746C21.0963 32.3659 21.529 31.587 21.7454 30.5161L21.886 29.8563L23.2274 29.8238L24.5795 29.7913L24.7202 30.4728C24.9041 31.4031 25.38 32.3334 26.0723 33.1015C26.386 33.4584 26.7755 33.956 26.9377 34.2157C27.4245 34.9945 28.8308 36.3791 29.7611 36.9957C31.6 38.2181 33.2875 38.7157 35.6349 38.7265H37.171V42.1881C37.171 44.092 37.2143 45.7146 37.2683 45.7903C37.3116 45.8768 37.4739 45.9201 37.6145 45.8985L37.8741 45.866L37.9066 42.1665L37.9282 38.4669L38.5232 38.3371L39.1289 38.2073L40.1133 39.1917C40.6866 39.7758 41.1951 40.1869 41.3141 40.1869C41.433 40.1869 41.7467 39.9597 42.0064 39.6893C42.7852 38.8888 42.796 38.9321 42.796 42.5559C42.796 44.2542 42.8393 45.7146 42.8934 45.7903C42.9367 45.8768 43.0989 45.9201 43.2395 45.8985L43.4992 45.866L43.5533 43.0535L43.6073 40.241L43.8345 40.533C44.4511 41.3227 48.9295 45.9958 49.2216 46.1581C49.6651 46.4069 50.3899 46.3961 50.8875 46.1473C51.3959 45.8768 53.2456 44.0162 53.3863 43.616C53.5593 43.1833 53.5269 42.5018 53.343 42.134C53.1916 41.8419 52.3262 40.9657 50.5305 39.3215C49.1675 38.0558 48.1723 37.1147 47.242 36.2277L46.3441 35.3515L46.8417 34.8863C47.123 34.6159 47.3393 34.3238 47.3393 34.194C47.3393 34.0426 46.9715 33.5883 46.3441 32.9717L45.3598 31.9765L45.5328 31.2409C45.8249 30.0293 45.9223 29.1748 45.9547 27.6928C45.9872 26.3081 45.9763 26.2757 45.6518 25.5834C45.4571 25.194 45.1975 24.6098 45.0569 24.2853C44.2888 22.4572 42.5472 20.4559 40.8814 19.4824L39.9943 18.9739L41.1842 17.1674C42.9691 14.4847 43.6398 13.0244 43.8994 11.2611C44.397 7.75631 41.8657 4.29474 38.0905 3.34281C36.4895 2.94256 33.9366 3.15891 32.3789 3.82959C30.0748 4.82479 28.5495 7.03154 27.9654 10.2551L27.8356 10.9799L23.2382 10.9583L18.6408 10.9258L18.4461 9.98469C18.1864 8.6866 17.9701 8.05919 17.4076 6.95582C16.4773 5.14931 14.9088 3.93776 12.7886 3.40771C11.7717 3.14809 10.1167 3.05074 9.20801 3.19136ZM12.7777 4.16493C13.9893 4.48945 14.8222 4.96542 15.6444 5.78754C16.6936 6.83683 17.3643 8.24309 17.7538 10.2443C17.8403 10.7419 17.9485 11.2503 17.9809 11.391L18.0242 11.6289L23.249 11.6073L28.463 11.5748L28.6901 10.4174C28.9822 8.98949 29.1986 8.31881 29.6637 7.41015C30.5183 5.71182 31.7947 4.7058 33.7851 4.1433C34.8885 3.82959 36.9763 3.80796 38.0364 4.10003C41.2383 4.96542 43.4018 7.74549 43.1855 10.7095C43.0989 11.8886 42.8718 12.6782 42.2552 13.9547C41.8117 14.8742 39.4102 18.6602 39.2804 18.6602C39.2479 18.6602 38.8044 18.5304 38.2852 18.3682C37.4306 18.1086 37.1602 18.0761 35.5808 18.0761L33.8284 18.0653L33.7094 17.5352C33.3633 15.9343 32.1301 14.8742 30.6048 14.8742C29.5339 14.8742 28.0952 15.6314 27.3163 16.6049C27.1216 16.8429 26.6889 17.5677 26.3536 18.2059C25.8993 19.0605 25.6288 19.4499 25.2935 19.7095C24.5579 20.272 23.1516 20.4451 22.0374 20.1098C21.1937 19.861 20.7069 19.3526 20.0146 18.0004C19.0086 16.0424 17.7105 15.0148 16.1095 14.9066C14.4328 14.7876 13.2537 15.7287 12.7777 17.5461C12.2369 19.6014 13.2321 22.1326 15.2225 23.8201C16.9533 25.2805 19.0518 25.7997 23.2598 25.7997H25.4449L25.3151 26.5786C25.2394 27.0113 25.1745 27.7685 25.1637 28.2553V29.1531L23.1949 29.1748L21.2261 29.2072L21.0855 30.051C20.8908 31.1652 20.4473 32.0414 19.6468 32.8202C17.6888 34.7565 13.9352 35.2217 11.7176 33.8046C11.1119 33.426 10.7657 33.0366 10.2573 32.2036C9.67316 31.2409 9.68397 31.1868 10.5385 29.8779C11.6311 28.2336 11.9015 27.2601 11.5987 26.2C11.3607 25.367 10.7224 24.599 9.97604 24.2312C9.6407 24.0689 9.37027 23.8742 9.37027 23.7877C9.37027 23.4199 8.75368 21.7216 8.18035 20.5533C7.8342 19.8393 6.94717 18.3465 6.20077 17.2323C4.67552 14.9391 4.10219 13.9006 3.69113 12.6782C3.00964 10.6446 3.20435 8.72987 4.25364 7.05318C4.92432 5.98225 6.44957 4.79234 7.74766 4.31637C9.21882 3.79714 11.1551 3.73223 12.7777 4.16493ZM17.2129 15.9559C18.0783 16.367 18.7922 17.1783 19.4196 18.4331C20.1011 19.7853 20.5338 20.272 21.3992 20.6723C22.0158 20.9535 22.1781 20.986 23.2165 20.9752C25.2394 20.9644 26.0399 20.4343 27.0892 18.379C27.7382 17.1242 28.3764 16.421 29.3067 15.9559C30.8428 15.1879 32.433 15.8261 32.8981 17.4054C33.1469 18.2384 33.1253 18.2925 32.552 18.4331C31.7082 18.6386 30.1505 19.4499 29.1769 20.1963C27.9546 21.105 26.9377 22.3814 26.213 23.8742L25.6505 25.0317L23.2165 25.0425C20.7069 25.0425 19.16 24.8911 18.0783 24.5449C15.8607 23.8201 14.0867 22.0136 13.535 19.8934C13.0915 18.1843 13.6215 16.4643 14.779 15.8694C15.4172 15.534 16.4232 15.5773 17.2129 15.9559ZM37.4631 18.9415C40.3838 19.5365 42.7636 21.3646 44.0941 24.0149C45.9547 27.7144 45.3706 31.9873 42.5797 34.9188C40.7299 36.8659 38.653 37.8503 36.0676 37.9909C30.4642 38.2938 25.9209 33.9777 25.9209 28.3526C25.9209 26.3731 26.4509 24.6423 27.5543 22.9872C28.9498 20.8994 31.0483 19.4932 33.6012 18.9199C34.4775 18.7251 36.4895 18.736 37.4631 18.9415ZM45.8249 33.426L46.528 34.1291L43.8994 36.7469L41.2816 39.3756L40.5785 38.6724C40.189 38.2938 39.8753 37.9369 39.8753 37.9044C39.8753 37.8611 40.2323 37.634 40.665 37.396C42.2119 36.5414 43.8021 34.9512 44.5701 33.4801C44.7973 33.0582 45.0028 32.7229 45.0461 32.7229C45.0893 32.7229 45.4463 33.0366 45.8249 33.426ZM47.2961 37.2986C48.0749 38.0234 49.5894 39.4405 50.6711 40.4465C51.742 41.4417 52.6723 42.3936 52.7264 42.5559C52.7805 42.7073 52.7805 42.9778 52.7372 43.1508C52.6291 43.5403 50.7685 45.4441 50.3682 45.5739C49.7408 45.7903 49.5461 45.6172 46.4848 42.3287L43.5533 39.17V38.6508C43.5533 38.1316 43.5533 38.1207 44.6674 37.0498C45.2732 36.4549 45.7925 35.9681 45.8249 35.9681C45.8574 35.9681 46.5172 36.563 47.2961 37.2986Z" stroke="#313131" mask="url(#path-3-outside-1_181_112)"/>
<path d="M35.5481 36.7048C36.3225 36.7048 36.7723 36.6997 37.1282 36.657C37.4942 36.613 37.7586 36.5293 38.1624 36.3875C40.4959 35.5652 42.436 33.7759 43.3089 31.6277L43.4388 31.282C44.0506 29.5275 44.0741 27.3527 43.4974 25.6853V25.6843C43.0191 24.3274 42.5435 23.5827 41.4603 22.4773L41.4593 22.4763C40.9812 21.9928 40.5975 21.646 40.2894 21.4333C40.1353 21.327 39.9887 21.2467 39.8509 21.2019C39.7123 21.1569 39.5638 21.1424 39.4212 21.1951H39.4202C39.2894 21.2437 39.1548 21.3329 39.096 21.491C39.038 21.6471 39.0799 21.8024 39.1419 21.9236C39.2623 22.1588 39.534 22.418 39.8987 22.6902H39.8997C41.0536 23.5426 41.8269 24.6447 42.3538 26.2253V26.2263C43.1415 28.5595 42.5793 31.2116 40.9183 33.0857L40.7542 33.2644C39.3673 34.7201 37.8542 35.4323 35.9358 35.5242L35.5472 35.5339C32.0128 35.5438 29.1278 33.1248 28.4847 29.6423L28.429 29.3025C28.1359 27.1713 28.9259 24.8664 30.4915 23.2761L30.8148 22.9675L30.8157 22.9666C31.1391 22.6735 31.6722 22.3307 32.2503 22.031C32.8276 21.7317 33.4269 21.4877 33.8753 21.3806H33.8773C34.2902 21.28 34.9439 21.2332 35.6106 21.2439C36.2777 21.2546 36.9238 21.3219 37.3206 21.4324C37.7047 21.5391 38.2016 21.6649 38.4202 21.6892V21.6882C38.4929 21.7006 38.5641 21.7116 38.6263 21.7136C38.6885 21.7156 38.786 21.7118 38.8753 21.6531C38.9757 21.5871 39.0135 21.489 39.0286 21.4177C39.0426 21.3516 39.0433 21.2767 39.0433 21.2126C39.0432 21.09 39.016 20.9674 38.9427 20.8533C38.8714 20.7423 38.7681 20.6568 38.6468 20.5867C38.4124 20.4512 38.0541 20.3429 37.553 20.2244L37.554 20.2234C36.5856 19.9897 35.2226 19.9115 34.3216 20.0466C33.4311 20.1802 32.0911 20.6215 31.4212 21.0076C28.5024 22.6898 26.7851 26.0739 27.1868 29.3562L27.1878 29.3582C27.4435 31.37 28.1495 32.8281 29.5853 34.2527C30.7006 35.3679 31.6095 35.9536 32.928 36.3894C33.3277 36.5262 33.6009 36.6057 33.972 36.6492C34.3344 36.6916 34.7877 36.6995 35.5462 36.7048H35.5481Z" fill="#313131" stroke="#313131" stroke-width="0.5"/>
<path d="M32.0855 31.0576C32.1657 31.055 32.2399 31.03 32.3082 30.9961C32.4376 30.9317 32.5954 30.8083 32.8082 30.6191C33.2412 30.2343 33.9805 29.5001 35.3131 28.1621H35.314C36.6525 26.829 37.3871 26.0893 37.772 25.6562C37.961 25.4437 38.0836 25.2856 38.148 25.1562C38.182 25.088 38.2068 25.0137 38.2095 24.9336C38.2124 24.8491 38.1898 24.7798 38.1627 24.7256L38.1568 24.7139L38.15 24.7031C38.0972 24.6201 38.0256 24.5405 37.9449 24.4795C37.8691 24.4222 37.757 24.3604 37.6256 24.3604C37.5673 24.3604 37.5225 24.3803 37.5103 24.3857C37.4909 24.3945 37.4732 24.4042 37.4605 24.4121C37.4347 24.4281 37.4068 24.4488 37.3795 24.4697C37.3237 24.5124 37.2517 24.5724 37.1676 24.6455C36.9981 24.7927 36.7669 25.0035 36.4918 25.2617C35.9404 25.7791 35.2052 26.4927 34.4195 27.2783C33.6393 28.0585 32.9287 28.7908 32.4127 29.3408C32.155 29.6154 31.9445 29.8463 31.7974 30.0156C31.7243 30.0998 31.6643 30.1717 31.6217 30.2275C31.6007 30.2549 31.5801 30.2827 31.564 30.3086C31.5562 30.3212 31.5463 30.3382 31.5377 30.3574C31.535 30.3634 31.5288 30.3782 31.523 30.3984L31.5123 30.4727L31.523 30.5684C31.5432 30.6588 31.5885 30.7362 31.6314 30.793C31.6925 30.8737 31.7721 30.9452 31.8551 30.998L31.8658 31.0049L31.8775 31.0107C31.9318 31.0379 32.001 31.0604 32.0855 31.0576Z" fill="#313131" stroke="#313131" stroke-width="0.5"/>
<path d="M34.1533 33.0513C34.1811 33.0445 34.2055 33.0351 34.2236 33.0269C34.2597 33.0104 34.2959 32.9882 34.3291 32.9663C34.397 32.9216 34.481 32.8578 34.5742 32.7817C34.7619 32.6286 35.0097 32.4087 35.2949 32.146C35.867 31.6189 36.6008 30.9077 37.3222 30.187C38.0436 29.4664 38.7554 28.7328 39.2851 28.1597C39.5496 27.8736 39.7716 27.6245 39.9267 27.436C40.0035 27.3427 40.0677 27.2596 40.1133 27.1919C40.1357 27.1586 40.1579 27.1225 40.1748 27.0874C40.1831 27.07 40.1929 27.0476 40.2002 27.022C40.2066 26.9992 40.2167 26.9538 40.209 26.8999V26.8979C40.1971 26.8192 40.177 26.723 40.1299 26.6401C40.0749 26.5437 39.9782 26.4586 39.8369 26.4438C39.7191 26.4316 39.6078 26.4737 39.5176 26.52C39.4219 26.5691 39.3144 26.6426 39.1943 26.7358C38.7191 27.1049 37.8973 27.9064 36.4648 29.3335H36.4638C35.0418 30.761 34.2486 31.5757 33.8838 32.0454C33.7916 32.1641 33.7195 32.2702 33.6709 32.3647C33.6249 32.4542 33.5836 32.564 33.5947 32.6802C33.6081 32.8189 33.6891 32.9157 33.7832 32.9722C33.864 33.0207 33.9583 33.0428 34.0342 33.0562V33.0532C34.0868 33.0627 34.1302 33.0568 34.1533 33.0513Z" fill="#313131" stroke="#313131" stroke-width="0.5"/>
<path d="M20.869 9.93188C21.4439 9.93188 21.8761 9.92101 22.1776 9.89868C22.3276 9.88757 22.4523 9.87288 22.5487 9.85376C22.5966 9.84424 22.6439 9.83234 22.6864 9.81665C22.7052 9.80969 22.7294 9.80057 22.7547 9.78638L22.8309 9.72876L22.8856 9.65649C22.8996 9.6325 22.9095 9.60965 22.9168 9.59106C22.933 9.55008 22.9452 9.50529 22.9549 9.46021C22.9745 9.36989 22.9896 9.25567 23.0008 9.12134C23.0233 8.8513 23.034 8.47252 23.034 7.98364C23.034 7.58037 23.0357 7.26677 23.0223 7.03052C23.0094 6.80134 22.9812 6.59718 22.8895 6.43872C22.7843 6.25707 22.6216 6.17299 22.4432 6.12817C22.2799 6.08715 22.0655 6.07032 21.8231 6.04712C21.5158 6.01784 21.1591 5.91332 20.8309 5.76392C20.5004 5.61347 20.2215 5.4279 20.0575 5.25024L20.0565 5.24927C19.876 5.05677 19.6586 4.91196 19.4286 4.90259C19.307 4.89768 19.1881 4.93128 19.0877 5.00806C18.9901 5.08286 18.9235 5.18711 18.8817 5.30103L18.8827 5.302C18.8532 5.38214 18.8365 5.50781 18.8251 5.62915C18.8123 5.76457 18.802 5.93568 18.7938 6.12817C18.7774 6.5139 18.7694 6.99626 18.7694 7.47388C18.7694 7.9513 18.7774 8.42729 18.7938 8.80103C18.802 8.98732 18.8122 9.15148 18.8251 9.27856C18.8315 9.34186 18.8388 9.40014 18.8475 9.44849C18.8545 9.48751 18.8678 9.54994 18.8954 9.60278L18.8983 9.60962H18.8993C18.9413 9.68424 19.002 9.75959 19.1092 9.81372C19.2018 9.86042 19.3134 9.88324 19.4413 9.89771C19.6979 9.92671 20.1288 9.93188 20.869 9.93188ZM20.0047 7.68091C20.0047 7.34472 20.0154 7.03914 20.0311 6.82056C20.0321 6.80711 20.034 6.79413 20.035 6.78149C20.0977 6.81026 20.1677 6.84102 20.2381 6.87622C20.4942 7.00926 20.9892 7.16475 21.3485 7.23267V7.23364L21.7762 7.32153V8.67505H20.0047V7.68091Z" fill="#313131" stroke="#313131" stroke-width="0.5"/>
<path d="M25.5203 9.93188C26.0952 9.93188 26.5274 9.92101 26.8289 9.89868C26.979 9.88757 27.1036 9.87288 27.2 9.85376C27.248 9.84423 27.2952 9.83236 27.3377 9.81665C27.3753 9.80275 27.4335 9.77755 27.4822 9.72876C27.5362 9.67475 27.5608 9.60803 27.5731 9.57056C27.5879 9.52518 27.6 9.4734 27.6092 9.41919C27.6276 9.31016 27.6412 9.16423 27.6522 8.98267C27.6743 8.61785 27.6854 8.08138 27.6854 7.34497C27.6854 6.45167 27.6804 5.91831 27.6551 5.60181C27.6427 5.44671 27.6237 5.31932 27.5877 5.22192C27.547 5.11177 27.474 5.01777 27.3524 4.97192L27.3533 4.97095C27.3521 4.97048 27.3507 4.97045 27.3494 4.96997C27.3484 4.96958 27.3476 4.9684 27.3465 4.96802L27.3455 4.96899C27.2875 4.94636 27.2163 4.91813 27.1414 4.90747C27.0506 4.89456 26.9629 4.90599 26.8738 4.9436C26.7944 4.97723 26.7187 5.02976 26.6434 5.08911C26.5663 5.14982 26.4739 5.22999 26.3612 5.32935L26.3602 5.33032C26.1336 5.53277 25.807 5.72231 25.4549 5.8606C25.1023 5.99908 24.7447 6.07833 24.4608 6.07837C24.2756 6.07837 24.0949 6.08501 23.9422 6.13403C23.7699 6.1894 23.6377 6.29694 23.5516 6.46997C23.4745 6.62505 23.44 6.82289 23.4217 7.05298C23.4031 7.28768 23.3992 7.58708 23.3992 7.96216C23.3992 8.32455 23.4127 8.6793 23.4334 8.96021C23.4438 9.10048 23.4569 9.2256 23.4705 9.32446C23.4773 9.3736 23.4847 9.41907 23.493 9.45825C23.5003 9.49294 23.5116 9.53855 23.5301 9.57935L23.535 9.59204L23.5418 9.60278C23.5827 9.67234 23.6417 9.74998 23.7479 9.80688C23.8414 9.85687 23.9536 9.88141 24.0819 9.89673C24.3382 9.92731 24.7701 9.93188 25.5203 9.93188ZM24.6561 7.32544L24.9061 7.29028L24.9149 7.28931V7.28833C25.185 7.24128 25.6796 7.09515 26.0203 6.94751C26.1581 6.88783 26.2919 6.83301 26.4031 6.78833C26.4039 6.79975 26.4063 6.81139 26.4071 6.82349C26.4202 7.04001 26.4285 7.34337 26.4285 7.68091V8.67505H24.6561V7.32544Z" fill="#313131" stroke="#313131" stroke-width="0.5"/>
</svg>
