<svg width="121" height="19" viewBox="0 0 121 19" fill="none" xmlns="http://www.w3.org/2000/svg">
<path d="M17.8311 6.10378L13.2533 5.76468C12.9142 5.76468 12.7446 5.59513 12.7446 5.25603L11.0491 1.0173C10.5405 -0.339099 8.67543 -0.339099 8.16678 1.0173L6.47129 5.25603C6.30174 5.42557 6.13219 5.59513 5.96264 5.76468L1.38481 6.10378C0.0284139 6.27332 -0.480237 7.96882 0.537059 8.81656L4.0976 11.6989C4.26715 11.8685 4.4367 12.2076 4.26715 12.3771L3.24985 16.7854C2.91075 18.1418 4.4367 19.1591 5.62354 18.4809L9.52318 16.1072C9.69273 15.9376 10.0318 15.9376 10.2014 16.1072L14.101 18.4809C15.2879 19.1591 16.8138 18.1418 16.4747 16.7854L15.4574 12.3771C15.4574 12.2076 15.4574 11.8685 15.627 11.6989L19.1875 8.81656C19.6961 7.96882 19.1875 6.27332 17.8311 6.10378Z" fill="white"/>
<path d="M42.9244 6.10378L38.3466 5.76468C38.0075 5.76468 37.8379 5.59513 37.8379 5.25603L36.1424 1.0173C35.6338 -0.339099 33.7687 -0.339099 33.2601 1.0173L31.5646 5.25603C31.3951 5.42557 31.2255 5.59513 31.056 5.76468L26.4781 6.10378C25.1217 6.27332 24.6131 7.96882 25.6304 8.81656L29.1909 11.6989C29.3605 11.8685 29.53 12.2076 29.3605 12.3771L28.3432 16.7854C28.0041 18.1418 29.53 19.1591 30.7169 18.4809L34.6165 16.1072C34.786 15.9376 35.1251 15.9376 35.2947 16.1072L39.1943 18.4809C40.3812 19.1591 41.9071 18.1418 41.568 16.7854L40.5507 12.3771C40.5507 12.2076 40.5507 11.8685 40.7203 11.6989L44.2808 8.81656C44.959 7.96882 44.4503 6.27332 42.9244 6.10378Z" fill="white"/>
<path d="M68.1873 6.10378L63.6094 5.76468C63.2703 5.76468 63.1008 5.59513 63.1008 5.25603L61.4053 1.0173C60.8966 -0.339099 59.0316 -0.339099 58.523 1.0173L56.8275 5.25603C56.6579 5.42557 56.4884 5.59513 56.3188 5.76468L51.741 6.10378C50.3846 6.27332 49.8759 7.96882 50.8932 8.81656L54.4538 11.6989C54.6233 11.8685 54.7929 12.2076 54.6233 12.3771L53.606 16.7854C53.2669 18.1418 54.7929 19.1591 55.9797 18.4809L59.8793 16.1072C60.0489 15.9376 60.388 15.9376 60.5575 16.1072L64.4572 18.4809C65.644 19.1591 67.17 18.1418 66.8309 16.7854L65.8136 12.3771C65.8136 12.2076 65.8136 11.8685 65.9831 11.6989L69.5437 8.81656C70.2219 7.96882 69.5437 6.27332 68.1873 6.10378Z" fill="white"/>
<path d="M93.4501 6.10378L88.8723 5.76468C88.5332 5.76468 88.3636 5.59513 88.3636 5.25603L86.6681 1.0173C86.1595 -0.339099 84.2944 -0.339099 83.7858 1.0173L82.0903 5.25603C81.9208 5.42557 81.7512 5.59513 81.5817 5.76468L77.0038 6.10378C75.6474 6.27332 75.1388 7.96882 76.1561 8.81656L79.7166 11.6989C79.8862 11.8685 80.0557 12.2076 79.8862 12.3771L78.8689 16.7854C78.5298 18.1418 80.0557 19.1591 81.2426 18.4809L85.1422 16.1072C85.3117 15.9376 85.6508 15.9376 85.8204 16.1072L89.72 18.4809C90.9069 19.1591 92.4328 18.1418 92.0937 16.7854L91.0764 12.3771C91.0764 12.2076 91.0764 11.8685 91.246 11.6989L94.8065 8.81656C95.3152 7.96882 94.8065 6.27332 93.4501 6.10378Z" fill="white"/>
<path d="M118.543 6.10378L113.965 5.76468C113.626 5.76468 113.457 5.59513 113.457 5.25603L111.761 1.0173C111.252 -0.339099 109.387 -0.339099 108.879 1.0173L107.183 5.25603C107.014 5.42557 106.844 5.59513 106.675 5.76468L102.097 6.10378C100.74 6.27332 100.232 7.96882 101.249 8.81656L104.81 11.6989C104.979 11.8685 105.149 12.2076 104.979 12.3771L103.962 16.7854C103.623 18.1418 105.149 19.1591 106.336 18.4809L110.235 16.1072C110.405 15.9376 110.744 15.9376 110.913 16.1072L114.813 18.4809C116 19.1591 117.526 18.1418 117.187 16.7854L116.169 12.3771C116.169 12.2076 116.169 11.8685 116.339 11.6989L119.899 8.81656C120.408 7.96882 119.899 6.27332 118.543 6.10378Z" fill="white"/>
</svg>
