<svg width="46" height="57" viewBox="0 0 46 57" fill="none" xmlns="http://www.w3.org/2000/svg">
<path d="M41.7607 0.5L41.9414 0.504883C42.8385 0.550424 43.69 0.926292 44.3281 1.56445C45.0089 2.24523 45.3915 3.16908 45.3926 4.13184V51.9355C45.3915 52.8982 45.0087 53.8212 44.3281 54.502C43.69 55.1401 42.8385 55.517 41.9414 55.5625L41.7607 55.5674H14.8604C14.322 55.5665 13.7888 55.4592 13.292 55.252C12.8572 55.0705 12.4577 54.815 12.1104 54.498L11.9648 54.3584L1.68262 43.9824V43.9814C1.3063 43.6038 1.00754 43.1561 0.804688 42.6631C0.601495 42.1691 0.497979 41.6396 0.5 41.1055V4.13184L0.504883 3.95117C0.550408 3.05407 0.926284 2.20263 1.56445 1.56445C2.24524 0.883669 3.16906 0.501098 4.13184 0.5H41.7607ZM4.13184 3.29004C3.90851 3.29008 3.69405 3.37822 3.53613 3.53613C3.37822 3.69405 3.29008 3.90851 3.29004 4.13184V40.4824H11.667L11.8477 40.4863C12.7446 40.5319 13.5953 40.9088 14.2334 41.5469C14.9142 42.2276 15.2977 43.1506 15.2988 44.1133V52.7773H41.7607C41.9841 52.7773 42.1985 52.6882 42.3564 52.5303C42.5142 52.3723 42.6025 52.1578 42.6025 51.9346V4.13184C42.6025 3.90852 42.5143 3.69406 42.3564 3.53613C42.1985 3.37822 41.9841 3.29009 41.7607 3.29004H4.13184ZM12.5088 50.9473V44.1143C12.5088 43.891 12.4205 43.6765 12.2627 43.5186C12.1048 43.3607 11.8903 43.2716 11.667 43.2715H4.90625L12.5088 50.9473Z" fill="#00ADEF" stroke="#00ADEF"/>
<path d="M32.7853 24.679C33.1551 24.679 33.5101 24.8258 33.7716 25.0872C34.0331 25.3487 34.1807 25.7037 34.1808 26.0735C34.1808 26.4434 34.0332 26.7982 33.7716 27.0598C33.5101 27.3214 33.1552 27.469 32.7853 27.469H13.1066C12.7368 27.4689 12.3818 27.3213 12.1203 27.0598C11.8589 26.7983 11.7121 26.4433 11.7121 26.0735C11.7122 25.7037 11.8588 25.3487 12.1203 25.0872C12.3818 24.8256 12.7368 24.679 13.1066 24.679H32.7853Z" fill="#00ADEF" stroke="#00ADEF"/>
<path d="M32.7853 17.0638C33.1551 17.0638 33.5101 17.2107 33.7716 17.472C34.0331 17.7336 34.1807 18.0886 34.1808 18.4584C34.1808 18.8283 34.0332 19.1831 33.7716 19.4447C33.5101 19.7063 33.1552 19.8539 32.7853 19.8539H13.1066C12.7368 19.8538 12.3818 19.7062 12.1203 19.4447C11.8589 19.1831 11.7121 18.8282 11.7121 18.4584C11.7122 18.0885 11.8588 17.7336 12.1203 17.472C12.3818 17.2105 12.7368 17.0639 13.1066 17.0638H32.7853Z" fill="#00ADEF" stroke="#00ADEF"/>
<path d="M32.7853 9.44995C33.1551 9.44995 33.5101 9.59676 33.7716 9.85815C34.0331 10.1197 34.1807 10.4747 34.1808 10.8445C34.1808 11.2144 34.0332 11.5692 33.7716 11.8308C33.5101 12.0924 33.1552 12.24 32.7853 12.24H13.1066C12.7368 12.2399 12.3818 12.0923 12.1203 11.8308C11.8589 11.5693 11.7121 11.2143 11.7121 10.8445C11.7122 10.4747 11.8588 10.1197 12.1203 9.85815C12.3818 9.59665 12.7368 9.45004 13.1066 9.44995H32.7853Z" fill="#00ADEF" stroke="#00ADEF"/>
<path d="M34.2549 49.6964H32.7051C32.4781 49.6964 32.2534 49.6518 32.0437 49.565C31.834 49.4782 31.6434 49.3509 31.4829 49.1904C31.3224 49.03 31.1951 48.8395 31.1082 48.6298C31.0214 48.4201 30.9767 48.1954 30.9767 47.9684V46.3778C30.9767 46.3185 30.9531 46.2616 30.9111 46.2196C30.8692 46.1777 30.8123 46.1541 30.7529 46.1541H29.1655C28.7072 46.1541 28.2676 45.9721 27.9435 45.648C27.6193 45.324 27.4372 44.8845 27.4371 44.4262V42.8767C27.4371 42.6498 27.4818 42.425 27.5686 42.2154C27.6555 42.0057 27.7828 41.8152 27.9433 41.6547C28.1038 41.4942 28.2944 41.367 28.5041 41.2802C28.7138 41.1933 28.9385 41.1487 29.1655 41.1488H30.7552C30.8145 41.1488 30.8714 41.1252 30.9134 41.0832C30.9553 41.0413 30.9789 40.9844 30.9789 40.925V39.3349C30.9795 38.8772 31.1615 38.4385 31.4851 38.1148C31.8087 37.7911 32.2474 37.609 32.7051 37.6083H34.2549C34.7133 37.6084 35.1528 37.7905 35.4768 38.1147C35.8009 38.4388 35.9829 38.8784 35.9829 39.3367V40.9268C35.9829 40.9862 36.0065 41.0431 36.0484 41.085C36.0904 41.127 36.1473 41.1505 36.2066 41.1505H37.7968C38.2551 41.1505 38.6946 41.3326 39.0186 41.6567C39.3427 41.9807 39.5247 42.4202 39.5247 42.8785V44.4284C39.5247 44.8867 39.3427 45.3262 39.0186 45.6502C38.6946 45.9743 38.2551 46.1563 37.7968 46.1563H36.2066C36.1473 46.1563 36.0904 46.1799 36.0484 46.2219C36.0065 46.2638 35.9829 46.3207 35.9829 46.3801V47.9702C35.9824 48.4282 35.8002 48.8672 35.4762 49.1909C35.1522 49.5146 34.7129 49.6964 34.2549 49.6964ZM32.7664 47.9067H34.1932V45.6767C34.1936 45.3289 34.3319 44.9954 34.5778 44.7495C34.8238 44.5035 35.1572 44.3652 35.5051 44.3649H37.735V42.9385H35.5051C35.1572 42.9381 34.8238 42.7998 34.5778 42.5538C34.3319 42.3079 34.1936 41.9744 34.1932 41.6266V39.398H32.7664V41.6284C32.766 41.9761 32.6277 42.3095 32.3819 42.5555C32.136 42.8014 31.8027 42.9398 31.455 42.9403H29.2245V44.3644H31.455C31.8027 44.3649 32.136 44.5033 32.3819 44.7492C32.6277 44.9951 32.766 45.3285 32.7664 45.6763V47.9067Z" fill="#00ADEF"/>
</svg>
