<svg width="32" height="32" viewBox="0 0 32 32" fill="none" xmlns="http://www.w3.org/2000/svg">
<path d="M23.0196 16.873C22.3111 17.5816 18.8612 21.0316 18.0922 21.8006C17.604 22.2888 16.8124 22.2887 16.3244 21.8006C15.8362 21.3124 15.8362 20.5209 16.3244 20.0328L19.1073 17.25H9.83331C9.14294 17.25 8.58331 16.6904 8.58331 16C8.58331 15.3096 9.14294 14.75 9.83331 14.75H19.1073L16.3244 11.9672C15.8363 11.4791 15.8363 10.6876 16.3244 10.1994C16.8126 9.71131 17.6041 9.71125 18.0923 10.1994C18.7718 10.8791 22.3538 14.4611 23.0186 15.1259C23.4961 15.6148 23.4916 16.3898 23.0196 16.873ZM32 9.27325V22.7267C32 27.0005 29.1018 29.1709 28.9139 29.4372C27.2614 31.0899 25.064 32 22.7267 32H9.27325C6.936 32 4.73863 31.0898 3.08606 29.4371C2.90031 29.1739 0 27.0009 0 22.7267V9.27325C0 4.9995 2.89819 2.82913 3.08612 2.56281C4.73863 0.910188 6.936 0 9.27325 0H22.7267C25.064 0 27.2614 0.910187 28.9139 2.56288C29.0997 2.82613 32 4.99906 32 9.27325ZM29.5 9.27325C29.5 6.14144 27.3362 4.59494 27.1461 4.33063C25.9657 3.15013 24.3962 2.5 22.7267 2.5H9.27325C7.60381 2.5 6.03431 3.15006 4.85388 4.33056C4.65694 4.60444 2.5 6.12481 2.5 9.27325V22.7267C2.5 25.8586 4.66381 27.4051 4.85388 27.6694C6.03431 28.8499 7.60381 29.5 9.27325 29.5H22.7267C24.3962 29.5 25.9657 28.8499 27.1461 27.6694C27.3431 27.3956 29.5 25.8752 29.5 22.7267V9.27325Z" fill="white"/>
</svg>
