<svg width="10" height="10" viewBox="0 0 10 10" fill="none" xmlns="http://www.w3.org/2000/svg">
<path d="M0.458984 3.10597H8.92957M6.81192 0.458908V1.51773M2.57663 0.458908V1.51773M0.458984 0.98832H8.92957V8.40009C8.92957 8.6809 8.81802 8.95022 8.61945 9.14879C8.42088 9.34735 8.15157 9.45891 7.87075 9.45891H1.51781C1.23699 9.45891 0.967674 9.34735 0.769107 9.14879C0.570539 8.95022 0.458984 8.6809 0.458984 8.40009V0.98832Z" stroke="#00A1DF" stroke-width="0.917802" stroke-linecap="round" stroke-linejoin="round"/>
<path d="M4.2642 5.40137V5.84977H3.78591H3.30762V6.32806V6.80635H3.79188H4.27615L4.25224 7.25474L4.2343 7.70314H4.70063H5.16099V7.25474V6.80635H5.63928H6.11757V6.32806V5.84977H5.63928H5.16099V5.40137V4.95298H4.71259H4.2642V5.40137Z" fill="#00A1DF"/>
</svg>
