<svg width="41" height="41" viewBox="0 0 41 41" fill="none" xmlns="http://www.w3.org/2000/svg">
<rect width="41" height="41" rx="12" fill="#00ADEF"/>
<path d="M36.4614 9.87964C36.5899 9.96963 36.7455 9.95994 36.8647 9.89331C36.9839 9.82661 37.0757 9.69878 37.0757 9.54175C37.0757 9.4915 37.0618 9.43524 37.0405 9.37769C37.0189 9.31929 36.9877 9.25472 36.9497 9.18628C36.8733 9.04908 36.7654 8.89117 36.6391 8.72827C36.3868 8.4027 36.0548 8.0499 35.7348 7.78979C35.0958 7.27036 34.2631 6.875 33.4272 6.69409C33.1741 6.63861 32.7913 6.60779 32.4116 6.60229C32.127 6.59819 31.8394 6.60773 31.604 6.63257L31.3872 6.66284C29.8681 6.93938 28.4789 7.89149 27.7065 9.19019C27.648 9.28882 27.6101 9.35846 27.5903 9.41772C27.5687 9.48255 27.5686 9.53348 27.5786 9.59155L27.5796 9.59253C27.6047 9.72859 27.6985 9.83472 27.81 9.89233C27.9214 9.94976 28.061 9.96394 28.1801 9.90112H28.1811C28.1944 9.89391 28.206 9.8835 28.2143 9.87573C28.2236 9.86707 28.2335 9.85672 28.2436 9.84546C28.2641 9.82271 28.2889 9.79312 28.3149 9.75952C28.3671 9.6922 28.4294 9.60438 28.4907 9.51245L28.6919 9.22925C29.1707 8.59547 29.7282 8.15474 30.4829 7.80933C31.5082 7.33967 32.8971 7.29694 33.9282 7.69995C34.8504 8.06486 35.6196 8.67745 36.1528 9.48218C36.2143 9.57446 36.2788 9.66353 36.3325 9.73315C36.3593 9.76792 36.3831 9.79915 36.4038 9.823C36.4225 9.84457 36.4432 9.86609 36.4604 9.87866L36.4614 9.87964Z" fill="white" stroke="white" stroke-width="0.150949"/>
<path d="M28.8754 10.8188C28.9182 10.8188 28.9608 10.8154 29.0034 10.8003C29.0465 10.785 29.0852 10.7602 29.1235 10.7241C29.1965 10.6554 29.2789 10.5369 29.4037 10.3472C29.5934 10.0595 29.9531 9.69289 30.2524 9.479C30.538 9.27544 31.0991 9.01294 31.4164 8.93115C32.3074 8.70354 33.1772 8.80283 34.0024 9.23193C34.4958 9.48856 35.0142 9.96098 35.31 10.4243C35.353 10.4931 35.4008 10.5618 35.4428 10.6177C35.4639 10.6457 35.4844 10.6712 35.5024 10.6919C35.518 10.7099 35.5344 10.7281 35.5502 10.7407L35.6088 10.7798C35.6704 10.8114 35.7416 10.8224 35.81 10.8179C35.9016 10.8118 35.9959 10.777 36.0698 10.7134H36.0688C36.1145 10.6763 36.1519 10.64 36.1743 10.5903C36.1964 10.5412 36.1996 10.4877 36.1996 10.4272C36.1996 10.3275 36.1476 10.2012 36.0727 10.0708C35.9957 9.93676 35.8875 9.78555 35.7612 9.63232C35.5088 9.32621 35.1778 9.00516 34.8647 8.78662C34.3816 8.44745 33.7491 8.17326 33.1762 8.06006C33.0437 8.03361 32.7741 8.01058 32.5141 7.99756C32.2549 7.98459 31.9921 7.98127 31.8735 7.99561C31.3359 8.06066 30.6702 8.27224 30.2338 8.50928H30.2328C29.6433 8.83257 29.0251 9.40112 28.6713 9.9292L28.5366 10.1528C28.4864 10.248 28.4518 10.3235 28.4448 10.396C28.4372 10.4737 28.4618 10.5381 28.4995 10.6099C28.5358 10.6805 28.5807 10.737 28.6469 10.7729C28.7116 10.808 28.7876 10.8188 28.8754 10.8188Z" fill="white" stroke="white" stroke-width="0.150949"/>
<mask id="path-4-outside-1_185_1071" maskUnits="userSpaceOnUse" x="6" y="8.42212" width="30" height="25" fill="black">
<rect fill="white" x="6" y="8.42212" width="30" height="25"/>
<path d="M31.6803 9.51129C30.1786 9.82777 29.0709 11.1409 29.0507 12.6257C29.0474 12.8614 29.0575 12.9455 29.1181 13.0566C29.2696 13.3597 29.5288 13.5044 30.0574 13.5953L30.4009 13.656V14.0196C30.4009 14.3967 30.4345 14.5381 30.5692 14.7064C30.6332 14.7906 30.6365 14.8377 30.6365 16.2384C30.6365 17.868 30.6332 17.8444 30.8823 18.0094C31.0103 18.0969 31.0439 18.1003 31.5018 18.1104L31.9867 18.1205L31.9766 22.2348L31.9665 26.3492L31.8756 26.659C31.5254 27.8475 30.613 28.7431 29.4245 29.0629C29.1618 29.1336 29.0507 29.1404 28.0205 29.1538L26.906 29.1673L26.8925 28.3963C26.8824 27.7128 26.8723 27.6084 26.8084 27.4535C26.6367 27.0293 26.2831 26.7196 25.8589 26.6219C25.6602 26.5781 25.3539 26.568 23.9566 26.568H22.2866V26.1842C22.2866 25.9048 22.2698 25.7465 22.226 25.5984C22.1082 25.2246 21.8388 24.9284 21.4785 24.7802C21.3035 24.7061 21.2361 24.6994 20.3675 24.6826L19.4449 24.6657L19.381 24.4637C19.2934 24.191 19.2901 23.7533 19.3776 23.5042L19.4416 23.319L22.5055 23.3021C25.5626 23.2853 25.5693 23.2853 25.7646 23.2112C26.337 22.9958 26.7444 22.5614 26.9127 21.9924C26.9599 21.8274 26.9666 21.2517 26.9666 16.4C26.9666 11.5213 26.9599 10.9725 26.9127 10.8075C26.7343 10.2049 26.2831 9.74697 25.6906 9.56516C25.4818 9.49782 25.3303 9.49782 17.0039 9.49782C7.7786 9.49782 8.39474 9.48435 7.98061 9.68637C7.69442 9.82441 7.3308 10.2049 7.18939 10.5146C7.12542 10.6493 7.05808 10.8513 7.03788 10.9591C6.98737 11.2385 6.98737 21.5581 7.03788 21.8409C7.09848 22.1776 7.28366 22.5143 7.55301 22.7803C7.68769 22.9149 7.87287 23.0564 7.97725 23.1069C8.38464 23.3089 8.29037 23.3021 11.5529 23.3021H14.5394L14.6134 23.5412C14.6976 23.824 14.6909 24.1809 14.5932 24.4873L14.5326 24.6792L13.6033 24.6893C12.6741 24.6994 12.6741 24.6994 12.4788 24.7903C12.2263 24.9082 11.9502 25.1741 11.8324 25.4132C11.7414 25.5916 11.7313 25.6455 11.7145 26.0798L11.6977 26.5512L9.93005 26.568C8.34761 26.5849 8.14559 26.5916 8.01091 26.6455C7.63382 26.7936 7.38467 27.0226 7.21296 27.3727L7.11868 27.5613V29.4973V31.4332L7.22979 31.6588C7.36783 31.9416 7.66076 32.2211 7.93348 32.3322L8.12876 32.4096L16.8827 32.4197C23.492 32.4265 25.6805 32.4197 25.8219 32.3894C26.3303 32.2817 26.7175 31.9147 26.8521 31.4029C26.8858 31.2851 26.8993 31.0157 26.8993 30.5309V29.8339H27.9396C29.0676 29.8339 29.347 29.807 29.8453 29.642C31.1685 29.2111 32.1617 28.1606 32.5456 26.7869L32.6399 26.4502L32.6567 22.2921L32.6735 18.1339L33.1617 18.1171C33.6735 18.0969 33.7274 18.0834 33.8721 17.9252C34.0304 17.7535 34.0371 17.6929 34.0371 16.1912V14.7805L34.1314 14.6593C34.2156 14.5448 34.2223 14.5111 34.2391 14.097L34.256 13.656L34.5927 13.5987C35.0438 13.5213 35.2021 13.4539 35.3839 13.2721C35.6263 13.0297 35.6701 12.7637 35.5691 12.1812C35.3536 10.9456 34.458 9.94225 33.2425 9.57862C32.9866 9.50118 32.8688 9.48772 32.421 9.47762C32.0675 9.47088 31.8284 9.48098 31.6803 9.51129ZM32.8621 10.1847C33.7543 10.3732 34.5085 11.0466 34.7947 11.8984C34.8418 12.0432 34.899 12.289 34.9192 12.4472C34.9698 12.8378 34.9664 12.8412 34.3401 12.9455C33.3604 13.1105 32.5018 13.161 31.6298 13.1038C30.9968 13.06 30.0137 12.9186 29.8318 12.8445L29.7174 12.7974L29.7376 12.5179C29.8184 11.3799 30.7039 10.4035 31.8655 10.1712C32.0877 10.1274 32.623 10.1342 32.8621 10.1847ZM25.566 10.2419C25.8118 10.3328 26.0643 10.5651 26.1821 10.8042L26.2764 10.9961V16.4V21.8039L26.2023 21.9621C26.1013 22.1843 25.8926 22.3964 25.6636 22.5143L25.4683 22.6119H17.0006H8.53279L8.34087 22.521C8.09172 22.4032 7.86614 22.1742 7.7685 21.9284L7.69106 21.7365L7.68096 16.5178C7.67422 12.7065 7.68096 11.2452 7.70789 11.0971C7.79207 10.656 8.04122 10.3732 8.47555 10.2183C8.57655 10.1813 10.1758 10.1746 16.9905 10.1712C25.3741 10.1712 25.3808 10.1712 25.566 10.2419ZM32.32 13.7906C32.8116 13.7906 33.293 13.7772 33.3907 13.7637L33.5658 13.7368V13.9758V14.2115H32.32H31.0742V13.9758V13.7368L31.2527 13.7637C31.347 13.7772 31.8284 13.7906 32.32 13.7906ZM33.357 16.1542L33.3469 17.4269L32.3301 17.437L31.3099 17.4437V16.1643V14.8849H32.3368H33.3637L33.357 16.1542ZM18.7042 23.3594C18.6099 23.6624 18.5965 24.053 18.6672 24.3964C18.6941 24.5243 18.7177 24.6422 18.7177 24.6556C18.7177 24.6725 17.9366 24.6826 16.9804 24.6826C15.344 24.6826 15.2464 24.6792 15.2632 24.622C15.3407 24.356 15.3575 24.2078 15.3407 23.8644C15.3306 23.659 15.3104 23.4469 15.2969 23.3931L15.2767 23.3021H17.0006C18.6234 23.3021 18.7211 23.3055 18.7042 23.3594ZM21.2025 25.4065C21.5089 25.5378 21.6099 25.7398 21.6132 26.2213V26.568H17.0006H12.3879V26.1977C12.3879 25.8913 12.4014 25.8004 12.4552 25.6926C12.5259 25.5546 12.6707 25.4334 12.8189 25.3896C12.8694 25.3728 14.7481 25.3593 16.9938 25.3593C20.6065 25.356 21.0914 25.3627 21.2025 25.4065ZM25.8555 27.3424C26.0205 27.4266 26.1417 27.5849 26.1922 27.7801C26.2192 27.8845 26.2259 28.4434 26.2192 29.5983C26.2091 31.0898 26.2023 31.275 26.1518 31.3693C26.0575 31.5443 25.8757 31.6756 25.6805 31.7194C25.5491 31.7464 23.2428 31.7531 16.8827 31.7464L8.26343 31.7363L8.12202 31.6588C8.04122 31.6184 7.93684 31.5208 7.88634 31.4433L7.79207 31.3019L7.78196 29.568C7.77523 28.4434 7.78533 27.7869 7.80553 27.7128C7.84594 27.5714 8.01765 27.3862 8.16243 27.3222C8.2466 27.2852 9.85598 27.2785 16.9938 27.2751C25.6434 27.2751 25.7242 27.2751 25.8555 27.3424Z"/>
</mask>
<path d="M31.6803 9.51129C30.1786 9.82777 29.0709 11.1409 29.0507 12.6257C29.0474 12.8614 29.0575 12.9455 29.1181 13.0566C29.2696 13.3597 29.5288 13.5044 30.0574 13.5953L30.4009 13.656V14.0196C30.4009 14.3967 30.4345 14.5381 30.5692 14.7064C30.6332 14.7906 30.6365 14.8377 30.6365 16.2384C30.6365 17.868 30.6332 17.8444 30.8823 18.0094C31.0103 18.0969 31.0439 18.1003 31.5018 18.1104L31.9867 18.1205L31.9766 22.2348L31.9665 26.3492L31.8756 26.659C31.5254 27.8475 30.613 28.7431 29.4245 29.0629C29.1618 29.1336 29.0507 29.1404 28.0205 29.1538L26.906 29.1673L26.8925 28.3963C26.8824 27.7128 26.8723 27.6084 26.8084 27.4535C26.6367 27.0293 26.2831 26.7196 25.8589 26.6219C25.6602 26.5781 25.3539 26.568 23.9566 26.568H22.2866V26.1842C22.2866 25.9048 22.2698 25.7465 22.226 25.5984C22.1082 25.2246 21.8388 24.9284 21.4785 24.7802C21.3035 24.7061 21.2361 24.6994 20.3675 24.6826L19.4449 24.6657L19.381 24.4637C19.2934 24.191 19.2901 23.7533 19.3776 23.5042L19.4416 23.319L22.5055 23.3021C25.5626 23.2853 25.5693 23.2853 25.7646 23.2112C26.337 22.9958 26.7444 22.5614 26.9127 21.9924C26.9599 21.8274 26.9666 21.2517 26.9666 16.4C26.9666 11.5213 26.9599 10.9725 26.9127 10.8075C26.7343 10.2049 26.2831 9.74697 25.6906 9.56516C25.4818 9.49782 25.3303 9.49782 17.0039 9.49782C7.7786 9.49782 8.39474 9.48435 7.98061 9.68637C7.69442 9.82441 7.3308 10.2049 7.18939 10.5146C7.12542 10.6493 7.05808 10.8513 7.03788 10.9591C6.98737 11.2385 6.98737 21.5581 7.03788 21.8409C7.09848 22.1776 7.28366 22.5143 7.55301 22.7803C7.68769 22.9149 7.87287 23.0564 7.97725 23.1069C8.38464 23.3089 8.29037 23.3021 11.5529 23.3021H14.5394L14.6134 23.5412C14.6976 23.824 14.6909 24.1809 14.5932 24.4873L14.5326 24.6792L13.6033 24.6893C12.6741 24.6994 12.6741 24.6994 12.4788 24.7903C12.2263 24.9082 11.9502 25.1741 11.8324 25.4132C11.7414 25.5916 11.7313 25.6455 11.7145 26.0798L11.6977 26.5512L9.93005 26.568C8.34761 26.5849 8.14559 26.5916 8.01091 26.6455C7.63382 26.7936 7.38467 27.0226 7.21296 27.3727L7.11868 27.5613V29.4973V31.4332L7.22979 31.6588C7.36783 31.9416 7.66076 32.2211 7.93348 32.3322L8.12876 32.4096L16.8827 32.4197C23.492 32.4265 25.6805 32.4197 25.8219 32.3894C26.3303 32.2817 26.7175 31.9147 26.8521 31.4029C26.8858 31.2851 26.8993 31.0157 26.8993 30.5309V29.8339H27.9396C29.0676 29.8339 29.347 29.807 29.8453 29.642C31.1685 29.2111 32.1617 28.1606 32.5456 26.7869L32.6399 26.4502L32.6567 22.2921L32.6735 18.1339L33.1617 18.1171C33.6735 18.0969 33.7274 18.0834 33.8721 17.9252C34.0304 17.7535 34.0371 17.6929 34.0371 16.1912V14.7805L34.1314 14.6593C34.2156 14.5448 34.2223 14.5111 34.2391 14.097L34.256 13.656L34.5927 13.5987C35.0438 13.5213 35.2021 13.4539 35.3839 13.2721C35.6263 13.0297 35.6701 12.7637 35.5691 12.1812C35.3536 10.9456 34.458 9.94225 33.2425 9.57862C32.9866 9.50118 32.8688 9.48772 32.421 9.47762C32.0675 9.47088 31.8284 9.48098 31.6803 9.51129ZM32.8621 10.1847C33.7543 10.3732 34.5085 11.0466 34.7947 11.8984C34.8418 12.0432 34.899 12.289 34.9192 12.4472C34.9698 12.8378 34.9664 12.8412 34.3401 12.9455C33.3604 13.1105 32.5018 13.161 31.6298 13.1038C30.9968 13.06 30.0137 12.9186 29.8318 12.8445L29.7174 12.7974L29.7376 12.5179C29.8184 11.3799 30.7039 10.4035 31.8655 10.1712C32.0877 10.1274 32.623 10.1342 32.8621 10.1847ZM25.566 10.2419C25.8118 10.3328 26.0643 10.5651 26.1821 10.8042L26.2764 10.9961V16.4V21.8039L26.2023 21.9621C26.1013 22.1843 25.8926 22.3964 25.6636 22.5143L25.4683 22.6119H17.0006H8.53279L8.34087 22.521C8.09172 22.4032 7.86614 22.1742 7.7685 21.9284L7.69106 21.7365L7.68096 16.5178C7.67422 12.7065 7.68096 11.2452 7.70789 11.0971C7.79207 10.656 8.04122 10.3732 8.47555 10.2183C8.57655 10.1813 10.1758 10.1746 16.9905 10.1712C25.3741 10.1712 25.3808 10.1712 25.566 10.2419ZM32.32 13.7906C32.8116 13.7906 33.293 13.7772 33.3907 13.7637L33.5658 13.7368V13.9758V14.2115H32.32H31.0742V13.9758V13.7368L31.2527 13.7637C31.347 13.7772 31.8284 13.7906 32.32 13.7906ZM33.357 16.1542L33.3469 17.4269L32.3301 17.437L31.3099 17.4437V16.1643V14.8849H32.3368H33.3637L33.357 16.1542ZM18.7042 23.3594C18.6099 23.6624 18.5965 24.053 18.6672 24.3964C18.6941 24.5243 18.7177 24.6422 18.7177 24.6556C18.7177 24.6725 17.9366 24.6826 16.9804 24.6826C15.344 24.6826 15.2464 24.6792 15.2632 24.622C15.3407 24.356 15.3575 24.2078 15.3407 23.8644C15.3306 23.659 15.3104 23.4469 15.2969 23.3931L15.2767 23.3021H17.0006C18.6234 23.3021 18.7211 23.3055 18.7042 23.3594ZM21.2025 25.4065C21.5089 25.5378 21.6099 25.7398 21.6132 26.2213V26.568H17.0006H12.3879V26.1977C12.3879 25.8913 12.4014 25.8004 12.4552 25.6926C12.5259 25.5546 12.6707 25.4334 12.8189 25.3896C12.8694 25.3728 14.7481 25.3593 16.9938 25.3593C20.6065 25.356 21.0914 25.3627 21.2025 25.4065ZM25.8555 27.3424C26.0205 27.4266 26.1417 27.5849 26.1922 27.7801C26.2192 27.8845 26.2259 28.4434 26.2192 29.5983C26.2091 31.0898 26.2023 31.275 26.1518 31.3693C26.0575 31.5443 25.8757 31.6756 25.6805 31.7194C25.5491 31.7464 23.2428 31.7531 16.8827 31.7464L8.26343 31.7363L8.12202 31.6588C8.04122 31.6184 7.93684 31.5208 7.88634 31.4433L7.79207 31.3019L7.78196 29.568C7.77523 28.4434 7.78533 27.7869 7.80553 27.7128C7.84594 27.5714 8.01765 27.3862 8.16243 27.3222C8.2466 27.2852 9.85598 27.2785 16.9938 27.2751C25.6434 27.2751 25.7242 27.2751 25.8555 27.3424Z" fill="white"/>
<path d="M31.6803 9.51129C30.1786 9.82777 29.0709 11.1409 29.0507 12.6257C29.0474 12.8614 29.0575 12.9455 29.1181 13.0566C29.2696 13.3597 29.5288 13.5044 30.0574 13.5953L30.4009 13.656V14.0196C30.4009 14.3967 30.4345 14.5381 30.5692 14.7064C30.6332 14.7906 30.6365 14.8377 30.6365 16.2384C30.6365 17.868 30.6332 17.8444 30.8823 18.0094C31.0103 18.0969 31.0439 18.1003 31.5018 18.1104L31.9867 18.1205L31.9766 22.2348L31.9665 26.3492L31.8756 26.659C31.5254 27.8475 30.613 28.7431 29.4245 29.0629C29.1618 29.1336 29.0507 29.1404 28.0205 29.1538L26.906 29.1673L26.8925 28.3963C26.8824 27.7128 26.8723 27.6084 26.8084 27.4535C26.6367 27.0293 26.2831 26.7196 25.8589 26.6219C25.6602 26.5781 25.3539 26.568 23.9566 26.568H22.2866V26.1842C22.2866 25.9048 22.2698 25.7465 22.226 25.5984C22.1082 25.2246 21.8388 24.9284 21.4785 24.7802C21.3035 24.7061 21.2361 24.6994 20.3675 24.6826L19.4449 24.6657L19.381 24.4637C19.2934 24.191 19.2901 23.7533 19.3776 23.5042L19.4416 23.319L22.5055 23.3021C25.5626 23.2853 25.5693 23.2853 25.7646 23.2112C26.337 22.9958 26.7444 22.5614 26.9127 21.9924C26.9599 21.8274 26.9666 21.2517 26.9666 16.4C26.9666 11.5213 26.9599 10.9725 26.9127 10.8075C26.7343 10.2049 26.2831 9.74697 25.6906 9.56516C25.4818 9.49782 25.3303 9.49782 17.0039 9.49782C7.7786 9.49782 8.39474 9.48435 7.98061 9.68637C7.69442 9.82441 7.3308 10.2049 7.18939 10.5146C7.12542 10.6493 7.05808 10.8513 7.03788 10.9591C6.98737 11.2385 6.98737 21.5581 7.03788 21.8409C7.09848 22.1776 7.28366 22.5143 7.55301 22.7803C7.68769 22.9149 7.87287 23.0564 7.97725 23.1069C8.38464 23.3089 8.29037 23.3021 11.5529 23.3021H14.5394L14.6134 23.5412C14.6976 23.824 14.6909 24.1809 14.5932 24.4873L14.5326 24.6792L13.6033 24.6893C12.6741 24.6994 12.6741 24.6994 12.4788 24.7903C12.2263 24.9082 11.9502 25.1741 11.8324 25.4132C11.7414 25.5916 11.7313 25.6455 11.7145 26.0798L11.6977 26.5512L9.93005 26.568C8.34761 26.5849 8.14559 26.5916 8.01091 26.6455C7.63382 26.7936 7.38467 27.0226 7.21296 27.3727L7.11868 27.5613V29.4973V31.4332L7.22979 31.6588C7.36783 31.9416 7.66076 32.2211 7.93348 32.3322L8.12876 32.4096L16.8827 32.4197C23.492 32.4265 25.6805 32.4197 25.8219 32.3894C26.3303 32.2817 26.7175 31.9147 26.8521 31.4029C26.8858 31.2851 26.8993 31.0157 26.8993 30.5309V29.8339H27.9396C29.0676 29.8339 29.347 29.807 29.8453 29.642C31.1685 29.2111 32.1617 28.1606 32.5456 26.7869L32.6399 26.4502L32.6567 22.2921L32.6735 18.1339L33.1617 18.1171C33.6735 18.0969 33.7274 18.0834 33.8721 17.9252C34.0304 17.7535 34.0371 17.6929 34.0371 16.1912V14.7805L34.1314 14.6593C34.2156 14.5448 34.2223 14.5111 34.2391 14.097L34.256 13.656L34.5927 13.5987C35.0438 13.5213 35.2021 13.4539 35.3839 13.2721C35.6263 13.0297 35.6701 12.7637 35.5691 12.1812C35.3536 10.9456 34.458 9.94225 33.2425 9.57862C32.9866 9.50118 32.8688 9.48772 32.421 9.47762C32.0675 9.47088 31.8284 9.48098 31.6803 9.51129ZM32.8621 10.1847C33.7543 10.3732 34.5085 11.0466 34.7947 11.8984C34.8418 12.0432 34.899 12.289 34.9192 12.4472C34.9698 12.8378 34.9664 12.8412 34.3401 12.9455C33.3604 13.1105 32.5018 13.161 31.6298 13.1038C30.9968 13.06 30.0137 12.9186 29.8318 12.8445L29.7174 12.7974L29.7376 12.5179C29.8184 11.3799 30.7039 10.4035 31.8655 10.1712C32.0877 10.1274 32.623 10.1342 32.8621 10.1847ZM25.566 10.2419C25.8118 10.3328 26.0643 10.5651 26.1821 10.8042L26.2764 10.9961V16.4V21.8039L26.2023 21.9621C26.1013 22.1843 25.8926 22.3964 25.6636 22.5143L25.4683 22.6119H17.0006H8.53279L8.34087 22.521C8.09172 22.4032 7.86614 22.1742 7.7685 21.9284L7.69106 21.7365L7.68096 16.5178C7.67422 12.7065 7.68096 11.2452 7.70789 11.0971C7.79207 10.656 8.04122 10.3732 8.47555 10.2183C8.57655 10.1813 10.1758 10.1746 16.9905 10.1712C25.3741 10.1712 25.3808 10.1712 25.566 10.2419ZM32.32 13.7906C32.8116 13.7906 33.293 13.7772 33.3907 13.7637L33.5658 13.7368V13.9758V14.2115H32.32H31.0742V13.9758V13.7368L31.2527 13.7637C31.347 13.7772 31.8284 13.7906 32.32 13.7906ZM33.357 16.1542L33.3469 17.4269L32.3301 17.437L31.3099 17.4437V16.1643V14.8849H32.3368H33.3637L33.357 16.1542ZM18.7042 23.3594C18.6099 23.6624 18.5965 24.053 18.6672 24.3964C18.6941 24.5243 18.7177 24.6422 18.7177 24.6556C18.7177 24.6725 17.9366 24.6826 16.9804 24.6826C15.344 24.6826 15.2464 24.6792 15.2632 24.622C15.3407 24.356 15.3575 24.2078 15.3407 23.8644C15.3306 23.659 15.3104 23.4469 15.2969 23.3931L15.2767 23.3021H17.0006C18.6234 23.3021 18.7211 23.3055 18.7042 23.3594ZM21.2025 25.4065C21.5089 25.5378 21.6099 25.7398 21.6132 26.2213V26.568H17.0006H12.3879V26.1977C12.3879 25.8913 12.4014 25.8004 12.4552 25.6926C12.5259 25.5546 12.6707 25.4334 12.8189 25.3896C12.8694 25.3728 14.7481 25.3593 16.9938 25.3593C20.6065 25.356 21.0914 25.3627 21.2025 25.4065ZM25.8555 27.3424C26.0205 27.4266 26.1417 27.5849 26.1922 27.7801C26.2192 27.8845 26.2259 28.4434 26.2192 29.5983C26.2091 31.0898 26.2023 31.275 26.1518 31.3693C26.0575 31.5443 25.8757 31.6756 25.6805 31.7194C25.5491 31.7464 23.2428 31.7531 16.8827 31.7464L8.26343 31.7363L8.12202 31.6588C8.04122 31.6184 7.93684 31.5208 7.88634 31.4433L7.79207 31.3019L7.78196 29.568C7.77523 28.4434 7.78533 27.7869 7.80553 27.7128C7.84594 27.5714 8.01765 27.3862 8.16243 27.3222C8.2466 27.2852 9.85598 27.2785 16.9938 27.2751C25.6434 27.2751 25.7242 27.2751 25.8555 27.3424Z" stroke="white" stroke-width="0.301899" mask="url(#path-4-outside-1_185_1071)"/>
<path d="M16.9401 21.0312L9.89813 21.0225L9.76239 20.9531C9.5639 20.8491 9.4355 20.7153 9.35223 20.5303L9.28192 20.374V12.4268L9.35223 12.2734C9.44851 12.0673 9.58569 11.9241 9.76923 11.8379L9.85126 11.8047L9.85223 11.8037C9.84893 11.805 9.85192 11.8038 9.86884 11.8018C9.88376 11.7999 9.90556 11.7977 9.93427 11.7959C9.99154 11.7923 10.0757 11.7891 10.1921 11.7861C10.4251 11.7803 10.7861 11.7758 11.322 11.7725C12.3945 11.7657 14.1658 11.7634 17.0075 11.7617H24.0456L24.2419 11.8613C24.4539 11.9739 24.6137 12.1664 24.6716 12.373C24.6719 12.3757 24.6719 12.381 24.6725 12.3896C24.6737 12.4037 24.6753 12.4232 24.6765 12.4482C24.6787 12.4987 24.6803 12.5704 24.6823 12.6621C24.6864 12.8454 24.6901 13.1094 24.6931 13.4521C24.6989 14.1378 24.7028 15.1375 24.7028 16.4336V20.3721L24.6286 20.5293V20.5303C24.5358 20.7311 24.3555 20.8985 24.152 20.9756C24.0787 21.0033 24.0342 21.0217 23.114 21.0293C22.2011 21.0369 20.4365 21.0346 16.9401 21.0312ZM25.5202 16.4746C25.5236 14.6281 25.5246 13.5897 25.5182 12.9932C25.5151 12.6954 25.51 12.5063 25.5026 12.3809C25.4954 12.258 25.4844 12.1916 25.4694 12.1416L25.4704 12.1406C25.3219 11.6174 24.9024 11.1877 24.3747 11.0117V11.0127L24.1657 10.9414L24.154 10.9375H24.1413L16.9772 10.9404H9.79852L9.78583 10.9453L9.57001 11.0264V11.0273C9.00877 11.2346 8.59601 11.7014 8.47919 12.2695L8.47333 12.3242C8.47178 12.3466 8.46984 12.3755 8.46844 12.4102C8.46563 12.4802 8.46305 12.5765 8.46063 12.6934C8.4558 12.9272 8.45223 13.2488 8.44891 13.6279C8.44229 14.3866 8.43859 15.3785 8.43817 16.3711C8.43775 17.3639 8.43999 18.358 8.44598 19.1201C8.44898 19.5012 8.45305 19.8251 8.4577 20.0615C8.46003 20.1795 8.46275 20.2762 8.46552 20.3477C8.46813 20.4154 8.47083 20.4676 8.47528 20.4912L8.50262 20.6064C8.53645 20.7247 8.58901 20.8498 8.65204 20.9678C8.73613 21.1251 8.8414 21.2751 8.95087 21.3828C9.1523 21.5807 9.48154 21.7627 9.74481 21.8232C9.75871 21.8265 9.7807 21.8288 9.80243 21.8301C9.82748 21.8315 9.86183 21.8327 9.90399 21.834C9.98841 21.8366 10.1088 21.8385 10.2643 21.8408C10.5757 21.8454 11.031 21.8494 11.6315 21.8525C12.8332 21.8589 14.6185 21.8623 17.0036 21.8623C20.2135 21.8623 21.9901 21.8611 22.985 21.8535C23.4823 21.8497 23.7859 21.8442 23.9753 21.8369C24.1617 21.8297 24.2446 21.8202 24.2966 21.8057H24.2985C24.7893 21.6584 25.1226 21.382 25.3542 20.9258L25.5016 20.6328L25.5104 20.6162V20.5986L25.5202 16.4746Z" fill="white" stroke="white" stroke-width="0.150949"/>
<path d="M16.182 19.5085C16.7237 19.563 17.8245 19.5296 18.31 19.4441L18.6078 19.3855C20.0834 19.0677 21.3781 18.397 22.3959 17.4207C22.5351 17.2865 22.6285 17.1844 22.6781 17.0935C22.7037 17.0465 22.7196 16.9999 22.7231 16.9519C22.7264 16.9045 22.7164 16.8602 22.7006 16.8171L22.7016 16.8162C22.6977 16.8052 22.6916 16.7959 22.6889 16.7917C22.6852 16.7863 22.6806 16.7798 22.6762 16.7742C22.6674 16.7629 22.6558 16.749 22.642 16.7332C22.6141 16.7011 22.5744 16.6582 22.5258 16.6062C22.4285 16.5021 22.2918 16.3599 22.1293 16.1931C21.8041 15.8593 21.3736 15.4249 20.9418 14.9939C20.5099 14.5628 20.0766 14.1345 19.7455 13.8132C19.58 13.6527 19.4391 13.5191 19.3373 13.4246C19.2865 13.3774 19.245 13.3387 19.2143 13.3123C19.1992 13.2993 19.186 13.2882 19.1752 13.28C19.1699 13.276 19.1634 13.2719 19.1576 13.2683C19.155 13.2666 19.1412 13.2585 19.1234 13.2556L19.1244 13.2546C18.9531 13.2248 18.8112 13.3015 18.5951 13.4871L18.477 13.5818C17.876 14.0349 17.1356 14.1859 16.3607 14.0076L16.3617 14.0066C16.2346 13.9768 16.0518 13.9002 15.8676 13.8025C15.7299 13.7294 15.5945 13.6466 15.4838 13.5662L15.3822 13.4871C15.2548 13.3811 15.1663 13.3116 15.0883 13.2771C15.0007 13.2384 14.9286 13.2436 14.8432 13.2664L14.8422 13.2673C14.8267 13.2718 14.8123 13.2801 14.8031 13.2859C14.7926 13.2926 14.7806 13.3006 14.768 13.3103C14.7423 13.3301 14.7093 13.3581 14.6693 13.3933C14.5892 13.464 14.4772 13.5689 14.3305 13.7097C14.037 13.9914 13.6021 14.4208 13.0014 15.0232L11.269 16.7556V16.9353C11.269 17.0077 11.2714 17.0667 11.3158 17.1365C11.3543 17.1969 11.4241 17.2653 11.5375 17.3738C12.772 18.5607 14.4443 19.3283 16.1811 19.5085H16.182ZM19.892 18.1023C17.3806 19.2247 14.4548 18.793 12.3354 16.9871L12.3363 16.9861L12.2797 16.9382L13.6195 15.5945C14.0033 15.2107 14.3533 14.8614 14.6078 14.6082C14.7351 14.4815 14.8388 14.3793 14.9106 14.3083C14.9387 14.2805 14.962 14.2575 14.9799 14.24H14.9818C15.0112 14.26 15.0509 14.2885 15.0941 14.3201H15.0951C15.661 14.7203 16.286 14.9099 17.018 14.9031L17.2699 14.8943C17.7647 14.8597 18.1991 14.7271 18.6225 14.4851L18.8334 14.3552L19.018 14.2322L20.3715 15.5818L21.7084 16.9197L21.5902 17.0271L21.4242 17.1667C21.0077 17.4997 20.3933 17.8779 19.892 18.1023Z" fill="white" stroke="white" stroke-width="0.150949"/>
<path d="M23.6236 31.2559C24.1021 31.2559 24.3627 31.2547 24.5269 31.2217C24.6126 31.2044 24.6769 31.1781 24.7339 31.1367C24.7882 31.0973 24.8329 31.0468 24.8814 30.9893L24.9361 30.918C24.9533 30.8923 24.9694 30.8649 24.9839 30.8379C25.0128 30.7841 25.0381 30.7262 25.0503 30.6777L25.0689 30.5146C25.0737 30.4414 25.0774 30.3482 25.0806 30.2422C25.0869 30.0298 25.0904 29.7637 25.0904 29.498C25.0904 29.2323 25.0869 28.966 25.0806 28.7539C25.0774 28.6479 25.0737 28.5545 25.0689 28.4814L25.0503 28.3203C24.9974 28.1091 24.8334 27.9132 24.6324 27.8164L24.6314 27.8174C24.5548 27.7792 24.4945 27.7588 24.355 27.749C24.2199 27.7396 24.0033 27.7383 23.6128 27.7383C23.245 27.7383 23.0286 27.7405 22.8892 27.75C22.7475 27.7596 22.679 27.7775 22.6089 27.8096V27.8086C22.5117 27.8524 22.4188 27.9263 22.3443 28.0098C22.2701 28.093 22.209 28.1919 22.1831 28.2891L22.1841 28.29C22.1758 28.3198 22.1698 28.3719 22.1656 28.4336C22.1609 28.5014 22.157 28.5913 22.1538 28.6982C22.1475 28.9122 22.1441 29.1994 22.1441 29.5312C22.1441 30.0234 22.1459 30.3025 22.1548 30.4736C22.1639 30.6463 22.1806 30.7184 22.2154 30.792C22.253 30.8762 22.3255 30.9674 22.4029 31.043C22.4805 31.1189 22.5723 31.1885 22.6529 31.2207H22.6538C22.6696 31.2267 22.6906 31.2297 22.7056 31.2314C22.7239 31.2336 22.7471 31.2355 22.774 31.2373C22.8286 31.241 22.902 31.2443 22.9878 31.2471C23.1597 31.2526 23.3856 31.2559 23.6236 31.2559ZM22.9683 28.5625H24.231V30.4316H22.9683V28.5625Z" fill="white" stroke="white" stroke-width="0.150949"/>
<path d="M11.8934 29.1011L11.9149 29.0806L12.0096 28.9897V28.9888C12.0744 28.9259 12.1121 28.8378 12.1248 28.7495C12.1376 28.6609 12.1267 28.5646 12.0848 28.4829L12.0838 28.481C12.06 28.438 12.0314 28.3931 11.9744 28.3599C11.921 28.3288 11.8494 28.3121 11.7498 28.3013C11.5505 28.2797 11.1947 28.2791 10.5291 28.2808C10.1837 28.2808 9.86034 28.2841 9.61896 28.2896C9.4986 28.2923 9.39809 28.2956 9.32501 28.2993C9.28852 28.3012 9.25802 28.3031 9.23517 28.3052C9.22395 28.3062 9.21359 28.3068 9.2049 28.3081C9.19964 28.3089 9.18687 28.3119 9.17462 28.3169C8.90798 28.4239 8.82721 28.7771 9.03204 28.9819L9.15118 29.1011H11.8934Z" fill="white" stroke="white" stroke-width="0.150949"/>
<path d="M16.3311 29.1011L16.3535 29.0796L16.4512 28.9819L16.4521 28.98C16.4921 28.9382 16.5238 28.8982 16.5439 28.8511C16.5644 28.8034 16.5713 28.7546 16.5713 28.6997V28.6978C16.5695 28.6235 16.5587 28.5591 16.5244 28.4995C16.4907 28.4411 16.4384 28.3955 16.3701 28.3481V28.3472C16.3126 28.308 16.2377 28.2945 16.0537 28.2866C15.8644 28.2785 15.5402 28.2769 14.9639 28.2769H14.9629C14.5305 28.2785 14.205 28.2822 13.9814 28.2886C13.8699 28.2917 13.7825 28.2954 13.7197 28.3003C13.6884 28.3028 13.6615 28.3058 13.6406 28.3091C13.6304 28.3107 13.6204 28.3126 13.6113 28.3149C13.6038 28.3169 13.5929 28.3208 13.582 28.3267V28.3257C13.4343 28.4037 13.3566 28.542 13.3564 28.7124C13.3564 28.7715 13.3596 28.8247 13.3818 28.8735C13.4043 28.9227 13.4414 28.9594 13.4873 28.9966L13.5918 29.0835L13.6133 29.1011H16.3311Z" fill="white" stroke="white" stroke-width="0.150949"/>
<path d="M20.7631 29.1011L20.7846 29.0825L20.8725 29.0054L20.8715 29.0044C20.9455 28.9424 20.989 28.8507 21.0043 28.7476V28.7466C21.0129 28.6844 21.0167 28.6303 20.9984 28.5767C20.9807 28.5247 20.9451 28.4814 20.9018 28.4331L20.9008 28.4341L20.8012 28.3198L20.7787 28.2944L20.7455 28.2935L19.435 28.2837C18.8151 28.2803 18.4847 28.2799 18.2973 28.2876C18.204 28.2914 18.1416 28.297 18.0951 28.3071C18.0454 28.318 18.0145 28.3336 17.9848 28.3521C17.805 28.4623 17.7376 28.6708 17.8197 28.8638H17.8207C17.8367 28.9032 17.8584 28.9421 17.8822 28.9741C17.905 29.0048 17.9352 29.0372 17.9682 29.0552L17.9701 29.0562L18.0014 29.0669C18.0102 29.0689 18.0202 29.0703 18.0307 29.0718C18.052 29.0747 18.0799 29.0772 18.1127 29.0796C18.1783 29.0843 18.2696 29.0882 18.3861 29.0913C18.6203 29.0976 18.96 29.1011 19.4047 29.1011H20.7631Z" fill="white" stroke="white" stroke-width="0.150949"/>
<path d="M11.8874 30.7173L12.0065 30.5981C12.0483 30.5564 12.0811 30.5158 12.1013 30.4663C12.1214 30.4169 12.1266 30.3647 12.1266 30.3052C12.1266 30.2459 12.1213 30.1943 12.1013 30.145C12.0811 30.0954 12.0484 30.0551 12.0065 30.0132L11.9089 29.9155L11.8874 29.8931H9.16669L9.14423 29.9136L9.03973 30.0112V30.0122C8.83215 30.2048 8.87117 30.5296 9.12079 30.6587V30.6577C9.15264 30.6748 9.19161 30.6857 9.24384 30.6929C9.29698 30.7002 9.36961 30.7049 9.47137 30.7085C9.67543 30.7157 10.0067 30.7173 10.5534 30.7173H11.8874Z" fill="white" stroke="white" stroke-width="0.150949"/>
<path d="M13.6313 30.7205L14.9809 30.7107L16.3344 30.7009L16.3686 30.7L16.391 30.6746L16.4721 30.5798C16.6155 30.4118 16.6065 30.1724 16.4516 30.0134V30.0125L16.3539 29.9148L16.3315 29.8933H13.5961L13.5736 29.9148L13.475 30.0134C13.3087 30.1839 13.308 30.4306 13.4799 30.5984L13.5756 30.698L13.5981 30.7214L13.6313 30.7205Z" fill="white" stroke="white" stroke-width="0.150949"/>
<path d="M19.3747 30.7173C19.804 30.7173 20.1346 30.7139 20.3649 30.7075C20.4798 30.7044 20.5706 30.7005 20.6364 30.6958C20.6691 30.6935 20.6968 30.6909 20.7184 30.688C20.7369 30.6855 20.7603 30.682 20.778 30.6743H20.779C20.8434 30.6456 20.9009 30.5828 20.9411 30.521C20.9813 30.459 21.0152 30.3803 21.0153 30.3091C21.0153 30.2817 21.0095 30.2474 21.0016 30.2163C20.9936 30.1848 20.9822 30.1502 20.9674 30.1206L20.9665 30.1216C20.9464 30.0766 20.9229 30.0252 20.8688 29.9868C20.8163 29.9497 20.745 29.9306 20.6452 29.9185C20.4449 29.8942 20.0781 29.8931 19.3776 29.8931H18.0485L18.027 29.9126L17.9235 30.0073H17.9225C17.8775 30.0489 17.8406 30.0882 17.818 30.1382C17.7954 30.1884 17.7907 30.2419 17.7907 30.3052C17.7907 30.3687 17.7952 30.4228 17.818 30.4731C17.8406 30.523 17.8776 30.5615 17.9225 30.603L17.9235 30.604L18.027 30.6978L18.0485 30.7173H19.3747Z" fill="white" stroke="white" stroke-width="0.150949"/>
</svg>
