<svg width="37" height="35" viewBox="0 0 37 35" fill="none" xmlns="http://www.w3.org/2000/svg">
<path d="M31.0375 5.00179C29.3636 3.41006 27.3699 2.14802 25.1726 1.28928C22.9752 0.430547 20.6182 -0.00770039 18.2391 0.000102388C8.27057 0.000102388 0.146059 7.64873 0.146059 17.0333C0.146059 20.0412 0.985896 22.9632 2.55603 25.5414L0 34.376L9.5851 32.004C12.2324 33.3619 15.2084 34.0838 18.2391 34.0838C28.2076 34.0838 36.3321 26.4351 36.3321 17.0505C36.3321 12.4957 34.4516 8.21593 31.0375 5.00179ZM18.2391 31.1962C15.537 31.1962 12.8897 30.5087 10.571 29.2196L10.0233 28.9102L4.32699 30.3196L5.84235 25.0945L5.4772 24.5617C3.97598 22.3048 3.17886 19.6962 3.17678 17.0333C3.17678 9.23002 9.93199 2.87049 18.2208 2.87049C22.2374 2.87049 26.0167 4.34865 28.8466 7.02997C30.2478 8.34306 31.3583 9.90493 32.1135 11.625C32.8688 13.3451 33.254 15.1893 33.2466 17.0505C33.2831 24.8538 26.5279 31.1962 18.2391 31.1962ZM26.4914 20.6084C26.035 20.4022 23.8076 19.3709 23.4059 19.2162C22.986 19.0787 22.6939 19.01 22.3835 19.4225C22.0731 19.8522 21.215 20.8147 20.9594 21.0897C20.7038 21.3819 20.43 21.4163 19.9735 21.1928C19.5171 20.9866 18.0565 20.5225 16.3403 19.0787C14.9893 17.9443 14.0947 16.5521 13.8208 16.1224C13.5652 15.6927 13.7843 15.4692 14.0216 15.2458C14.2225 15.0567 14.4781 14.7473 14.6972 14.5067C14.9162 14.2661 15.0075 14.077 15.1536 13.802C15.2996 13.5098 15.2266 13.2692 15.1171 13.0629C15.0075 12.8567 14.0947 10.7597 13.7295 9.90035C13.3644 9.07533 12.981 9.17846 12.7071 9.16127H11.8308C11.5204 9.16127 11.0457 9.2644 10.6258 9.69409C10.2241 10.1238 9.05564 11.1551 9.05564 13.252C9.05564 15.3489 10.6805 17.3771 10.8996 17.6521C11.1187 17.9443 14.0947 22.2413 18.6225 24.0804C19.6997 24.5273 20.5395 24.7851 21.1968 24.9742C22.274 25.3007 23.2598 25.2492 24.0449 25.146C24.9213 25.0257 26.7287 24.1148 27.0939 23.1179C27.4773 22.121 27.4773 21.2788 27.3495 21.0897C27.2217 20.9006 26.9478 20.8147 26.4914 20.6084Z" fill="#004588"/>
</svg>
