<svg width="59" height="65" viewBox="0 0 59 65" fill="none" xmlns="http://www.w3.org/2000/svg">
<path d="M18.133 0.185905C15.8589 0.673199 13.9097 1.68028 12.1555 3.33709C8.32207 6.94308 7.2825 12.4983 9.49158 18.021C11.1809 22.3092 13.4874 25.0055 21.6415 32.25C25.0201 35.2713 28.1388 37.8377 28.5611 38.0001C29.6007 38.3899 29.7956 38.26 36.2279 32.4449C44.9018 24.5832 48.0855 20.4899 49.3849 15.552C50.6194 10.809 49.2875 6.26087 45.649 3.01222C43.3424 0.93309 41.0034 0.0884438 37.5274 0.0884438C34.5711 0.0559578 32.3295 0.77066 30.153 2.3625L29.0809 3.14217L27.9764 2.29752C25.6698 0.543255 21.0892 -0.431339 18.133 0.185905ZM23.7206 4.44163C24.7277 4.79898 26.1896 5.67611 27.0018 6.39081C28.7885 7.91767 29.6332 7.98265 30.9001 6.6507C33.9864 3.40206 39.4441 2.91476 42.9201 5.54617C45.584 7.56032 46.6885 11.8485 45.4865 15.422C44.2845 19.1255 39.4766 24.6157 31.2575 31.8277L29.0484 33.7444L28.1713 32.9322C27.684 32.5099 25.3125 30.3658 22.876 28.1892C16.3462 22.3741 14.2021 19.8077 12.8052 16.1367C11.8306 13.5703 12.0255 9.99681 13.26 7.88519C15.4041 4.24671 19.5624 2.88228 23.7206 4.44163Z" fill="#00ADEF"/>
<path d="M26.4821 12.6932V15.1297H24.0456H21.6091V17.7286V20.3275H24.0456H26.4821V22.764V25.2005L27.7816 25.233C28.4963 25.2655 29.6333 25.2979 30.3155 25.3304L31.5175 25.3629L31.615 22.829L31.7124 20.3275H34.1164H36.5529V17.7286V15.1297H34.1164H31.6799V12.6932V10.2567H29.081H26.4821V12.6932Z" fill="#00ADEF"/>
<path d="M4.84085 37.9169C6.06005 37.9169 6.9647 37.9111 7.63382 37.9344C8.30008 37.9577 8.74636 38.0094 9.04105 38.1298C9.19068 38.1909 9.30444 38.2713 9.3887 38.3768C9.47266 38.4821 9.52349 38.6072 9.55374 38.7518C9.61297 39.0353 9.59964 39.4174 9.59964 39.9091V41.2118L10.1895 41.1122C10.8318 41.0037 12.2184 40.9227 13.7754 40.8827C15.3345 40.8427 17.0718 40.8436 18.419 40.9003C21.7285 41.0395 23.4782 41.3445 25.4795 42.1346L27.0088 42.7382L31.753 42.83L36.5117 42.9208L36.5323 42.9218L36.5498 42.9315L37.4395 43.4237C38.5092 44.0155 39.2024 44.9024 39.5606 46.1346C39.9988 47.6423 39.5751 49.0557 38.3448 50.2235C37.8385 50.7039 37.4313 51.0059 36.916 51.1991C36.403 51.3914 35.7886 51.4734 34.8741 51.5272C34.5527 51.5461 34.2959 51.5626 34.0977 51.576C34.1121 51.578 34.1267 51.5809 34.1416 51.5829C34.5987 51.6446 35.5091 51.6287 36.5078 51.5585C37.5042 51.4884 38.5798 51.3643 39.3662 51.2137C41.558 50.794 43.4752 50.1081 46.5664 48.6337C51.4491 46.3045 54.0891 45.8911 56.1719 47.2059C56.5632 47.4531 56.966 47.9185 57.2881 48.4423C57.6107 48.967 57.859 49.5612 57.9356 50.0712C58.0065 50.5443 57.9329 51.1347 57.7578 51.7167C57.5825 52.2996 57.3029 52.8819 56.9551 53.3387C56.7365 53.6259 56.5188 53.8673 56.1641 54.119C55.8111 54.3695 55.3246 54.6289 54.5723 54.9579C53.0683 55.6156 50.4827 56.5575 45.7276 58.2596C42.5297 59.4044 40.0048 60.4237 38.5166 61.1698C36.6268 62.1174 35.1374 62.6995 33.5723 63.0067C32.0072 63.3138 30.3703 63.3452 28.1866 63.1971C23.0692 62.8502 17.7196 61.9959 9.86917 60.2733C9.82324 60.2632 9.78683 60.2561 9.75687 60.2528C9.72709 60.2495 9.70964 60.2516 9.69925 60.2548C9.68949 60.2578 9.6664 60.2672 9.64554 60.3534C9.62443 60.4408 9.61173 60.5814 9.6055 60.8046C9.59931 61.0264 9.59964 61.3232 9.59964 61.7186C9.59964 62.3008 9.61925 62.7448 9.57034 63.0702C9.54552 63.2354 9.50199 63.3774 9.42484 63.4969C9.34686 63.6177 9.23799 63.7103 9.09085 63.7802C8.80281 63.9168 8.36012 63.9714 7.69339 63.994C7.02299 64.0167 6.10906 64.0067 4.86917 64.0067C3.07547 64.0067 2.03696 63.9982 1.41409 63.9598C0.796926 63.9218 0.564342 63.8541 0.40921 63.7137C0.317333 63.6305 0.258508 63.5213 0.215851 63.2352C0.173505 62.951 0.144672 62.4759 0.125031 61.6444C0.085681 59.9785 0.0820618 56.8644 0.0820618 50.9452V38.4667L0.117218 38.4423L0.481476 38.1864C0.655781 38.0643 0.930608 38.0007 1.55472 37.9637C2.18403 37.9265 3.18829 37.9169 4.84085 37.9169ZM2.21487 61.8739H7.46585V40.0497H2.21487V61.8739ZM18.7744 43.0106C16.1138 42.8296 16.0495 42.8296 12.8272 43.0126C11.6199 43.0811 10.3889 43.1839 10.0889 43.2401L9.59964 43.3319V57.9413L10.1973 58.1034C11.7872 58.5315 18.0918 59.7601 21.0166 60.2118C25.3729 60.8846 27.5728 61.0943 30.2754 61.0975C31.751 61.0992 32.753 61.0292 33.8321 60.746C34.9129 60.4623 36.0755 59.9641 37.8701 59.1034C39.5853 58.2808 42.3957 57.1593 45.5078 56.0555C48.5021 54.9935 50.74 54.1735 52.295 53.5673C53.0723 53.2642 53.6787 53.0148 54.1231 52.8153C54.5703 52.6145 54.8459 52.4674 54.9698 52.37C55.6173 51.8607 55.8737 51.0736 55.7803 50.3505C55.6868 49.6273 55.2451 48.9763 54.5059 48.7323C53.8305 48.5095 53.0023 48.5209 51.8526 48.8202C50.7022 49.1197 49.237 49.7052 47.293 50.6219C44.279 52.0433 42.5209 52.6846 40.2012 53.204C38.7082 53.5381 38.0472 53.5868 35.1153 53.5839C32.1987 53.5809 31.5522 53.5325 30.3028 53.2167C29.4127 52.9918 28.4343 52.6754 27.6075 52.3602C27.1939 52.2026 26.8167 52.0457 26.5078 51.8993C26.2008 51.7537 25.9558 51.6163 25.8076 51.4999C25.537 51.287 25.3849 51.0159 25.3662 50.7313C25.3476 50.4467 25.4628 50.1602 25.7041 49.9188C25.7824 49.8405 25.8627 49.7758 25.9737 49.7255C26.0831 49.6759 26.2184 49.6421 26.4053 49.618C26.7776 49.5701 27.3768 49.5584 28.4287 49.5516C29.7136 49.5433 31.959 49.4878 33.418 49.4286C34.5813 49.3813 35.2548 49.3441 35.6866 49.2821C36.1136 49.2208 36.2959 49.1368 36.4805 48.9989C37.1994 48.4621 37.514 47.9196 37.5235 47.245C37.535 46.3981 37.1599 45.7164 36.4297 45.2626C36.2801 45.1696 36.1652 45.1036 36.0039 45.0516C35.8411 44.9992 35.6267 44.9605 35.2793 44.9305C34.5833 44.8705 33.373 44.8464 31.0117 44.8046L26.1709 44.7186H26.1553L26.1416 44.7128L24.878 44.1913C23.2032 43.5004 21.7118 43.2104 18.7744 43.0106Z" fill="#00ADEF" stroke="#00ADEF" stroke-width="0.164092"/>
</svg>
