<svg width="41" height="41" viewBox="0 0 41 41" fill="none" xmlns="http://www.w3.org/2000/svg">
<rect width="41" height="41" rx="12" fill="#00ADEF"/>
<path d="M18.4536 9.56053C15.9171 9.90079 13.738 11.6399 12.3872 14.3999C11.5967 16.0221 11.1946 17.6513 11.0983 19.6654L11.0743 20.1569H9.3489C8.40372 20.1569 7.5204 20.1741 7.39323 20.1913C6.85705 20.2703 6.39305 20.504 6.01154 20.8924C5.55785 21.353 5.35163 21.841 5.31382 22.5388L5.28977 22.9478L5.10073 23.0131C4.5783 23.1952 4.15555 23.6867 4.03869 24.2401C3.98026 24.5288 3.99057 25.9071 4.05243 26.1545C4.21397 26.7835 4.71578 27.275 5.33445 27.4056C5.43412 27.4262 5.77095 27.4434 6.08028 27.4434H6.64739V28.8938C6.64739 30.279 6.65083 30.3511 6.71613 30.4817C6.75394 30.5608 6.82956 30.6536 6.88111 30.6914C6.97047 30.7567 7.03578 30.7601 8.73023 30.7705L10.4831 30.7808L10.6 30.7017C10.844 30.5333 10.8406 30.5539 10.8406 28.9145V27.4434H12.0573H13.2774L13.4733 27.7046C14.5285 29.1035 15.9927 30.1415 17.5015 30.5574C18.3402 30.7876 18.2061 30.7808 22.853 30.7705L27.0462 30.7601L27.4208 30.6811C29.4418 30.2515 31.2222 28.9213 32.4767 26.8969C33.4528 25.3228 34.0302 23.5699 34.2536 21.5145C34.3121 20.9749 34.3121 19.3354 34.2536 18.7993C33.989 16.3727 33.2122 14.3174 31.9061 12.5954C30.7204 11.035 29.1531 10.0005 27.4243 9.63271L27.0462 9.55366L22.8014 9.55022C20.4677 9.54678 18.512 9.55366 18.4536 9.56053ZM19.6909 10.6363C21.0589 10.7944 22.224 11.389 23.317 12.4889C24.3515 13.5303 25.1558 14.9395 25.637 16.5549C26.3175 18.8371 26.3313 21.3667 25.6714 23.6489C24.8362 26.5326 23.0214 28.6945 20.8217 29.43C19.0654 30.0177 17.1613 29.6294 15.6112 28.368C15.3671 28.1686 14.69 27.5087 14.69 27.4709C14.69 27.4572 15.8243 27.44 17.2094 27.4365L19.7253 27.4228L20.0656 27.33C21.1517 27.0344 22.1278 26.2748 22.8805 25.1406C24.0182 23.429 24.4959 20.9921 24.1556 18.6446C23.97 17.3729 23.4992 16.1081 22.8324 15.1045C22.4887 14.5855 21.8081 13.8774 21.3785 13.5922C19.8009 12.5404 18.0652 12.647 16.577 13.8878C15.1472 15.077 14.1882 17.2973 14.0817 19.6482L14.0611 20.1569H13.1159H12.1707L12.1913 19.5967C12.2841 17.2354 13.0403 14.991 14.3085 13.3C14.6316 12.8738 15.264 12.2174 15.6524 11.908C16.8691 10.9422 18.3299 10.4817 19.6909 10.6363ZM26.7472 10.6363C28.476 10.8185 30.0605 11.8324 31.2703 13.5337C31.5384 13.9084 32.0471 14.7814 32.0471 14.8639C32.0471 14.8879 30.9988 14.8982 29.1187 14.8982L26.1869 14.8948L25.9223 14.3552C25.2039 12.8807 24.1866 11.6537 22.9492 10.7601C22.8496 10.6879 22.7671 10.6226 22.7671 10.6157C22.7671 10.5848 26.4447 10.6054 26.7472 10.6363ZM19.8009 14.039C20.1068 14.1112 20.5502 14.3174 20.8251 14.5133C21.7119 15.1423 22.4199 16.2421 22.8324 17.6307C22.9286 17.9538 23.073 18.6377 23.0489 18.6618C23.0386 18.6721 21.5916 18.679 19.8318 18.679C16.3089 18.679 16.4189 18.6755 15.9652 18.8955C15.8105 18.9711 15.649 19.0949 15.4565 19.2839C15.1369 19.5967 15.1506 19.6035 15.2056 19.1258C15.2915 18.3971 15.4428 17.7407 15.6593 17.1529C16.2745 15.4791 17.3022 14.3552 18.5155 14.039C18.8592 13.9496 19.4263 13.9496 19.8009 14.039ZM32.5867 16.1562C32.8066 16.7783 33.0301 17.7613 33.1332 18.5415C33.2191 19.2117 33.2363 20.724 33.1641 21.4286C33.0644 22.4253 32.8926 23.2262 32.597 24.1095C31.6896 26.8282 29.8989 28.8148 27.7611 29.4747C27.1046 29.6775 27.0187 29.6843 25.0011 29.7015C23.97 29.7084 23.0455 29.7118 22.9424 29.705L22.7568 29.6947L23.1486 29.4025C23.5816 29.0829 24.3481 28.3405 24.709 27.8902C25.8673 26.4398 26.7025 24.5116 27.0462 22.4872C27.1974 21.5901 27.218 21.2911 27.218 20.1225C27.218 19.1602 27.2043 18.9264 27.139 18.4384C27.0427 17.7407 26.8949 17.0086 26.7368 16.4518C26.6715 16.2181 26.6165 16.0221 26.6165 16.0118C26.6165 15.9912 32.4011 15.9775 32.4733 16.0015C32.5111 16.0118 32.5626 16.0806 32.5867 16.1562ZM16.8897 21.3255V22.9065H16.4086H15.9274V21.762C15.9274 20.5281 15.9411 20.4181 16.1095 20.1603C16.247 19.9541 16.5907 19.7616 16.8485 19.7479C16.8794 19.7445 16.8897 20.0813 16.8897 21.3255ZM23.1589 20.3803C23.1555 21.1846 23.0386 22.0232 22.8358 22.6762L22.7636 22.9065L20.368 22.8996L17.9724 22.8893L17.9621 21.3599C17.9587 20.5178 17.9621 19.8098 17.9724 19.7857C17.9827 19.7513 18.5223 19.7445 20.5742 19.7513L23.1623 19.7616L23.1589 20.3803ZM14.855 22.0713L14.8447 22.8893L10.624 22.8996L6.39993 22.9065L6.41367 22.5731C6.42399 22.2982 6.44117 22.2019 6.51679 22.0404C6.67833 21.6967 6.9911 21.4183 7.34511 21.3083C7.46197 21.2705 8.22843 21.2602 11.1774 21.2602L14.8619 21.2567L14.855 22.0713ZM22.2859 24.0167C22.2859 24.0889 22.0041 24.5632 21.791 24.8416C21.2617 25.5462 20.6567 26.0033 19.9315 26.2439L19.6909 26.3264L12.6622 26.3367C8.79554 26.3401 5.58535 26.3367 5.52348 26.3264C5.46162 26.3161 5.36538 26.2679 5.30695 26.2164C5.1076 26.0514 5.09729 26.0033 5.09729 25.1784C5.09385 24.3501 5.10417 24.302 5.30695 24.1301C5.41006 24.0476 5.46505 24.0236 5.63347 23.9995C5.66784 23.9926 9.43139 23.9858 13.9923 23.9823C20.4952 23.9789 22.2859 23.9858 22.2859 24.0167ZM8.05658 28.5776V29.7118H7.90191H7.74724V28.5776V27.4434H7.90191H8.05658V28.5776ZM9.75791 28.5776V29.6947L9.45889 29.705L9.15643 29.7153V28.5776V27.44L9.45889 27.4503L9.75791 27.4606V28.5776Z" fill="white"/>
<path d="M30.2358 17.0981C29.325 17.1153 29.2631 17.1187 29.1703 17.1874C28.9538 17.3455 28.8885 17.6789 29.0328 17.892C29.0741 17.9539 29.1634 18.0433 29.2287 18.0879L29.3456 18.167L30.4523 18.1567C31.5109 18.1464 31.5659 18.1429 31.6553 18.0742C31.9027 17.892 31.968 17.6343 31.834 17.3765C31.7412 17.1977 31.59 17.1049 31.3597 17.0912C31.2738 17.0843 30.7685 17.0878 30.2358 17.0981Z" fill="white"/>
<path d="M29.6859 18.8885C29.459 18.9332 29.2837 19.112 29.2459 19.3319C29.2184 19.5003 29.3284 19.7512 29.4796 19.8612C29.5724 19.93 29.6309 19.9334 30.6826 19.9437C31.7756 19.9506 31.7893 19.9506 31.9234 19.875C32.2568 19.6791 32.274 19.1738 31.9543 18.9642C31.8718 18.9092 31.7481 18.8989 30.8201 18.8851C30.2495 18.8748 29.7374 18.8782 29.6859 18.8885Z" fill="white"/>
<path d="M30.576 20.6725L29.5346 20.6897L29.4005 20.8306C29.2218 21.023 29.1943 21.1983 29.3043 21.4183C29.4589 21.7276 29.4246 21.7208 30.6825 21.7311C31.7755 21.7379 31.7892 21.7379 31.9233 21.6623C32.2532 21.4699 32.2739 20.9612 31.9611 20.755C31.8202 20.6622 31.6793 20.6553 30.576 20.6725Z" fill="white"/>
<path d="M28.9881 22.4837C28.8816 22.5215 28.7097 22.7209 28.6753 22.8446C28.61 23.0886 28.7372 23.3602 28.9675 23.4702C29.0672 23.5183 29.2356 23.5251 30.1361 23.5251C31.1156 23.5251 31.1981 23.5217 31.3219 23.4564C31.6827 23.2742 31.6999 22.7415 31.3528 22.5284C31.2462 22.4631 31.1775 22.4597 30.1395 22.4631C29.5346 22.4631 29.0156 22.4734 28.9881 22.4837Z" fill="white"/>
<path d="M28.0051 24.2814C27.8951 24.3261 27.7233 24.546 27.6992 24.6732C27.6717 24.8141 27.7302 25.0238 27.8333 25.1372C27.9811 25.3022 28.0532 25.3125 29.1806 25.3125C30.1808 25.3125 30.2392 25.3091 30.3595 25.2403C30.5382 25.1406 30.6138 25.0169 30.6276 24.8176C30.6448 24.6079 30.5657 24.4395 30.3973 24.3226C30.2839 24.247 30.2701 24.247 29.1806 24.2505C28.5722 24.2505 28.0464 24.2642 28.0051 24.2814Z" fill="white"/>
</svg>
