<svg width="21" height="21" viewBox="0 0 21 21" fill="none" xmlns="http://www.w3.org/2000/svg">
<path d="M15.1066 11.0729C14.6416 11.5379 12.3777 13.802 11.873 14.3067C11.5526 14.627 11.0332 14.627 10.7129 14.3067C10.3925 13.9863 10.3925 13.4669 10.7129 13.1465L12.5391 11.3203H6.45311C6.00005 11.3203 5.6328 10.9531 5.6328 10.5C5.6328 10.0469 6.00005 9.67969 6.45311 9.67969H12.5391L10.7129 7.85351C10.3925 7.53313 10.3925 7.01371 10.7129 6.69338C11.0333 6.37305 11.5527 6.37301 11.873 6.69338C12.319 7.13938 14.6696 9.49007 15.1059 9.9264C15.4193 10.2472 15.4163 10.7558 15.1066 11.0729ZM21 6.08557V14.9144C21 17.7191 19.0981 19.1434 18.9747 19.3182C17.8903 20.4027 16.4482 21 14.9144 21H6.08557C4.55175 21 3.10972 20.4027 2.02523 19.3181C1.90333 19.1454 0 17.7194 0 14.9144V6.08557C0 3.28092 1.90194 1.85661 2.02527 1.68185C3.10972 0.597311 4.55175 0 6.08557 0H14.9144C16.4482 0 17.8903 0.597311 18.9748 1.68189C19.0967 1.85464 21 3.28063 21 6.08557ZM19.3594 6.08557C19.3594 4.03032 17.9394 3.01543 17.8146 2.84197C17.04 2.06727 16.01 1.64062 14.9144 1.64062H6.08557C4.99 1.64062 3.96002 2.06723 3.18536 2.84193C3.05612 3.02166 1.64062 4.01941 1.64062 6.08557V14.9144C1.64062 16.9697 3.06063 17.9846 3.18536 18.158C3.96002 18.9328 4.99 19.3594 6.08557 19.3594H14.9144C16.01 19.3594 17.04 18.9328 17.8146 18.1581C17.9439 17.9783 19.3594 16.9806 19.3594 14.9144V6.08557Z" fill="#004588"/>
</svg>
