<svg width="17" height="18" viewBox="0 0 17 18" fill="none" xmlns="http://www.w3.org/2000/svg">
<path d="M2.3401 1.17005V2.3401H1.17005H0V3.51015V4.6802H1.17005H2.3401V5.80896V6.95148L3.51015 6.91018L4.6802 6.86889V5.78143V4.69397L5.80896 4.65267L6.93771 4.61138L6.99277 3.46886L7.04783 2.3401H5.86402H4.6802V1.17005V-4.76837e-07H3.51015H2.3401V1.17005Z" fill="white"/>
<path d="M10.7092 2.84949C8.20396 5.34101 8.23149 5.27218 9.63555 6.67624L10.5991 7.63982L8.85093 9.38801L7.10274 11.1362L6.11163 10.1864C4.68004 8.7961 4.76263 8.78234 2.29865 11.2601C0.811993 12.7605 0.275146 13.3937 0.275146 13.6415C0.275146 13.8755 0.688105 14.3848 1.83063 15.4998C3.1108 16.7524 3.52376 17.0828 4.17073 17.3168C7.00638 18.3905 11.4663 16.2294 14.536 12.3063C16.1741 10.2139 16.9862 8.24549 17 6.33211C17 4.76287 16.7384 4.23979 15.1279 2.56042C13.9028 1.29401 13.3109 0.825991 12.9255 0.825991C12.8291 0.825991 11.838 1.7345 10.7092 2.84949ZM14.0267 3.90942C14.4947 4.40497 14.9627 5.02441 15.0728 5.28595C15.9676 7.41957 13.6688 11.5905 10.2275 14.082C9.84203 14.371 8.97482 14.8528 8.32785 15.1557C7.35051 15.6099 6.92379 15.7338 6.05657 15.7889C4.7764 15.8852 4.51486 15.7613 3.23469 14.4674L2.42253 13.6277L3.57882 12.4577L4.74887 11.2876L5.72621 12.265C6.46953 12.9945 6.81366 13.2561 7.08897 13.2561C7.39181 13.2423 7.96995 12.7467 10.0623 10.6544C13.2008 7.52969 13.1319 7.68111 11.7003 6.26328L10.7368 5.29971L11.8655 4.17096C12.4987 3.53776 13.0356 3.02844 13.0906 3.02844C13.1319 3.02844 13.5587 3.42763 14.0267 3.90942Z" fill="white"/>
</svg>
