<svg width="41" height="45" viewBox="0 0 41 45" fill="none" xmlns="http://www.w3.org/2000/svg">
<path d="M2.24883 0.211143C1.57141 0.492668 1.38666 0.624634 0.946778 1.1261C0.471704 1.68035 0.181382 2.38416 0.0670121 3.23754C0.0142262 3.68622 -0.0121668 10.4252 0.00542855 23.0059C0.0318215 40.4516 0.0494168 42.132 0.181382 42.5015C0.568478 43.6012 1.13153 44.2874 1.9937 44.7097L2.58314 45H20.2224H37.8617L38.4072 44.7449C39.4277 44.2786 40.1843 43.1877 40.3691 41.9208C40.4834 41.1114 40.4834 3.97654 40.3691 3.16716C40.1843 1.83871 39.4629 0.78299 38.416 0.299122L37.8617 0.0439873L20.3104 0.0263939L2.75909 0L2.24883 0.211143ZM37.4922 2.05865C37.8441 2.19941 38.2048 2.6129 38.3632 3.05279C38.5304 3.54546 38.5304 41.4985 38.3632 41.9912C38.2048 42.4311 37.8441 42.8446 37.4922 42.9853C37.0699 43.1701 3.37493 43.1701 2.95264 42.9853C2.60074 42.8446 2.24003 42.4311 2.08167 41.9912C1.91452 41.4985 1.91452 3.54546 2.08167 3.05279C2.24003 2.6217 2.59194 2.20821 2.93505 2.05865C3.33094 1.8827 37.0699 1.8827 37.4922 2.05865Z" fill="#313131"/>
<path d="M20.0289 3.07027L19.7386 3.32541L19.7122 15.167C19.7034 21.8445 19.6594 27.0087 19.6154 27.0087C19.3691 27.0087 16.0787 26.5336 15.3221 26.3841C14.8295 26.2873 13.8969 26.0321 13.2547 25.8034C11.3016 25.126 10.0172 25.1788 8.75029 25.9882C7.86173 26.5512 7.11393 27.6597 6.80601 28.8562C6.57727 29.7272 6.53329 31.082 6.70924 31.8562C7.14912 33.8181 8.57434 34.865 11.7767 35.5864C13.5538 35.9823 14.0113 36.3166 14.7679 37.821C15.0054 38.3049 15.3309 38.8415 15.4805 39.0087C16.5626 40.2492 19.589 41.4896 21.0582 41.3049C22.6682 41.0937 24.4981 40.2755 25.5802 39.2726C25.9937 38.8855 26.2136 38.5864 26.6007 37.821C27.1462 36.7653 27.5949 36.2374 28.1755 35.9823C28.3691 35.8943 28.9937 35.7184 29.5479 35.5952C33.0934 34.7946 34.4746 33.6597 34.7386 31.3107C34.9673 29.3225 34.1755 27.1143 32.9174 26.1905C32.0289 25.5483 31.3779 25.3371 30.2518 25.3371C29.6007 25.3371 29.372 25.3899 28.4922 25.6978C26.8735 26.2609 26.372 26.3753 24.1198 26.7008C22.9497 26.8679 21.9292 27.0087 21.8588 27.0087C21.7356 27.0087 21.718 25.8562 21.718 15.4134C21.718 7.74183 21.6828 3.7125 21.6301 3.50136C21.4277 2.79755 20.5831 2.56881 20.0289 3.07027ZM12.85 27.7477C14.3808 28.258 14.9966 28.3811 18.5509 28.865L20.6183 29.1465L21.806 28.997C25.9937 28.4603 27.1726 28.2404 28.8001 27.6773C29.4424 27.4486 30.1022 27.2726 30.3045 27.2726C31.1491 27.2726 31.9145 27.7653 32.3368 28.5659C32.6799 29.2257 32.8295 29.8503 32.8207 30.7037C32.8207 31.5483 32.6271 32.0233 32.0993 32.4984C31.5714 32.9735 30.9556 33.2198 29.2136 33.6597C27.3133 34.1348 26.8735 34.3459 26.0289 35.1905C25.4922 35.736 25.2811 36.0263 24.9116 36.7741C24.3925 37.8122 24.1022 38.0937 22.9937 38.648C21.1638 39.5541 20.284 39.5629 18.5069 38.7008C17.3016 38.1201 16.9937 37.8298 16.4394 36.7301C16.0699 35.9911 15.8236 35.6304 15.3837 35.1817C14.6095 34.3899 14.0201 34.1084 12.1726 33.6509C10.5626 33.255 10.0699 33.0703 9.4629 32.6568C8.49516 31.9882 8.26642 30.5365 8.88226 28.909C9.23417 27.95 10.1139 27.299 11.0465 27.2814C11.2752 27.2726 11.9614 27.4574 12.85 27.7477Z" fill="#313131"/>
<path d="M11.3016 29.1202C10.7474 29.2962 10.3691 29.8504 10.3691 30.4839C10.3691 31.0557 10.589 31.4604 11.0289 31.7155C11.7327 32.1378 12.718 31.8827 13.0435 31.1965C13.3603 30.5279 13.1579 29.7185 12.5685 29.2786C12.3045 29.0938 11.6535 29.0059 11.3016 29.1202Z" fill="#313131"/>
<path d="M28.9321 29.2347C28.4922 29.4634 28.1403 30.0265 28.1403 30.4752C28.1403 30.8447 28.4746 31.4869 28.7825 31.7068C29.1345 31.9708 30.0494 31.9708 30.3925 31.7068C30.8676 31.3549 30.9996 31.091 30.9996 30.484C30.9996 29.8153 30.8236 29.525 30.2518 29.2259C29.7591 28.9796 29.4072 28.9796 28.9321 29.2347Z" fill="#313131"/>
<path d="M9.83241 6.6422C9.4717 6.83575 9.28695 7.31082 9.40132 7.72431C9.51569 8.17299 9.65645 8.28736 10.545 8.64807C12.3221 9.38707 14.0817 9.59821 15.4717 9.24631C16.8177 8.912 17.7855 8.29616 17.8999 7.69792C18.0142 7.05569 17.3896 6.42226 16.7738 6.55423C16.6242 6.58942 16.3163 6.73018 16.0963 6.87974C14.8911 7.63634 13.0435 7.60115 11.1521 6.76537C10.501 6.48384 10.1755 6.45745 9.83241 6.6422Z" fill="#313131"/>
<path d="M24.0406 6.58937C23.7063 6.73013 23.4776 7.11723 23.4776 7.53072C23.4776 7.84743 23.5304 7.9618 23.7679 8.19934C24.7356 9.16708 26.9087 9.64215 28.7122 9.29025C30.1902 9.00872 31.721 8.36649 31.9057 7.9618C32.0905 7.56591 32.0377 7.15242 31.7738 6.8621C31.3955 6.44861 31.0435 6.43101 30.1462 6.80051C28.1579 7.62749 26.5304 7.66268 25.3075 6.89729C24.762 6.56298 24.3397 6.4662 24.0406 6.58937Z" fill="#313131"/>
<path d="M7.82654 10.5658C7.6154 10.777 7.55381 10.909 7.55381 11.1729C7.55381 11.7447 7.70337 11.9471 8.38079 12.2726C10.765 13.4075 13.8969 13.4603 16.677 12.4309C17.5216 12.1142 17.7591 11.9207 17.8383 11.4632C17.9262 11.0057 17.7503 10.601 17.3984 10.4163C17.0553 10.2403 16.8089 10.2579 16.1227 10.5219C15.023 10.9353 14.24 11.0937 13.0436 11.1465C11.5392 11.2169 10.4658 11.0233 9.19898 10.4779C8.56554 10.2051 8.15205 10.2315 7.82654 10.5658Z" fill="#313131"/>
<path d="M23.8999 10.4954C23.1345 11.1465 23.416 11.9647 24.5773 12.3957C27.2869 13.4163 30.155 13.4163 32.7415 12.3957C33.6301 12.035 33.894 11.7359 33.8324 11.1817C33.7972 10.8825 33.718 10.7242 33.5157 10.5394C33.155 10.2139 32.9174 10.2227 31.8705 10.6098C30.7268 11.0233 29.9086 11.1729 28.8001 11.1729C27.6652 11.1729 26.5831 10.9881 25.457 10.601C24.4189 10.2403 24.2166 10.2227 23.8999 10.4954Z" fill="#313131"/>
<path d="M23.9087 14.1905C23.3896 14.5336 23.3368 15.2638 23.8031 15.6949C24.1022 15.9764 25.6594 16.4867 26.7327 16.6714C28.5626 16.9793 30.9556 16.9441 33.111 16.5658C34.026 16.4163 35.8647 15.9676 36.1726 15.8268C36.6828 15.5981 36.8324 14.8063 36.4541 14.3576C36.1198 13.9529 35.8471 13.9353 34.5802 14.2433C32.4072 14.7623 30.3573 14.9999 28.8441 14.9031C27.6301 14.8327 26.1345 14.5512 25.3075 14.2521C24.4453 13.9353 24.2958 13.9265 23.9087 14.1905Z" fill="#313131"/>
<path d="M4.15792 14.2257C3.60367 14.6832 3.67405 15.5542 4.28109 15.8709C4.633 16.0468 6.32215 16.5131 7.28989 16.689C8.47757 16.909 12.155 16.909 13.3603 16.689C14.4776 16.4867 15.8676 16.126 16.3251 15.9237C17.0553 15.6069 17.1872 14.7272 16.5802 14.2345C16.3251 14.0234 15.8676 14.041 14.9702 14.2961C13.4307 14.7448 12.2518 14.8943 10.2371 14.9031C8.23124 14.9031 7.44825 14.8063 5.99663 14.3665C4.9937 14.0673 4.40426 14.0146 4.15792 14.2257Z" fill="#313131"/>
<path d="M9.20778 19.6892C8.65352 19.7596 8.29282 20.4898 8.55675 21.044C8.7327 21.4135 8.89106 21.5103 9.92039 21.8622C11.1784 22.2933 11.9526 22.4429 13.2811 22.4956C14.7503 22.5572 15.6389 22.3989 16.6594 21.915C17.7591 21.3959 18.0846 20.9297 17.8119 20.2874C17.5304 19.61 16.9673 19.5396 15.9908 20.0499C14.6007 20.7625 12.7268 20.7537 10.589 20.0059C9.81481 19.742 9.45411 19.654 9.20778 19.6892Z" fill="#313131"/>
<path d="M23.8999 19.8564C23.4248 20.1555 23.3544 20.9209 23.7591 21.352C24.067 21.6775 25.2811 22.2318 26.0465 22.3813C26.9175 22.5573 28.5098 22.5573 29.5128 22.3901C29.9438 22.3109 30.7796 22.091 31.3779 21.8887C32.6447 21.4664 32.8911 21.264 32.8911 20.6306C32.8911 20.3227 32.8383 20.1995 32.6183 19.9796C32.2576 19.6189 31.9409 19.6277 30.7796 20.0147C29.5919 20.4106 28.6594 20.5866 27.6828 20.5866C26.7239 20.5866 25.9937 20.4106 25.2635 20.006C24.6653 19.6716 24.2694 19.6277 23.8999 19.8564Z" fill="#313131"/>
</svg>
