<svg width="47" height="52" viewBox="0 0 47 52" fill="none" xmlns="http://www.w3.org/2000/svg">
<mask id="path-1-outside-1_181_101" maskUnits="userSpaceOnUse" x="-0.699989" y="-0.699951" width="48" height="53" fill="black">
<rect fill="white" x="-0.699989" y="-0.699951" width="48" height="53"/>
<path d="M17.5024 0.409748C17.0841 0.648796 17.0343 0.977489 17.0343 3.28831V5.4796H14.0561C11.835 5.4796 10.8588 5.51944 10.2114 5.62901C6.59578 6.26648 3.99611 9.37413 3.98615 13.0694V13.946H2.64149C1.69525 13.946 1.18727 13.9858 0.948217 14.0854C0.250987 14.3743 0.300789 13.3981 0.300789 27.9902C0.300789 39.7435 0.32071 41.1778 0.460156 41.4467C0.758968 42.0244 0.848612 42.0344 5.82883 42.0344H10.3708L10.311 42.4527C10.2811 42.6918 10.0819 44.5743 9.8628 46.646C9.51418 50.0027 9.4843 50.4509 9.60383 50.7497C9.68351 50.929 9.83292 51.1282 9.94248 51.188C10.2313 51.3374 36.1882 51.3374 36.4771 51.188C36.5866 51.1282 36.736 50.929 36.8157 50.7497C36.9352 50.4509 36.9054 50.0027 36.5567 46.646C36.3376 44.5743 36.1384 42.6918 36.1085 42.4527L36.0488 42.0344H40.5907C45.5709 42.0344 45.6606 42.0244 45.9594 41.4467C46.0988 41.1778 46.1187 39.7435 46.1187 27.9902C46.1187 13.3981 46.1686 14.3743 45.4713 14.0854C45.2323 13.9858 44.7243 13.946 43.778 13.946H42.4334V13.0694C42.4234 9.99168 40.6106 7.26252 37.762 6.06727C36.6065 5.57921 35.6703 5.4796 32.3634 5.4796H29.3852V3.28831C29.3852 0.957569 29.3255 0.638836 28.8972 0.399788C28.6282 0.260342 17.7515 0.270302 17.5024 0.409748ZM27.2935 4.623C27.2935 6.95375 27.2935 6.96371 27.5326 7.2426L27.7716 7.52149L31.8455 7.57129C35.4412 7.62109 35.9691 7.65097 36.4073 7.81034C38.8775 8.70678 40.3417 10.7088 40.3417 13.1691V13.946H23.2098H6.07784V13.1691C6.07784 10.6989 7.54202 8.70678 10.0122 7.81034C10.4505 7.65097 10.9784 7.62109 14.5741 7.57129L18.6479 7.52149L18.8869 7.2426C19.126 6.96371 19.126 6.95375 19.126 4.623V2.29227H23.2098H27.2935V4.623ZM7.5719 17.1831V18.3385L7.08384 18.9262C6.21728 19.972 5.58978 21.1772 5.1814 22.6215C4.87262 23.6773 4.8029 25.769 5.02203 26.8846C5.37065 28.6177 6.1874 30.301 7.23325 31.4564C7.68146 31.9743 7.70139 32.0142 8.85679 35.7394C9.50422 37.8012 10.062 39.5941 10.1018 39.7136L10.1716 39.9427H6.287H2.39248V27.9902V16.0377H4.98219H7.5719V17.1831ZM36.7759 17.6712L36.8058 19.3047L37.3038 19.8326C39.6146 22.2828 40.1026 25.6594 38.5787 28.6276C37.8018 30.1416 36.3177 31.4763 34.6643 32.1437C33.2698 32.7014 31.3873 32.811 29.9331 32.4226C27.9011 31.8747 25.9987 30.3309 25.0923 28.4782C24.5943 27.4822 24.415 26.8248 24.3054 25.6495C24.2158 24.7231 24.1859 24.6335 23.907 24.3745C23.6879 24.1753 23.4986 24.1056 23.2098 24.1056C22.9209 24.1056 22.7317 24.1753 22.5125 24.3745C22.2336 24.6335 22.2038 24.7231 22.1141 25.6495C22.0643 26.1973 21.9448 26.8945 21.8552 27.1933C21.2575 29.1954 19.7535 30.9683 17.8809 31.8747C16.8152 32.3927 16.0881 32.572 14.843 32.6417C12.7912 32.7413 10.9784 32.0839 9.41458 30.6496C6.26708 27.781 6.1376 22.99 9.11577 19.8326L9.61379 19.3047L9.64367 17.6712L9.67355 16.0377H23.2098H36.746L36.7759 17.6712ZM44.0271 27.9902V39.9427H40.1325H36.248L36.3177 39.7136C36.3575 39.5941 36.9153 37.8012 37.5627 35.7394C38.7281 31.9843 38.7281 31.9843 39.2162 31.4365C40.2819 30.2313 41.1883 28.289 41.4473 26.5957C41.7362 24.7231 41.3875 22.482 40.5309 20.7788C40.1525 20.0318 39.3158 18.7867 38.997 18.5278C38.8775 18.4282 38.8476 18.1493 38.8476 17.2229V16.0377H41.4373H44.0271V27.9902ZM23.7078 30.301C24.6241 31.7751 25.9887 32.9903 27.6422 33.7772C29.0067 34.4246 29.9629 34.6636 31.4769 34.7334C32.8714 34.7931 33.9869 34.6338 35.1424 34.2154C35.5009 34.0859 35.8197 33.9963 35.8396 34.0162C35.8695 34.0461 34.9431 37.104 34.1563 39.614L34.0467 39.9427H23.2098H12.3728L12.2633 39.614C11.4764 37.104 10.5501 34.0461 10.5799 34.0162C10.5999 33.9963 10.9186 34.0859 11.2772 34.2154C12.4326 34.6338 13.5482 34.7931 14.9426 34.7334C16.4765 34.6636 17.4228 34.4346 18.7674 33.7871C20.4308 32.9803 21.7954 31.7751 22.7117 30.301C22.9608 29.9125 23.1799 29.5938 23.2098 29.5938C23.2397 29.5938 23.4588 29.9125 23.7078 30.301ZM33.967 42.1539C33.977 42.2236 34.1463 43.8671 34.3455 45.7894L34.724 49.3055H23.2098H11.6955L12.074 45.7894C12.2732 43.8671 12.4425 42.2236 12.4525 42.1539C12.4525 41.9746 33.967 41.9746 33.967 42.1539Z"/>
</mask>
<path d="M17.5024 0.409748C17.0841 0.648796 17.0343 0.977489 17.0343 3.28831V5.4796H14.0561C11.835 5.4796 10.8588 5.51944 10.2114 5.62901C6.59578 6.26648 3.99611 9.37413 3.98615 13.0694V13.946H2.64149C1.69525 13.946 1.18727 13.9858 0.948217 14.0854C0.250987 14.3743 0.300789 13.3981 0.300789 27.9902C0.300789 39.7435 0.32071 41.1778 0.460156 41.4467C0.758968 42.0244 0.848612 42.0344 5.82883 42.0344H10.3708L10.311 42.4527C10.2811 42.6918 10.0819 44.5743 9.8628 46.646C9.51418 50.0027 9.4843 50.4509 9.60383 50.7497C9.68351 50.929 9.83292 51.1282 9.94248 51.188C10.2313 51.3374 36.1882 51.3374 36.4771 51.188C36.5866 51.1282 36.736 50.929 36.8157 50.7497C36.9352 50.4509 36.9054 50.0027 36.5567 46.646C36.3376 44.5743 36.1384 42.6918 36.1085 42.4527L36.0488 42.0344H40.5907C45.5709 42.0344 45.6606 42.0244 45.9594 41.4467C46.0988 41.1778 46.1187 39.7435 46.1187 27.9902C46.1187 13.3981 46.1686 14.3743 45.4713 14.0854C45.2323 13.9858 44.7243 13.946 43.778 13.946H42.4334V13.0694C42.4234 9.99168 40.6106 7.26252 37.762 6.06727C36.6065 5.57921 35.6703 5.4796 32.3634 5.4796H29.3852V3.28831C29.3852 0.957569 29.3255 0.638836 28.8972 0.399788C28.6282 0.260342 17.7515 0.270302 17.5024 0.409748ZM27.2935 4.623C27.2935 6.95375 27.2935 6.96371 27.5326 7.2426L27.7716 7.52149L31.8455 7.57129C35.4412 7.62109 35.9691 7.65097 36.4073 7.81034C38.8775 8.70678 40.3417 10.7088 40.3417 13.1691V13.946H23.2098H6.07784V13.1691C6.07784 10.6989 7.54202 8.70678 10.0122 7.81034C10.4505 7.65097 10.9784 7.62109 14.5741 7.57129L18.6479 7.52149L18.8869 7.2426C19.126 6.96371 19.126 6.95375 19.126 4.623V2.29227H23.2098H27.2935V4.623ZM7.5719 17.1831V18.3385L7.08384 18.9262C6.21728 19.972 5.58978 21.1772 5.1814 22.6215C4.87262 23.6773 4.8029 25.769 5.02203 26.8846C5.37065 28.6177 6.1874 30.301 7.23325 31.4564C7.68146 31.9743 7.70139 32.0142 8.85679 35.7394C9.50422 37.8012 10.062 39.5941 10.1018 39.7136L10.1716 39.9427H6.287H2.39248V27.9902V16.0377H4.98219H7.5719V17.1831ZM36.7759 17.6712L36.8058 19.3047L37.3038 19.8326C39.6146 22.2828 40.1026 25.6594 38.5787 28.6276C37.8018 30.1416 36.3177 31.4763 34.6643 32.1437C33.2698 32.7014 31.3873 32.811 29.9331 32.4226C27.9011 31.8747 25.9987 30.3309 25.0923 28.4782C24.5943 27.4822 24.415 26.8248 24.3054 25.6495C24.2158 24.7231 24.1859 24.6335 23.907 24.3745C23.6879 24.1753 23.4986 24.1056 23.2098 24.1056C22.9209 24.1056 22.7317 24.1753 22.5125 24.3745C22.2336 24.6335 22.2038 24.7231 22.1141 25.6495C22.0643 26.1973 21.9448 26.8945 21.8552 27.1933C21.2575 29.1954 19.7535 30.9683 17.8809 31.8747C16.8152 32.3927 16.0881 32.572 14.843 32.6417C12.7912 32.7413 10.9784 32.0839 9.41458 30.6496C6.26708 27.781 6.1376 22.99 9.11577 19.8326L9.61379 19.3047L9.64367 17.6712L9.67355 16.0377H23.2098H36.746L36.7759 17.6712ZM44.0271 27.9902V39.9427H40.1325H36.248L36.3177 39.7136C36.3575 39.5941 36.9153 37.8012 37.5627 35.7394C38.7281 31.9843 38.7281 31.9843 39.2162 31.4365C40.2819 30.2313 41.1883 28.289 41.4473 26.5957C41.7362 24.7231 41.3875 22.482 40.5309 20.7788C40.1525 20.0318 39.3158 18.7867 38.997 18.5278C38.8775 18.4282 38.8476 18.1493 38.8476 17.2229V16.0377H41.4373H44.0271V27.9902ZM23.7078 30.301C24.6241 31.7751 25.9887 32.9903 27.6422 33.7772C29.0067 34.4246 29.9629 34.6636 31.4769 34.7334C32.8714 34.7931 33.9869 34.6338 35.1424 34.2154C35.5009 34.0859 35.8197 33.9963 35.8396 34.0162C35.8695 34.0461 34.9431 37.104 34.1563 39.614L34.0467 39.9427H23.2098H12.3728L12.2633 39.614C11.4764 37.104 10.5501 34.0461 10.5799 34.0162C10.5999 33.9963 10.9186 34.0859 11.2772 34.2154C12.4326 34.6338 13.5482 34.7931 14.9426 34.7334C16.4765 34.6636 17.4228 34.4346 18.7674 33.7871C20.4308 32.9803 21.7954 31.7751 22.7117 30.301C22.9608 29.9125 23.1799 29.5938 23.2098 29.5938C23.2397 29.5938 23.4588 29.9125 23.7078 30.301ZM33.967 42.1539C33.977 42.2236 34.1463 43.8671 34.3455 45.7894L34.724 49.3055H23.2098H11.6955L12.074 45.7894C12.2732 43.8671 12.4425 42.2236 12.4525 42.1539C12.4525 41.9746 33.967 41.9746 33.967 42.1539Z" fill="#313131"/>
<path d="M17.5024 0.409748C17.0841 0.648796 17.0343 0.977489 17.0343 3.28831V5.4796H14.0561C11.835 5.4796 10.8588 5.51944 10.2114 5.62901C6.59578 6.26648 3.99611 9.37413 3.98615 13.0694V13.946H2.64149C1.69525 13.946 1.18727 13.9858 0.948217 14.0854C0.250987 14.3743 0.300789 13.3981 0.300789 27.9902C0.300789 39.7435 0.32071 41.1778 0.460156 41.4467C0.758968 42.0244 0.848612 42.0344 5.82883 42.0344H10.3708L10.311 42.4527C10.2811 42.6918 10.0819 44.5743 9.8628 46.646C9.51418 50.0027 9.4843 50.4509 9.60383 50.7497C9.68351 50.929 9.83292 51.1282 9.94248 51.188C10.2313 51.3374 36.1882 51.3374 36.4771 51.188C36.5866 51.1282 36.736 50.929 36.8157 50.7497C36.9352 50.4509 36.9054 50.0027 36.5567 46.646C36.3376 44.5743 36.1384 42.6918 36.1085 42.4527L36.0488 42.0344H40.5907C45.5709 42.0344 45.6606 42.0244 45.9594 41.4467C46.0988 41.1778 46.1187 39.7435 46.1187 27.9902C46.1187 13.3981 46.1686 14.3743 45.4713 14.0854C45.2323 13.9858 44.7243 13.946 43.778 13.946H42.4334V13.0694C42.4234 9.99168 40.6106 7.26252 37.762 6.06727C36.6065 5.57921 35.6703 5.4796 32.3634 5.4796H29.3852V3.28831C29.3852 0.957569 29.3255 0.638836 28.8972 0.399788C28.6282 0.260342 17.7515 0.270302 17.5024 0.409748ZM27.2935 4.623C27.2935 6.95375 27.2935 6.96371 27.5326 7.2426L27.7716 7.52149L31.8455 7.57129C35.4412 7.62109 35.9691 7.65097 36.4073 7.81034C38.8775 8.70678 40.3417 10.7088 40.3417 13.1691V13.946H23.2098H6.07784V13.1691C6.07784 10.6989 7.54202 8.70678 10.0122 7.81034C10.4505 7.65097 10.9784 7.62109 14.5741 7.57129L18.6479 7.52149L18.8869 7.2426C19.126 6.96371 19.126 6.95375 19.126 4.623V2.29227H23.2098H27.2935V4.623ZM7.5719 17.1831V18.3385L7.08384 18.9262C6.21728 19.972 5.58978 21.1772 5.1814 22.6215C4.87262 23.6773 4.8029 25.769 5.02203 26.8846C5.37065 28.6177 6.1874 30.301 7.23325 31.4564C7.68146 31.9743 7.70139 32.0142 8.85679 35.7394C9.50422 37.8012 10.062 39.5941 10.1018 39.7136L10.1716 39.9427H6.287H2.39248V27.9902V16.0377H4.98219H7.5719V17.1831ZM36.7759 17.6712L36.8058 19.3047L37.3038 19.8326C39.6146 22.2828 40.1026 25.6594 38.5787 28.6276C37.8018 30.1416 36.3177 31.4763 34.6643 32.1437C33.2698 32.7014 31.3873 32.811 29.9331 32.4226C27.9011 31.8747 25.9987 30.3309 25.0923 28.4782C24.5943 27.4822 24.415 26.8248 24.3054 25.6495C24.2158 24.7231 24.1859 24.6335 23.907 24.3745C23.6879 24.1753 23.4986 24.1056 23.2098 24.1056C22.9209 24.1056 22.7317 24.1753 22.5125 24.3745C22.2336 24.6335 22.2038 24.7231 22.1141 25.6495C22.0643 26.1973 21.9448 26.8945 21.8552 27.1933C21.2575 29.1954 19.7535 30.9683 17.8809 31.8747C16.8152 32.3927 16.0881 32.572 14.843 32.6417C12.7912 32.7413 10.9784 32.0839 9.41458 30.6496C6.26708 27.781 6.1376 22.99 9.11577 19.8326L9.61379 19.3047L9.64367 17.6712L9.67355 16.0377H23.2098H36.746L36.7759 17.6712ZM44.0271 27.9902V39.9427H40.1325H36.248L36.3177 39.7136C36.3575 39.5941 36.9153 37.8012 37.5627 35.7394C38.7281 31.9843 38.7281 31.9843 39.2162 31.4365C40.2819 30.2313 41.1883 28.289 41.4473 26.5957C41.7362 24.7231 41.3875 22.482 40.5309 20.7788C40.1525 20.0318 39.3158 18.7867 38.997 18.5278C38.8775 18.4282 38.8476 18.1493 38.8476 17.2229V16.0377H41.4373H44.0271V27.9902ZM23.7078 30.301C24.6241 31.7751 25.9887 32.9903 27.6422 33.7772C29.0067 34.4246 29.9629 34.6636 31.4769 34.7334C32.8714 34.7931 33.9869 34.6338 35.1424 34.2154C35.5009 34.0859 35.8197 33.9963 35.8396 34.0162C35.8695 34.0461 34.9431 37.104 34.1563 39.614L34.0467 39.9427H23.2098H12.3728L12.2633 39.614C11.4764 37.104 10.5501 34.0461 10.5799 34.0162C10.5999 33.9963 10.9186 34.0859 11.2772 34.2154C12.4326 34.6338 13.5482 34.7931 14.9426 34.7334C16.4765 34.6636 17.4228 34.4346 18.7674 33.7871C20.4308 32.9803 21.7954 31.7751 22.7117 30.301C22.9608 29.9125 23.1799 29.5938 23.2098 29.5938C23.2397 29.5938 23.4588 29.9125 23.7078 30.301ZM33.967 42.1539C33.977 42.2236 34.1463 43.8671 34.3455 45.7894L34.724 49.3055H23.2098H11.6955L12.074 45.7894C12.2732 43.8671 12.4425 42.2236 12.4525 42.1539C12.4525 41.9746 33.967 41.9746 33.967 42.1539Z" stroke="#313131" stroke-width="0.6" mask="url(#path-1-outside-1_181_101)"/>
<path d="M32.473 29.3857C32.9622 29.3857 33.2515 29.3813 33.4945 29.3359C33.7428 29.2895 33.9382 29.2009 34.2415 29.0518C35.0693 28.6482 35.7911 27.9056 36.1742 27.0781C36.2961 26.824 36.3698 26.6354 36.4105 26.3955C36.4503 26.1608 36.4574 25.882 36.4574 25.4502C36.4574 25.0136 36.4503 24.7347 36.4105 24.5C36.3698 24.2604 36.2955 24.0725 36.1742 23.8145L36.1751 23.8135C35.8128 23.0371 35.0013 22.1956 34.262 21.8311L34.263 21.8301C34.0083 21.7027 33.8158 21.6237 33.5736 21.5752C33.3359 21.5277 33.0547 21.51 32.6273 21.4951C32.1911 21.4803 31.9127 21.4774 31.6771 21.5078C31.496 21.5312 31.343 21.5745 31.1663 21.6416L30.9798 21.7168C30.2392 22.0357 29.7495 22.4105 29.2454 23.0791V23.0801C28.9689 23.4389 28.777 23.7824 28.6576 24.1709C28.5382 24.5591 28.4933 24.9847 28.4984 25.502C28.4984 25.8699 28.5083 26.1195 28.555 26.3506C28.6023 26.584 28.6857 26.7913 28.8216 27.0781C29.253 27.9922 29.8635 28.636 30.7034 29.0508L30.9134 29.1523C31.1083 29.2424 31.265 29.3011 31.4515 29.3359C31.6945 29.3813 31.9838 29.3857 32.473 29.3857ZM33.471 26.7109C33.1301 27.0031 32.6367 27.0947 32.1663 27.0029C31.696 26.9111 31.2758 26.6412 31.0726 26.248C30.6572 25.4433 30.9374 24.465 31.64 24.0576L31.7855 23.9844L31.7865 23.9834C31.9829 23.8961 32.2678 23.8547 32.5531 23.8643C32.8392 23.8738 33.0979 23.9347 33.2513 24.0254C34.2802 24.6501 34.3783 25.9501 33.472 26.71L33.471 26.7109Z" fill="#313131" stroke="#313131" stroke-width="0.3"/>
</svg>
